<?xml version="1.0" encoding="UTF-8"?>
<svg width="25px" height="25px" viewBox="0 0 25 25" version="1.1" xmlns="http://www.w3.org/2000/svg" xmlns:xlink="http://www.w3.org/1999/xlink">
    <!-- Generator: Sketch 45.2 (43514) - http://www.bohemiancoding.com/sketch -->
    <title>link-symbol</title>
    <desc>Created with Sketch.</desc>
    <defs></defs>
    <g id="Page-1" stroke="none" stroke-width="1" fill="none" fill-rule="evenodd">
        <g id="Artboard-2" transform="translate(-149.000000, -64.000000)" fill-rule="nonzero" fill="#F2C215">
            <g id="link-symbol" transform="translate(149.000000, 64.000000)">
                <path d="M23.0082969,11.3031659 L18.3251638,15.9847707 C15.7404476,18.5710153 11.5473799,18.5710153 8.96222707,15.9847707 C8.55502183,15.5787118 8.23646288,15.121179 7.95671397,14.649345 L10.1326965,12.4735262 C10.2361354,12.369214 10.3638646,12.3094432 10.485917,12.2390284 C10.6363537,12.7530022 10.8989629,13.2395742 11.3031659,13.6438319 C12.5939956,14.9356987 14.6944323,14.9338974 15.9844978,13.6438319 L20.6661572,8.96233624 C21.9579694,7.67063319 21.9579694,5.57068777 20.6661572,4.27996725 C19.3760371,2.98924672 17.2761463,2.98924672 15.9844978,4.27996725 L14.3197052,5.94656114 C12.9687227,5.42052402 11.5132096,5.27909389 10.0962882,5.48673581 L13.6438319,1.93930131 C16.2300764,-0.646451965 20.4220524,-0.646451965 23.0082969,1.93930131 C25.593286,4.52494541 25.593286,8.71757642 23.0082969,11.3031659 Z M10.6281659,19.00131 L8.96217249,20.6679039 C7.67145197,21.9579694 5.57090611,21.9579694 4.27996725,20.6679039 C2.98913755,19.3760371 2.98913755,17.2760917 4.27996725,15.9847707 L8.96217249,11.3031659 C10.2539301,10.0115721 12.3530568,10.0115721 13.6437773,11.3031659 C14.0470524,11.7065502 14.3099345,12.1930131 14.4617904,12.7063319 C14.5845524,12.6349891 14.7106987,12.5770197 14.814083,12.4734716 L16.9899017,10.2985262 C16.7119541,9.82483624 16.3917576,9.36894105 15.9843886,8.96244541 C13.3998908,6.37669214 9.20644105,6.37669214 6.62068777,8.96244541 L1.93919214,13.6441048 C-0.64628821,16.2306223 -0.64628821,20.4220524 1.93919214,23.0083515 C4.52494541,25.593286 8.71741266,25.593286 11.3031114,23.0083515 L14.851583,19.4601528 C13.4338974,19.6689956 11.9780022,19.5263646 10.6281659,19.00131 Z" id="Shape"></path>
            </g>
        </g>
    </g>
</svg>