<?xml version="1.0" encoding="UTF-8" standalone="no"?>
<!DOCTYPE svg PUBLIC "-//W3C//DTD SVG 1.1//EN" "http://www.w3.org/Graphics/SVG/1.1/DTD/svg11.dtd">
<svg width="100%" height="100%" viewBox="0 0 2400 1800" version="1.1" xmlns="http://www.w3.org/2000/svg" xmlns:xlink="http://www.w3.org/1999/xlink" xml:space="preserve" xmlns:serif="http://www.serif.com/" style="fill-rule:evenodd;clip-rule:evenodd;">
    <g transform="matrix(-1,0,-0,1,2400,0)">
        <path d="M1259,905L1319,726L1160,850L1259,905Z" style="fill:rgb(89,5,127);fill-rule:nonzero;stroke:rgb(89,5,127);stroke-width:1.51px;"/>
        <path d="M1319,726L1130,702L1160,850L1319,726Z" style="fill:rgb(87,3,128);fill-rule:nonzero;stroke:rgb(87,3,128);stroke-width:1.51px;"/>
        <path d="M1259,905L1462,881L1319,726L1259,905Z" style="fill:rgb(96,16,125);fill-rule:nonzero;stroke:rgb(96,16,125);stroke-width:1.51px;"/>
        <path d="M1462,881L1533,739L1319,726L1462,881Z" style="fill:rgb(103,24,124);fill-rule:nonzero;stroke:rgb(103,24,124);stroke-width:1.51px;"/>
        <path d="M1319,726L1314,516L1130,702L1319,726Z" style="fill:rgb(92,10,128);fill-rule:nonzero;stroke:rgb(92,10,128);stroke-width:1.51px;"/>
        <path d="M1443,509L1314,516L1319,726L1443,509Z" style="fill:rgb(99,21,127);fill-rule:nonzero;stroke:rgb(99,21,127);stroke-width:1.51px;"/>
        <path d="M1259,905L1447,1064L1462,881L1259,905Z" style="fill:rgb(103,24,123);fill-rule:nonzero;stroke:rgb(103,24,123);stroke-width:1.51px;"/>
        <path d="M1139,1122L1274,1108L1259,905L1139,1122Z" style="fill:rgb(100,20,124);fill-rule:nonzero;stroke:rgb(100,20,124);stroke-width:1.51px;"/>
        <path d="M1274,1108L1447,1064L1259,905L1274,1108Z" style="fill:rgb(105,26,123);fill-rule:nonzero;stroke:rgb(105,26,123);stroke-width:1.51px;"/>
        <path d="M1662,900L1653,712L1533,739L1662,900Z" style="fill:rgb(115,37,121);fill-rule:nonzero;stroke:rgb(115,37,121);stroke-width:1.51px;"/>
        <path d="M1160,850L1139,1122L1259,905L1160,850Z" style="fill:rgb(91,7,126);fill-rule:nonzero;stroke:rgb(91,7,126);stroke-width:1.51px;"/>
        <path d="M906,1086L1139,1122L1160,850L906,1086Z" style="fill:rgb(97,16,126);fill-rule:nonzero;stroke:rgb(97,16,126);stroke-width:1.51px;"/>
        <path d="M1533,739L1443,509L1319,726L1533,739Z" style="fill:rgb(104,26,125);fill-rule:nonzero;stroke:rgb(104,26,125);stroke-width:1.51px;"/>
        <path d="M1314,516L1157,464L1130,702L1314,516Z" style="fill:rgb(89,6,129);fill-rule:nonzero;stroke:rgb(89,6,129);stroke-width:1.51px;"/>
        <path d="M1315,348L1157,464L1314,516L1315,348Z" style="fill:rgb(94,15,129);fill-rule:nonzero;stroke:rgb(94,15,129);stroke-width:1.51px;"/>
        <path d="M1130,702L916,691L1160,850L1130,702Z" style="fill:rgb(88,4,129);fill-rule:nonzero;stroke:rgb(88,4,129);stroke-width:1.51px;"/>
        <path d="M1157,464L916,691L1130,702L1157,464Z" style="fill:rgb(89,6,130);fill-rule:nonzero;stroke:rgb(89,6,130);stroke-width:1.51px;"/>
        <path d="M916,691L870,916L1160,850L916,691Z" style="fill:rgb(88,4,129);fill-rule:nonzero;stroke:rgb(88,4,129);stroke-width:1.51px;"/>
        <path d="M1533,739L1653,712L1443,509L1533,739Z" style="fill:rgb(111,34,123);fill-rule:nonzero;stroke:rgb(111,34,123);stroke-width:1.51px;"/>
        <path d="M1662,900L1533,739L1462,881L1662,900Z" style="fill:rgb(110,32,122);fill-rule:nonzero;stroke:rgb(110,32,122);stroke-width:1.51px;"/>
        <path d="M1447,1064L1662,900L1462,881L1447,1064Z" style="fill:rgb(111,33,121);fill-rule:nonzero;stroke:rgb(111,33,121);stroke-width:1.51px;"/>
        <path d="M870,916L906,1086L1160,850L870,916Z" style="fill:rgb(92,10,127);fill-rule:nonzero;stroke:rgb(92,10,127);stroke-width:1.51px;"/>
        <path d="M1443,509L1315,348L1314,516L1443,509Z" style="fill:rgb(101,22,128);fill-rule:nonzero;stroke:rgb(101,22,128);stroke-width:1.51px;"/>
        <path d="M1542,353L1315,348L1443,509L1542,353Z" style="fill:rgb(107,29,127);fill-rule:nonzero;stroke:rgb(107,29,127);stroke-width:1.51px;"/>
        <path d="M1274,1108L1326,1269L1447,1064L1274,1108Z" style="fill:rgb(116,38,120);fill-rule:nonzero;stroke:rgb(116,38,120);stroke-width:1.51px;"/>
        <path d="M1447,1064L1693,1103L1662,900L1447,1064Z" style="fill:rgb(122,45,118);fill-rule:nonzero;stroke:rgb(122,45,118);stroke-width:1.51px;"/>
        <path d="M1139,1122L1326,1269L1274,1108L1139,1122Z" style="fill:rgb(111,33,121);fill-rule:nonzero;stroke:rgb(111,33,121);stroke-width:1.51px;"/>
        <path d="M1081,1294L1326,1269L1139,1122L1081,1294Z" style="fill:rgb(113,35,120);fill-rule:nonzero;stroke:rgb(113,35,120);stroke-width:1.51px;"/>
        <path d="M916,691L771,699L870,916L916,691Z" style="fill:rgb(90,7,130);fill-rule:nonzero;stroke:rgb(90,7,130);stroke-width:1.51px;"/>
        <path d="M870,916L729,1112L906,1086L870,916Z" style="fill:rgb(101,21,127);fill-rule:nonzero;stroke:rgb(101,21,127);stroke-width:1.51px;"/>
        <path d="M856,490L771,699L916,691L856,490Z" style="fill:rgb(91,9,131);fill-rule:nonzero;stroke:rgb(91,9,131);stroke-width:1.51px;"/>
        <path d="M856,490L916,691L1157,464L856,490Z" style="fill:rgb(91,9,131);fill-rule:nonzero;stroke:rgb(91,9,131);stroke-width:1.51px;"/>
        <path d="M1060,270L856,490L1157,464L1060,270Z" style="fill:rgb(92,11,132);fill-rule:nonzero;stroke:rgb(92,11,132);stroke-width:1.51px;"/>
        <path d="M928,1264L1081,1294L1139,1122L928,1264Z" style="fill:rgb(114,36,121);fill-rule:nonzero;stroke:rgb(114,36,121);stroke-width:1.51px;"/>
        <path d="M1523,1266L1693,1103L1447,1064L1523,1266Z" style="fill:rgb(128,51,116);fill-rule:nonzero;stroke:rgb(128,51,116);stroke-width:1.51px;"/>
        <path d="M1822,665L1732,560L1653,712L1822,665Z" style="fill:rgb(123,46,120);fill-rule:nonzero;stroke:rgb(123,46,120);stroke-width:1.51px;"/>
        <path d="M1732,560L1542,353L1443,509L1732,560Z" style="fill:rgb(115,37,124);fill-rule:nonzero;stroke:rgb(115,37,124);stroke-width:1.51px;"/>
        <path d="M1452,1519L1523,1266L1326,1269L1452,1519Z" style="fill:rgb(135,59,113);fill-rule:nonzero;stroke:rgb(135,59,113);stroke-width:1.51px;"/>
        <path d="M1326,1269L1523,1266L1447,1064L1326,1269Z" style="fill:rgb(124,48,117);fill-rule:nonzero;stroke:rgb(124,48,117);stroke-width:1.51px;"/>
        <path d="M1653,712L1732,560L1443,509L1653,712Z" style="fill:rgb(116,39,123);fill-rule:nonzero;stroke:rgb(116,39,123);stroke-width:1.51px;"/>
        <path d="M1822,665L1653,712L1840,866L1822,665Z" style="fill:rgb(124,47,118);fill-rule:nonzero;stroke:rgb(124,47,118);stroke-width:1.51px;"/>
        <path d="M763,1241L928,1264L906,1086L763,1241Z" style="fill:rgb(113,35,123);fill-rule:nonzero;stroke:rgb(113,35,123);stroke-width:1.51px;"/>
        <path d="M906,1086L928,1264L1139,1122L906,1086Z" style="fill:rgb(108,31,123);fill-rule:nonzero;stroke:rgb(108,31,123);stroke-width:1.51px;"/>
        <path d="M1315,348L1060,270L1157,464L1315,348Z" style="fill:rgb(91,10,131);fill-rule:nonzero;stroke:rgb(91,10,131);stroke-width:1.51px;"/>
        <path d="M1081,138L1060,270L1288,93L1081,138Z" style="fill:rgb(93,14,133);fill-rule:nonzero;stroke:rgb(93,14,133);stroke-width:1.51px;"/>
        <path d="M856,490L751,521L771,699L856,490Z" style="fill:rgb(92,12,132);fill-rule:nonzero;stroke:rgb(92,12,132);stroke-width:1.51px;"/>
        <path d="M868,321L751,521L856,490L868,321Z" style="fill:rgb(93,14,133);fill-rule:nonzero;stroke:rgb(93,14,133);stroke-width:1.51px;"/>
        <path d="M771,699L679,915L870,916L771,699Z" style="fill:rgb(89,7,130);fill-rule:nonzero;stroke:rgb(89,7,130);stroke-width:1.51px;"/>
        <path d="M527,667L679,915L771,699L527,667Z" style="fill:rgb(91,10,131);fill-rule:nonzero;stroke:rgb(91,10,131);stroke-width:1.51px;"/>
        <path d="M1840,866L1653,712L1662,900L1840,866Z" style="fill:rgb(120,43,119);fill-rule:nonzero;stroke:rgb(120,43,119);stroke-width:1.51px;"/>
        <path d="M1693,1103L1840,866L1662,900L1693,1103Z" style="fill:rgb(125,47,117);fill-rule:nonzero;stroke:rgb(125,47,117);stroke-width:1.51px;"/>
        <path d="M679,915L729,1112L870,916L679,915Z" style="fill:rgb(96,16,128);fill-rule:nonzero;stroke:rgb(96,16,128);stroke-width:1.51px;"/>
        <path d="M1060,270L868,321L856,490L1060,270Z" style="fill:rgb(93,13,133);fill-rule:nonzero;stroke:rgb(93,13,133);stroke-width:1.51px;"/>
        <path d="M1149,1425L1249,1429L1081,1294L1149,1425Z" style="fill:rgb(125,47,117);fill-rule:nonzero;stroke:rgb(125,47,117);stroke-width:1.51px;"/>
        <path d="M1081,1294L1249,1429L1326,1269L1081,1294Z" style="fill:rgb(122,44,118);fill-rule:nonzero;stroke:rgb(122,44,118);stroke-width:1.51px;"/>
        <path d="M945,1466L1149,1425L1081,1294L945,1466Z" style="fill:rgb(126,49,118);fill-rule:nonzero;stroke:rgb(126,49,118);stroke-width:1.51px;"/>
        <path d="M729,1112L763,1241L906,1086L729,1112Z" style="fill:rgb(110,32,125);fill-rule:nonzero;stroke:rgb(110,32,125);stroke-width:1.51px;"/>
        <path d="M928,1264L945,1466L1081,1294L928,1264Z" style="fill:rgb(123,46,119);fill-rule:nonzero;stroke:rgb(123,46,119);stroke-width:1.51px;"/>
        <path d="M1693,1103L1874,1085L1840,866L1693,1103Z" style="fill:rgb(133,56,114);fill-rule:nonzero;stroke:rgb(133,56,114);stroke-width:1.51px;"/>
        <path d="M1523,1266L1734,1247L1693,1103L1523,1266Z" style="fill:rgb(137,61,113);fill-rule:nonzero;stroke:rgb(137,61,113);stroke-width:1.51px;"/>
        <path d="M1697,1490L1734,1247L1523,1266L1697,1490Z" style="fill:rgb(146,71,110);fill-rule:nonzero;stroke:rgb(146,71,110);stroke-width:1.51px;"/>
        <path d="M1822,665L1848,529L1732,560L1822,665Z" style="fill:rgb(127,51,119);fill-rule:nonzero;stroke:rgb(127,51,119);stroke-width:1.51px;"/>
        <path d="M1732,560L1641,273L1542,353L1732,560Z" style="fill:rgb(120,42,124);fill-rule:nonzero;stroke:rgb(120,42,124);stroke-width:1.51px;"/>
        <path d="M2049,755L1848,529L1822,665L2049,755Z" style="fill:rgb(133,56,117);fill-rule:nonzero;stroke:rgb(133,56,117);stroke-width:1.51px;"/>
        <path d="M1525,122L1288,93L1315,348L1525,122Z" style="fill:rgb(104,27,129);fill-rule:nonzero;stroke:rgb(104,27,129);stroke-width:1.51px;"/>
        <path d="M1843,343L1641,273L1732,560L1843,343Z" style="fill:rgb(126,49,122);fill-rule:nonzero;stroke:rgb(126,49,122);stroke-width:1.51px;"/>
        <path d="M1734,1247L1874,1085L1693,1103L1734,1247Z" style="fill:rgb(139,64,112);fill-rule:nonzero;stroke:rgb(139,64,112);stroke-width:1.51px;"/>
        <path d="M1840,866L2049,755L1822,665L1840,866Z" style="fill:rgb(132,55,116);fill-rule:nonzero;stroke:rgb(132,55,116);stroke-width:1.51px;"/>
        <path d="M1060,270L896,75L868,321L1060,270Z" style="fill:rgb(94,15,134);fill-rule:nonzero;stroke:rgb(94,15,134);stroke-width:1.51px;"/>
        <path d="M1288,93L1060,270L1315,348L1288,93Z" style="fill:rgb(93,14,132);fill-rule:nonzero;stroke:rgb(93,14,132);stroke-width:1.51px;"/>
        <path d="M1525,122L1315,348L1542,353L1525,122Z" style="fill:rgb(110,32,128);fill-rule:nonzero;stroke:rgb(110,32,128);stroke-width:1.51px;"/>
        <path d="M751,521L584,525L771,699L751,521Z" style="fill:rgb(92,13,132);fill-rule:nonzero;stroke:rgb(92,13,132);stroke-width:1.51px;"/>
        <path d="M664,309L584,525L751,521L664,309Z" style="fill:rgb(94,15,134);fill-rule:nonzero;stroke:rgb(94,15,134);stroke-width:1.51px;"/>
        <path d="M664,309L751,521L868,321L664,309Z" style="fill:rgb(94,15,134);fill-rule:nonzero;stroke:rgb(94,15,134);stroke-width:1.51px;"/>
        <path d="M763,1241L945,1466L928,1264L763,1241Z" style="fill:rgb(122,45,120);fill-rule:nonzero;stroke:rgb(122,45,120);stroke-width:1.51px;"/>
        <path d="M1273,1656L1452,1519L1249,1429L1273,1656Z" style="fill:rgb(142,66,111);fill-rule:nonzero;stroke:rgb(142,66,111);stroke-width:1.51px;"/>
        <path d="M1641,273L1525,122L1542,353L1641,273Z" style="fill:rgb(117,40,126);fill-rule:nonzero;stroke:rgb(117,40,126);stroke-width:1.51px;"/>
        <path d="M1704,78L1525,122L1641,273L1704,78Z" style="fill:rgb(121,44,126);fill-rule:nonzero;stroke:rgb(121,44,126);stroke-width:1.51px;"/>
        <path d="M763,1241L703,1455L945,1466L763,1241Z" style="fill:rgb(127,51,119);fill-rule:nonzero;stroke:rgb(127,51,119);stroke-width:1.51px;"/>
        <path d="M729,1112L543,1293L763,1241L729,1112Z" style="fill:rgb(116,39,124);fill-rule:nonzero;stroke:rgb(116,39,124);stroke-width:1.51px;"/>
        <path d="M679,915L565,1066L729,1112L679,915Z" style="fill:rgb(101,22,128);fill-rule:nonzero;stroke:rgb(101,22,128);stroke-width:1.51px;"/>
        <path d="M517,891L565,1066L679,915L517,891Z" style="fill:rgb(95,16,130);fill-rule:nonzero;stroke:rgb(95,16,130);stroke-width:1.51px;"/>
        <path d="M584,525L527,667L771,699L584,525Z" style="fill:rgb(92,13,132);fill-rule:nonzero;stroke:rgb(92,13,132);stroke-width:1.51px;"/>
        <path d="M527,667L517,891L679,915L527,667Z" style="fill:rgb(91,10,131);fill-rule:nonzero;stroke:rgb(91,10,131);stroke-width:1.51px;"/>
        <path d="M1249,1429L1452,1519L1326,1269L1249,1429Z" style="fill:rgb(134,57,114);fill-rule:nonzero;stroke:rgb(134,57,114);stroke-width:1.51px;"/>
        <path d="M1273,1656L1249,1429L1149,1425L1273,1656Z" style="fill:rgb(134,58,113);fill-rule:nonzero;stroke:rgb(134,58,113);stroke-width:1.51px;"/>
        <path d="M1734,1247L1860,1239L1874,1085L1734,1247Z" style="fill:rgb(145,70,110);fill-rule:nonzero;stroke:rgb(145,70,110);stroke-width:1.51px;"/>
        <path d="M1882,1423L1860,1239L1734,1247L1882,1423Z" style="fill:rgb(153,79,107);fill-rule:nonzero;stroke:rgb(153,79,107);stroke-width:1.51px;"/>
        <path d="M1848,529L1843,343L1732,560L1848,529Z" style="fill:rgb(129,52,120);fill-rule:nonzero;stroke:rgb(129,52,120);stroke-width:1.51px;"/>
        <path d="M2016,339L1843,343L1848,529L2016,339Z" style="fill:rgb(135,59,119);fill-rule:nonzero;stroke:rgb(135,59,119);stroke-width:1.51px;"/>
        <path d="M584,525L388,494L527,667L584,525Z" style="fill:rgb(94,16,134);fill-rule:nonzero;stroke:rgb(94,16,134);stroke-width:1.51px;"/>
        <path d="M749,127L664,309L868,321L749,127Z" style="fill:rgb(95,17,135);fill-rule:nonzero;stroke:rgb(95,17,135);stroke-width:1.51px;"/>
        <path d="M2118,919L2049,755L1840,866L2118,919Z" style="fill:rgb(137,60,113);fill-rule:nonzero;stroke:rgb(137,60,113);stroke-width:1.51px;"/>
        <path d="M2062,1045L1840,866L1874,1085L2062,1045Z" style="fill:rgb(138,62,112);fill-rule:nonzero;stroke:rgb(138,62,112);stroke-width:1.51px;"/>
        <path d="M1081,138L896,75L1060,270L1081,138Z" style="fill:rgb(94,16,134);fill-rule:nonzero;stroke:rgb(94,16,134);stroke-width:1.51px;"/>
        <path d="M920,-62L896,75L1081,138L920,-62Z" style="fill:rgb(96,18,135);fill-rule:nonzero;stroke:rgb(96,18,135);stroke-width:1.51px;"/>
        <path d="M1452,1519L1697,1490L1523,1266L1452,1519Z" style="fill:rgb(146,71,109);fill-rule:nonzero;stroke:rgb(146,71,109);stroke-width:1.51px;"/>
        <path d="M1288,93L1260,-26L1081,138L1288,93Z" style="fill:rgb(94,15,133);fill-rule:nonzero;stroke:rgb(94,15,133);stroke-width:1.51px;"/>
        <path d="M1469,-19L1260,-26L1288,93L1469,-19Z" style="fill:rgb(104,26,131);fill-rule:nonzero;stroke:rgb(104,26,131);stroke-width:1.51px;"/>
        <path d="M896,75L749,127L868,321L896,75Z" style="fill:rgb(96,17,135);fill-rule:nonzero;stroke:rgb(96,17,135);stroke-width:1.51px;"/>
        <path d="M2117,1307L2062,1045L1860,1239L2117,1307Z" style="fill:rgb(156,82,105);fill-rule:nonzero;stroke:rgb(156,82,105);stroke-width:1.51px;"/>
        <path d="M1860,1239L2062,1045L1874,1085L1860,1239Z" style="fill:rgb(147,71,109);fill-rule:nonzero;stroke:rgb(147,71,109);stroke-width:1.51px;"/>
        <path d="M1525,122L1469,-19L1288,93L1525,122Z" style="fill:rgb(110,32,129);fill-rule:nonzero;stroke:rgb(110,32,129);stroke-width:1.51px;"/>
        <path d="M1700,-27L1469,-19L1525,122L1700,-27Z" style="fill:rgb(119,42,128);fill-rule:nonzero;stroke:rgb(119,42,128);stroke-width:1.51px;"/>
        <path d="M1115,1671L1273,1656L1149,1425L1115,1671Z" style="fill:rgb(138,62,112);fill-rule:nonzero;stroke:rgb(138,62,112);stroke-width:1.51px;"/>
        <path d="M543,1293L703,1455L763,1241L543,1293Z" style="fill:rgb(125,48,122);fill-rule:nonzero;stroke:rgb(125,48,122);stroke-width:1.51px;"/>
        <path d="M1115,1671L1149,1425L945,1466L1115,1671Z" style="fill:rgb(135,58,115);fill-rule:nonzero;stroke:rgb(135,58,115);stroke-width:1.51px;"/>
        <path d="M1452,1519L1480,1704L1697,1490L1452,1519Z" style="fill:rgb(155,81,105);fill-rule:nonzero;stroke:rgb(155,81,105);stroke-width:1.51px;"/>
        <path d="M1838,109L1704,78L1641,273L1838,109Z" style="fill:rgb(127,51,124);fill-rule:nonzero;stroke:rgb(127,51,124);stroke-width:1.51px;"/>
        <path d="M565,1066L543,1293L729,1112L565,1066Z" style="fill:rgb(112,34,126);fill-rule:nonzero;stroke:rgb(112,34,126);stroke-width:1.51px;"/>
        <path d="M374,1126L543,1293L565,1066L374,1126Z" style="fill:rgb(113,36,126);fill-rule:nonzero;stroke:rgb(113,36,126);stroke-width:1.51px;"/>
        <path d="M664,309L555,290L584,525L664,309Z" style="fill:rgb(96,18,135);fill-rule:nonzero;stroke:rgb(96,18,135);stroke-width:1.51px;"/>
        <path d="M507,185L555,290L664,309L507,185Z" style="fill:rgb(97,19,136);fill-rule:nonzero;stroke:rgb(97,19,136);stroke-width:1.51px;"/>
        <path d="M2062,1045L2118,919L1840,866L2062,1045Z" style="fill:rgb(139,63,112);fill-rule:nonzero;stroke:rgb(139,63,112);stroke-width:1.51px;"/>
        <path d="M915,1628L1115,1671L945,1466L915,1628Z" style="fill:rgb(140,64,114);fill-rule:nonzero;stroke:rgb(140,64,114);stroke-width:1.51px;"/>
        <path d="M1697,1490L1882,1423L1734,1247L1697,1490Z" style="fill:rgb(156,81,106);fill-rule:nonzero;stroke:rgb(156,81,106);stroke-width:1.51px;"/>
        <path d="M1815,1627L1882,1423L1697,1490L1815,1627Z" style="fill:rgb(165,92,102);fill-rule:nonzero;stroke:rgb(165,92,102);stroke-width:1.51px;"/>
        <path d="M763,1630L915,1628L945,1466L763,1630Z" style="fill:rgb(140,64,114);fill-rule:nonzero;stroke:rgb(140,64,114);stroke-width:1.51px;"/>
        <path d="M2119,474L1848,529L2049,755L2119,474Z" style="fill:rgb(139,63,115);fill-rule:nonzero;stroke:rgb(139,63,115);stroke-width:1.51px;"/>
        <path d="M2119,474L2016,339L1848,529L2119,474Z" style="fill:rgb(140,64,117);fill-rule:nonzero;stroke:rgb(140,64,117);stroke-width:1.51px;"/>
        <path d="M1843,343L1838,109L1641,273L1843,343Z" style="fill:rgb(129,53,123);fill-rule:nonzero;stroke:rgb(129,53,123);stroke-width:1.51px;"/>
        <path d="M1260,-26L1129,-84L1081,138L1260,-26Z" style="fill:rgb(95,16,134);fill-rule:nonzero;stroke:rgb(95,16,134);stroke-width:1.51px;"/>
        <path d="M896,75L732,-91L749,127L896,75Z" style="fill:rgb(97,20,136);fill-rule:nonzero;stroke:rgb(97,20,136);stroke-width:1.51px;"/>
        <path d="M2015,118L1838,109L1843,343L2015,118Z" style="fill:rgb(137,60,120);fill-rule:nonzero;stroke:rgb(137,60,120);stroke-width:1.51px;"/>
        <path d="M1704,78L1700,-27L1525,122L1704,78Z" style="fill:rgb(123,47,126);fill-rule:nonzero;stroke:rgb(123,47,126);stroke-width:1.51px;"/>
        <path d="M527,667L308,760L517,891L527,667Z" style="fill:rgb(93,13,133);fill-rule:nonzero;stroke:rgb(93,13,133);stroke-width:1.51px;"/>
        <path d="M517,891L374,1126L565,1066L517,891Z" style="fill:rgb(102,24,129);fill-rule:nonzero;stroke:rgb(102,24,129);stroke-width:1.51px;"/>
        <path d="M388,351L388,494L584,525L388,351Z" style="fill:rgb(96,18,135);fill-rule:nonzero;stroke:rgb(96,18,135);stroke-width:1.51px;"/>
        <path d="M749,127L507,185L664,309L749,127Z" style="fill:rgb(97,20,136);fill-rule:nonzero;stroke:rgb(97,20,136);stroke-width:1.51px;"/>
        <path d="M1129,-84L920,-62L1081,138L1129,-84Z" style="fill:rgb(96,18,135);fill-rule:nonzero;stroke:rgb(96,18,135);stroke-width:1.51px;"/>
        <path d="M2231,528L2119,474L2049,755L2231,528Z" style="fill:rgb(146,71,113);fill-rule:nonzero;stroke:rgb(146,71,113);stroke-width:1.51px;"/>
        <path d="M1273,1656L1480,1704L1452,1519L1273,1656Z" style="fill:rgb(151,77,107);fill-rule:nonzero;stroke:rgb(151,77,107);stroke-width:1.51px;"/>
        <path d="M1279,1873L1480,1704L1273,1656L1279,1873Z" style="fill:rgb(156,82,105);fill-rule:nonzero;stroke:rgb(156,82,105);stroke-width:1.51px;"/>
        <path d="M537,1503L763,1630L703,1455L537,1503Z" style="fill:rgb(139,62,117);fill-rule:nonzero;stroke:rgb(139,62,117);stroke-width:1.51px;"/>
        <path d="M306,955L374,1126L517,891L306,955Z" style="fill:rgb(100,21,130);fill-rule:nonzero;stroke:rgb(100,21,130);stroke-width:1.51px;"/>
        <path d="M1838,109L1700,-27L1704,78L1838,109Z" style="fill:rgb(129,53,124);fill-rule:nonzero;stroke:rgb(129,53,124);stroke-width:1.51px;"/>
        <path d="M388,494L308,760L527,667L388,494Z" style="fill:rgb(94,16,134);fill-rule:nonzero;stroke:rgb(94,16,134);stroke-width:1.51px;"/>
        <path d="M308,760L306,955L517,891L308,760Z" style="fill:rgb(92,12,132);fill-rule:nonzero;stroke:rgb(92,12,132);stroke-width:1.51px;"/>
        <path d="M703,1455L763,1630L945,1466L703,1455Z" style="fill:rgb(137,60,116);fill-rule:nonzero;stroke:rgb(137,60,116);stroke-width:1.51px;"/>
        <path d="M1083,1887L1279,1873L1115,1671L1083,1887Z" style="fill:rgb(153,79,107);fill-rule:nonzero;stroke:rgb(153,79,107);stroke-width:1.51px;"/>
        <path d="M537,1503L703,1455L543,1293L537,1503Z" style="fill:rgb(131,55,120);fill-rule:nonzero;stroke:rgb(131,55,120);stroke-width:1.51px;"/>
        <path d="M555,290L388,351L584,525L555,290Z" style="fill:rgb(96,18,135);fill-rule:nonzero;stroke:rgb(96,18,135);stroke-width:1.51px;"/>
        <path d="M491,-76L507,185L749,127L491,-76Z" style="fill:rgb(98,22,137);fill-rule:nonzero;stroke:rgb(98,22,137);stroke-width:1.51px;"/>
        <path d="M507,185L388,351L555,290L507,185Z" style="fill:rgb(98,20,136);fill-rule:nonzero;stroke:rgb(98,20,136);stroke-width:1.51px;"/>
        <path d="M388,494L187,540L308,760L388,494Z" style="fill:rgb(96,18,135);fill-rule:nonzero;stroke:rgb(96,18,135);stroke-width:1.51px;"/>
        <path d="M2118,919L2226,907L2049,755L2118,919Z" style="fill:rgb(144,68,111);fill-rule:nonzero;stroke:rgb(144,68,111);stroke-width:1.51px;"/>
        <path d="M2241,1072L2226,907L2118,919L2241,1072Z" style="fill:rgb(151,76,107);fill-rule:nonzero;stroke:rgb(151,76,107);stroke-width:1.51px;"/>
        <path d="M2241,1072L2118,919L2062,1045L2241,1072Z" style="fill:rgb(151,76,107);fill-rule:nonzero;stroke:rgb(151,76,107);stroke-width:1.51px;"/>
        <path d="M1882,1423L2117,1307L1860,1239L1882,1423Z" style="fill:rgb(161,88,103);fill-rule:nonzero;stroke:rgb(161,88,103);stroke-width:1.51px;"/>
        <path d="M1480,1704L1725,1674L1697,1490L1480,1704Z" style="fill:rgb(163,90,102);fill-rule:nonzero;stroke:rgb(163,90,102);stroke-width:1.51px;"/>
        <path d="M1725,1674L1815,1627L1697,1490L1725,1674Z" style="fill:rgb(167,95,100);fill-rule:nonzero;stroke:rgb(167,95,100);stroke-width:1.51px;"/>
        <path d="M362,1444L537,1503L543,1293L362,1444Z" style="fill:rgb(132,56,121);fill-rule:nonzero;stroke:rgb(132,56,121);stroke-width:1.51px;"/>
        <path d="M2103,1485L2117,1307L1882,1423L2103,1485Z" style="fill:rgb(170,97,99);fill-rule:nonzero;stroke:rgb(170,97,99);stroke-width:1.51px;"/>
        <path d="M2226,907L2255,695L2049,755L2226,907Z" style="fill:rgb(146,71,111);fill-rule:nonzero;stroke:rgb(146,71,111);stroke-width:1.51px;"/>
        <path d="M2241,132L2015,118L2016,339L2241,132Z" style="fill:rgb(147,72,117);fill-rule:nonzero;stroke:rgb(147,72,117);stroke-width:1.51px;"/>
        <path d="M2016,339L2015,118L1843,343L2016,339Z" style="fill:rgb(139,63,119);fill-rule:nonzero;stroke:rgb(139,63,119);stroke-width:1.51px;"/>
        <path d="M2255,695L2231,528L2049,755L2255,695Z" style="fill:rgb(148,72,112);fill-rule:nonzero;stroke:rgb(148,72,112);stroke-width:1.51px;"/>
        <path d="M2117,1307L2241,1072L2062,1045L2117,1307Z" style="fill:rgb(159,85,104);fill-rule:nonzero;stroke:rgb(159,85,104);stroke-width:1.51px;"/>
        <path d="M2226,907L2424,725L2255,695L2226,907Z" style="fill:rgb(153,79,108);fill-rule:nonzero;stroke:rgb(153,79,108);stroke-width:1.51px;"/>
        <path d="M1838,109L1869,-41L1700,-27L1838,109Z" style="fill:rgb(133,56,124);fill-rule:nonzero;stroke:rgb(133,56,124);stroke-width:1.51px;"/>
        <path d="M2234,376L2016,339L2119,474L2234,376Z" style="fill:rgb(147,72,115);fill-rule:nonzero;stroke:rgb(147,72,115);stroke-width:1.51px;"/>
        <path d="M920,-62L732,-91L896,75L920,-62Z" style="fill:rgb(98,20,137);fill-rule:nonzero;stroke:rgb(98,20,137);stroke-width:1.51px;"/>
        <path d="M2015,118L1869,-41L1838,109L2015,118Z" style="fill:rgb(138,62,121);fill-rule:nonzero;stroke:rgb(138,62,121);stroke-width:1.51px;"/>
        <path d="M1115,1671L1279,1873L1273,1656L1115,1671Z" style="fill:rgb(149,74,108);fill-rule:nonzero;stroke:rgb(149,74,108);stroke-width:1.51px;"/>
        <path d="M1480,1704L1652,1863L1725,1674L1480,1704Z" style="fill:rgb(170,98,99);fill-rule:nonzero;stroke:rgb(170,98,99);stroke-width:1.51px;"/>
        <path d="M936,1834L1115,1671L915,1628L936,1834Z" style="fill:rgb(148,73,110);fill-rule:nonzero;stroke:rgb(148,73,110);stroke-width:1.51px;"/>
        <path d="M374,1126L304,1303L543,1293L374,1126Z" style="fill:rgb(120,43,125);fill-rule:nonzero;stroke:rgb(120,43,125);stroke-width:1.51px;"/>
        <path d="M174,1132L304,1303L374,1126L174,1132Z" style="fill:rgb(117,40,127);fill-rule:nonzero;stroke:rgb(117,40,127);stroke-width:1.51px;"/>
        <path d="M2231,528L2234,376L2119,474L2231,528Z" style="fill:rgb(151,75,113);fill-rule:nonzero;stroke:rgb(151,75,113);stroke-width:1.51px;"/>
        <path d="M2417,521L2234,376L2231,528L2417,521Z" style="fill:rgb(156,81,111);fill-rule:nonzero;stroke:rgb(156,81,111);stroke-width:1.51px;"/>
        <path d="M763,1630L936,1834L915,1628L763,1630Z" style="fill:rgb(148,73,111);fill-rule:nonzero;stroke:rgb(148,73,111);stroke-width:1.51px;"/>
        <path d="M688,1847L936,1834L763,1630L688,1847Z" style="fill:rgb(154,79,110);fill-rule:nonzero;stroke:rgb(154,79,110);stroke-width:1.51px;"/>
        <path d="M1279,1873L1517,1857L1480,1704L1279,1873Z" style="fill:rgb(164,92,102);fill-rule:nonzero;stroke:rgb(164,92,102);stroke-width:1.51px;"/>
        <path d="M1725,1674L1859,1845L1815,1627L1725,1674Z" style="fill:rgb(176,106,95);fill-rule:nonzero;stroke:rgb(176,106,95);stroke-width:1.51px;"/>
        <path d="M2066,1642L2103,1485L1882,1423L2066,1642Z" style="fill:rgb(175,104,97);fill-rule:nonzero;stroke:rgb(175,104,97);stroke-width:1.51px;"/>
        <path d="M2117,1307L2283,1306L2241,1072L2117,1307Z" style="fill:rgb(167,96,100);fill-rule:nonzero;stroke:rgb(167,96,100);stroke-width:1.51px;"/>
        <path d="M2066,1642L1882,1423L1815,1627L2066,1642Z" style="fill:rgb(174,102,97);fill-rule:nonzero;stroke:rgb(174,102,97);stroke-width:1.51px;"/>
        <path d="M308,760L114,947L306,955L308,760Z" style="fill:rgb(93,14,133);fill-rule:nonzero;stroke:rgb(93,14,133);stroke-width:1.51px;"/>
        <path d="M306,955L174,1132L374,1126L306,955Z" style="fill:rgb(108,30,129);fill-rule:nonzero;stroke:rgb(108,30,129);stroke-width:1.51px;"/>
        <path d="M388,351L187,540L388,494L388,351Z" style="fill:rgb(97,19,136);fill-rule:nonzero;stroke:rgb(97,19,136);stroke-width:1.51px;"/>
        <path d="M152,314L187,540L388,351L152,314Z" style="fill:rgb(98,21,137);fill-rule:nonzero;stroke:rgb(98,21,137);stroke-width:1.51px;"/>
        <path d="M367,84L388,351L507,185L367,84Z" style="fill:rgb(99,22,137);fill-rule:nonzero;stroke:rgb(99,22,137);stroke-width:1.51px;"/>
        <path d="M537,1503L549,1716L763,1630L537,1503Z" style="fill:rgb(145,69,115);fill-rule:nonzero;stroke:rgb(145,69,115);stroke-width:1.51px;"/>
        <path d="M304,1303L362,1444L543,1293L304,1303Z" style="fill:rgb(128,51,122);fill-rule:nonzero;stroke:rgb(128,51,122);stroke-width:1.51px;"/>
        <path d="M936,1834L1083,1887L1115,1671L936,1834Z" style="fill:rgb(153,79,108);fill-rule:nonzero;stroke:rgb(153,79,108);stroke-width:1.51px;"/>
        <path d="M187,540L144,708L308,760L187,540Z" style="fill:rgb(96,17,135);fill-rule:nonzero;stroke:rgb(96,17,135);stroke-width:1.51px;"/>
        <path d="M114,947L174,1132L306,955L114,947Z" style="fill:rgb(103,26,131);fill-rule:nonzero;stroke:rgb(103,26,131);stroke-width:1.51px;"/>
        <path d="M144,1472L329,1629L362,1444L144,1472Z" style="fill:rgb(140,64,120);fill-rule:nonzero;stroke:rgb(140,64,120);stroke-width:1.51px;"/>
        <path d="M1517,1857L1652,1863L1480,1704L1517,1857Z" style="fill:rgb(170,99,99);fill-rule:nonzero;stroke:rgb(170,99,99);stroke-width:1.51px;"/>
        <path d="M491,-76L367,84L507,185L491,-76Z" style="fill:rgb(100,23,138);fill-rule:nonzero;stroke:rgb(100,23,138);stroke-width:1.51px;"/>
        <path d="M491,-76L749,127L732,-91L491,-76Z" style="fill:rgb(99,22,138);fill-rule:nonzero;stroke:rgb(99,22,138);stroke-width:1.51px;"/>
        <path d="M144,708L114,947L308,760L144,708Z" style="fill:rgb(94,16,134);fill-rule:nonzero;stroke:rgb(94,16,134);stroke-width:1.51px;"/>
        <path d="M2277,1497L2283,1306L2117,1307L2277,1497Z" style="fill:rgb(177,106,96);fill-rule:nonzero;stroke:rgb(177,106,96);stroke-width:1.51px;"/>
        <path d="M2492,935L2424,725L2226,907L2492,935Z" style="fill:rgb(156,82,106);fill-rule:nonzero;stroke:rgb(156,82,106);stroke-width:1.51px;"/>
        <path d="M329,1629L549,1716L537,1503L329,1629Z" style="fill:rgb(146,70,116);fill-rule:nonzero;stroke:rgb(146,70,116);stroke-width:1.51px;"/>
        <path d="M2103,1485L2277,1497L2117,1307L2103,1485Z" style="fill:rgb(177,107,95);fill-rule:nonzero;stroke:rgb(177,107,95);stroke-width:1.51px;"/>
        <path d="M1859,1845L2066,1642L1815,1627L1859,1845Z" style="fill:rgb(181,112,93);fill-rule:nonzero;stroke:rgb(181,112,93);stroke-width:1.51px;"/>
        <path d="M2255,695L2417,521L2231,528L2255,695Z" style="fill:rgb(155,80,109);fill-rule:nonzero;stroke:rgb(155,80,109);stroke-width:1.51px;"/>
        <path d="M2444,1086L2226,907L2241,1072L2444,1086Z" style="fill:rgb(159,86,104);fill-rule:nonzero;stroke:rgb(159,86,104);stroke-width:1.51px;"/>
        <path d="M549,1716L688,1847L763,1630L549,1716Z" style="fill:rgb(152,77,112);fill-rule:nonzero;stroke:rgb(152,77,112);stroke-width:1.51px;"/>
        <path d="M2015,118L2105,-44L1869,-41L2015,118Z" style="fill:rgb(144,68,120);fill-rule:nonzero;stroke:rgb(144,68,120);stroke-width:1.51px;"/>
        <path d="M2234,376L2241,132L2016,339L2234,376Z" style="fill:rgb(151,75,114);fill-rule:nonzero;stroke:rgb(151,75,114);stroke-width:1.51px;"/>
        <path d="M2435,283L2241,132L2234,376L2435,283Z" style="fill:rgb(158,84,112);fill-rule:nonzero;stroke:rgb(158,84,112);stroke-width:1.51px;"/>
        <path d="M2424,725L2417,521L2255,695L2424,725Z" style="fill:rgb(157,83,107);fill-rule:nonzero;stroke:rgb(157,83,107);stroke-width:1.51px;"/>
        <path d="M2241,132L2105,-44L2015,118L2241,132Z" style="fill:rgb(151,75,117);fill-rule:nonzero;stroke:rgb(151,75,117);stroke-width:1.51px;"/>
        <path d="M189,126L152,314L388,351L189,126Z" style="fill:rgb(100,23,138);fill-rule:nonzero;stroke:rgb(100,23,138);stroke-width:1.51px;"/>
        <path d="M-84,719L-58,865L144,708L-84,719Z" style="fill:rgb(97,19,136);fill-rule:nonzero;stroke:rgb(97,19,136);stroke-width:1.51px;"/>
        <path d="M144,708L-58,865L114,947L144,708Z" style="fill:rgb(95,17,135);fill-rule:nonzero;stroke:rgb(95,17,135);stroke-width:1.51px;"/>
        <path d="M189,126L388,351L367,84L189,126Z" style="fill:rgb(99,23,138);fill-rule:nonzero;stroke:rgb(99,23,138);stroke-width:1.51px;"/>
        <path d="M1652,1863L1859,1845L1725,1674L1652,1863Z" style="fill:rgb(178,109,94);fill-rule:nonzero;stroke:rgb(178,109,94);stroke-width:1.51px;"/>
        <path d="M549,1716L571,1815L688,1847L549,1716Z" style="fill:rgb(156,82,111);fill-rule:nonzero;stroke:rgb(156,82,111);stroke-width:1.51px;"/>
        <path d="M383,1874L571,1815L549,1716L383,1874Z" style="fill:rgb(158,83,111);fill-rule:nonzero;stroke:rgb(158,83,111);stroke-width:1.51px;"/>
        <path d="M329,1629L537,1503L362,1444L329,1629Z" style="fill:rgb(140,64,118);fill-rule:nonzero;stroke:rgb(140,64,118);stroke-width:1.51px;"/>
        <path d="M491,-76L386,-60L367,84L491,-76Z" style="fill:rgb(100,25,139);fill-rule:nonzero;stroke:rgb(100,25,139);stroke-width:1.51px;"/>
        <path d="M2283,1306L2444,1086L2241,1072L2283,1306Z" style="fill:rgb(168,97,100);fill-rule:nonzero;stroke:rgb(168,97,100);stroke-width:1.51px;"/>
        <path d="M2447,1286L2444,1086L2283,1306L2447,1286Z" style="fill:rgb(176,106,96);fill-rule:nonzero;stroke:rgb(176,106,96);stroke-width:1.51px;"/>
        <path d="M144,1472L362,1444L304,1303L144,1472Z" style="fill:rgb(133,57,122);fill-rule:nonzero;stroke:rgb(133,57,122);stroke-width:1.51px;"/>
        <path d="M117,1319L304,1303L174,1132L117,1319Z" style="fill:rgb(122,45,126);fill-rule:nonzero;stroke:rgb(122,45,126);stroke-width:1.51px;"/>
        <path d="M2244,1617L2277,1497L2103,1485L2244,1617Z" style="fill:rgb(185,117,91);fill-rule:nonzero;stroke:rgb(185,117,91);stroke-width:1.51px;"/>
        <path d="M2244,1617L2103,1485L2066,1642L2244,1617Z" style="fill:rgb(185,116,91);fill-rule:nonzero;stroke:rgb(185,116,91);stroke-width:1.51px;"/>
        <path d="M-82,1253L117,1319L174,1132L-82,1253Z" style="fill:rgb(122,45,128);fill-rule:nonzero;stroke:rgb(122,45,128);stroke-width:1.51px;"/>
        <path d="M2444,1086L2492,935L2226,907L2444,1086Z" style="fill:rgb(161,88,103);fill-rule:nonzero;stroke:rgb(161,88,103);stroke-width:1.51px;"/>
        <path d="M386,-60L189,126L367,84L386,-60Z" style="fill:rgb(100,25,139);fill-rule:nonzero;stroke:rgb(100,25,139);stroke-width:1.51px;"/>
        <path d="M2222,1837L2244,1617L2066,1642L2222,1837Z" style="fill:rgb(193,128,86);fill-rule:nonzero;stroke:rgb(193,128,86);stroke-width:1.51px;"/>
        <path d="M2446,1425L2447,1286L2283,1306L2446,1425Z" style="fill:rgb(183,114,92);fill-rule:nonzero;stroke:rgb(183,114,92);stroke-width:1.51px;"/>
        <path d="M2446,1425L2283,1306L2277,1497L2446,1425Z" style="fill:rgb(184,116,91);fill-rule:nonzero;stroke:rgb(184,116,91);stroke-width:1.51px;"/>
        <path d="M2417,521L2435,283L2234,376L2417,521Z" style="fill:rgb(160,86,110);fill-rule:nonzero;stroke:rgb(160,86,110);stroke-width:1.51px;"/>
        <path d="M117,1319L144,1472L304,1303L117,1319Z" style="fill:rgb(131,54,124);fill-rule:nonzero;stroke:rgb(131,54,124);stroke-width:1.51px;"/>
        <path d="M2281,-117L2105,-44L2241,132L2281,-117Z" style="fill:rgb(156,81,116);fill-rule:nonzero;stroke:rgb(156,81,116);stroke-width:1.51px;"/>
        <path d="M114,947L-59,1062L174,1132L114,947Z" style="fill:rgb(107,30,131);fill-rule:nonzero;stroke:rgb(107,30,131);stroke-width:1.51px;"/>
        <path d="M117,1319L-87,1474L144,1472L117,1319Z" style="fill:rgb(136,59,123);fill-rule:nonzero;stroke:rgb(136,59,123);stroke-width:1.51px;"/>
        <path d="M-84,719L144,708L-81,519L-84,719Z" style="fill:rgb(98,21,137);fill-rule:nonzero;stroke:rgb(98,21,137);stroke-width:1.51px;"/>
        <path d="M144,708L187,540L-81,519L144,708Z" style="fill:rgb(97,20,137);fill-rule:nonzero;stroke:rgb(97,20,137);stroke-width:1.51px;"/>
        <path d="M1859,1845L2065,1849L2066,1642L1859,1845Z" style="fill:rgb(189,122,88);fill-rule:nonzero;stroke:rgb(189,122,88);stroke-width:1.51px;"/>
        <path d="M-58,865L-59,1062L114,947L-58,865Z" style="fill:rgb(101,23,134);fill-rule:nonzero;stroke:rgb(101,23,134);stroke-width:1.51px;"/>
        <path d="M-81,519L187,540L152,314L-81,519Z" style="fill:rgb(99,22,137);fill-rule:nonzero;stroke:rgb(99,22,137);stroke-width:1.51px;"/>
        <path d="M2454,1626L2446,1425L2277,1497L2454,1626Z" style="fill:rgb(192,126,86);fill-rule:nonzero;stroke:rgb(192,126,86);stroke-width:1.51px;"/>
        <path d="M2454,1626L2277,1497L2244,1617L2454,1626Z" style="fill:rgb(193,127,86);fill-rule:nonzero;stroke:rgb(193,127,86);stroke-width:1.51px;"/>
        <path d="M383,1874L549,1716L329,1629L383,1874Z" style="fill:rgb(154,80,113);fill-rule:nonzero;stroke:rgb(154,80,113);stroke-width:1.51px;"/>
        <path d="M386,-60L96,-117L189,126L386,-60Z" style="fill:rgb(102,27,141);fill-rule:nonzero;stroke:rgb(102,27,141);stroke-width:1.51px;"/>
        <path d="M-61,288L152,314L-13,172L-61,288Z" style="fill:rgb(101,25,139);fill-rule:nonzero;stroke:rgb(101,25,139);stroke-width:1.51px;"/>
        <path d="M-61,288L-81,519L152,314L-61,288Z" style="fill:rgb(100,24,139);fill-rule:nonzero;stroke:rgb(100,24,139);stroke-width:1.51px;"/>
        <path d="M2430,-21L2281,-117L2241,132L2430,-21Z" style="fill:rgb(161,87,113);fill-rule:nonzero;stroke:rgb(161,87,113);stroke-width:1.51px;"/>
        <path d="M136,1839L383,1874L329,1629L136,1839Z" style="fill:rgb(158,84,113);fill-rule:nonzero;stroke:rgb(158,84,113);stroke-width:1.51px;"/>
        <path d="M2463,114L2241,132L2435,283L2463,114Z" style="fill:rgb(163,89,111);fill-rule:nonzero;stroke:rgb(163,89,111);stroke-width:1.51px;"/>
        <path d="M-59,1062L-82,1253L174,1132L-59,1062Z" style="fill:rgb(116,39,129);fill-rule:nonzero;stroke:rgb(116,39,129);stroke-width:1.51px;"/>
        <path d="M144,1472L128,1678L329,1629L144,1472Z" style="fill:rgb(146,71,118);fill-rule:nonzero;stroke:rgb(146,71,118);stroke-width:1.51px;"/>
        <path d="M-13,172L152,314L189,126L-13,172Z" style="fill:rgb(101,25,139);fill-rule:nonzero;stroke:rgb(101,25,139);stroke-width:1.51px;"/>
        <path d="M-15,-64L-13,172L189,126L-15,-64Z" style="fill:rgb(103,28,141);fill-rule:nonzero;stroke:rgb(103,28,141);stroke-width:1.51px;"/>
        <path d="M2065,1849L2222,1837L2066,1642L2065,1849Z" style="fill:rgb(195,129,84);fill-rule:nonzero;stroke:rgb(195,129,84);stroke-width:1.51px;"/>
        <path d="M-34,1666L128,1678L144,1472L-34,1666Z" style="fill:rgb(148,72,119);fill-rule:nonzero;stroke:rgb(148,72,119);stroke-width:1.51px;"/>
        <path d="M2463,114L2430,-21L2241,132L2463,114Z" style="fill:rgb(164,90,111);fill-rule:nonzero;stroke:rgb(164,90,111);stroke-width:1.51px;"/>
        <path d="M2437,1816L2454,1626L2244,1617L2437,1816Z" style="fill:rgb(202,138,79);fill-rule:nonzero;stroke:rgb(202,138,79);stroke-width:1.51px;"/>
        <path d="M-82,1253L-87,1474L117,1319L-82,1253Z" style="fill:rgb(131,54,125);fill-rule:nonzero;stroke:rgb(131,54,125);stroke-width:1.51px;"/>
        <path d="M2222,1837L2437,1816L2244,1617L2222,1837Z" style="fill:rgb(202,139,79);fill-rule:nonzero;stroke:rgb(202,139,79);stroke-width:1.51px;"/>
        <path d="M128,1678L136,1839L329,1629L128,1678Z" style="fill:rgb(154,80,115);fill-rule:nonzero;stroke:rgb(154,80,115);stroke-width:1.51px;"/>
        <path d="M-34,1666L136,1839L128,1678L-34,1666Z" style="fill:rgb(156,81,116);fill-rule:nonzero;stroke:rgb(156,81,116);stroke-width:1.51px;"/>
        <path d="M96,-117L-15,-64L189,126L96,-117Z" style="fill:rgb(103,28,141);fill-rule:nonzero;stroke:rgb(103,28,141);stroke-width:1.51px;"/>
        <path d="M-87,1474L-34,1666L144,1472L-87,1474Z" style="fill:rgb(144,68,120);fill-rule:nonzero;stroke:rgb(144,68,120);stroke-width:1.51px;"/>
        <path d="M-75,1839L136,1839L-34,1666L-75,1839Z" style="fill:rgb(160,86,114);fill-rule:nonzero;stroke:rgb(160,86,114);stroke-width:1.51px;"/>
    </g>
</svg>
