<svg height="900" width="1440" xmlns="http://www.w3.org/2000/svg"><g stroke-width="1.51"><path d="m693 464 58-39-59-2z" fill="#f1c01d" stroke="#f1c01d"/><path d="m693 464 74 28-16-67z" fill="#efbe1d" stroke="#efbe1d"/><path d="m692 423-61-2 62 43z" fill="#eebb25" stroke="#eebb25"/><path d="m751 425-57-96-2 94z" fill="#ecb92a" stroke="#ecb92a"/><path d="m692 423 2-94-63 92z" fill="#eab530" stroke="#eab530"/><path d="m767 492 54-88-70 21z" fill="#edba25" stroke="#edba25"/><path d="m631 421-15 62 77-19z" fill="#edba27" stroke="#edba27"/><path d="m693 464 9 102 65-74z" fill="#ecb827" stroke="#ecb827"/><path d="m739 319-45 10 57 96z" fill="#e9b431" stroke="#e9b431"/><path d="m767 492 57 15-3-103z" fill="#eab62a" stroke="#eab62a"/><path d="m826 535-2-28-57-15z" fill="#e5ae33" stroke="#e5ae33"/><path d="m616 483 86 83-9-102z" fill="#e9b42e" stroke="#e9b42e"/><path d="m821 404-82-85 12 106z" fill="#e8b331" stroke="#e8b331"/><path d="m735 582 91-47-59-43z" fill="#e4ae34" stroke="#e4ae34"/><path d="m878 422-31-61-26 43z" fill="#e3ac37" stroke="#e3ac37"/><path d="m702 566 33 16 32-90z" fill="#e6b131" stroke="#e6b131"/><path d="m821 404 26-43-108-42z" fill="#e4ac39" stroke="#e4ac39"/><path d="m878 422-57-18 3 103z" fill="#e9b42d" stroke="#e9b42d"/><path d="m905 504-27-82-54 85z" fill="#e4ad34" stroke="#e4ad34"/><path d="m694 329-105-6 42 98z" fill="#e5ad3a" stroke="#e5ad3a"/><path d="m739 319-67-31 22 41z" fill="#e4ad3b" stroke="#e4ad3b"/><path d="m638 265 34 23-8-109z" fill="#db9f49" stroke="#db9f49"/><path d="m616 483-20 79 106 4z" fill="#e3ac38" stroke="#e3ac38"/><path d="m702 566-39 51 72-35z" fill="#e1a938" stroke="#e1a938"/><path d="m518 478 78 84 20-79z" fill="#e3ab3a" stroke="#e3ab3a"/><path d="m672 288-83 35 105 6z" fill="#e2a840" stroke="#e2a840"/><path d="m631 421-101 12 86 50z" fill="#eab530" stroke="#eab530"/><path d="m596 562 67 55 39-51z" fill="#dfa73d" stroke="#dfa73d"/><path d="m735 582 89 67 2-114z" fill="#dda33e" stroke="#dda33e"/><path d="m663 617 82 11-10-46z" fill="#dfa83a" stroke="#dfa83a"/><path d="m589 323-59 110 101-12z" fill="#e4ad3b" stroke="#e4ad3b"/><path d="m826 535 79-31-81 3z" fill="#e1a939" stroke="#e1a939"/><path d="m906 546-1-42-79 31z" fill="#dda43d" stroke="#dda43d"/><path d="m672 288-34-23-49 58z" fill="#dea445" stroke="#dea445"/><path d="m773 243-101 45 67 31z" fill="#e2aa3e" stroke="#e2aa3e"/><path d="m847 361-14-85-94 43z" fill="#e0a640" stroke="#e0a640"/><path d="m873 287-40-11 14 85z" fill="#dba045" stroke="#dba045"/><path d="m903 343-56 18 31 61z" fill="#dfa63e" stroke="#dfa63e"/><path d="m530 433-12 45 98 5z" fill="#e7b036" stroke="#e7b036"/><path d="m833 276-60-33-34 76z" fill="#dea443" stroke="#dea443"/><path d="m948 354-45-11-25 79z" fill="#dda341" stroke="#dda341"/><path d="m905 504 53-10-80-72z" fill="#e1a938" stroke="#e1a938"/><path d="m824 649 82-103-80-11z" fill="#da9f41" stroke="#da9f41"/><path d="m596 562 14 84 53-29z" fill="#da9f43" stroke="#da9f43"/><path d="m518 478 36 100 42-16z" fill="#dea441" stroke="#dea441"/><path d="m823 222-66-2 16 23z" fill="#d89c4a" stroke="#d89c4a"/><path d="m903 343-30-56-26 74z" fill="#dba144" stroke="#dba144"/><path d="m773 243-16-23-85 68z" fill="#dea543" stroke="#dea543"/><path d="m823 222-50 21 60 33z" fill="#d89c4a" stroke="#d89c4a"/><path d="m589 323-77 32 18 78z" fill="#e0a642" stroke="#e0a642"/><path d="m530 433-52-8 40 53z" fill="#e5ae3a" stroke="#e5ae3a"/><path d="m492 317 20 38 77-32z" fill="#dca048" stroke="#dca048"/><path d="m745 628 79 21-89-67z" fill="#dba240" stroke="#dba240"/><path d="m765 694 59-45-79-21z" fill="#d69a45" stroke="#d69a45"/><path d="m689 722 76-28-20-66z" fill="#d79b44" stroke="#d79b44"/><path d="m554 578 56 68-14-84z" fill="#d99e45" stroke="#d99e45"/><path d="m638 265-72-8 23 66z" fill="#db9f49" stroke="#db9f49"/><path d="m613 195-47 62 72 8z" fill="#d79a4e" stroke="#d79a4e"/><path d="m968 539-10-45-53 10z" fill="#daa041" stroke="#daa041"/><path d="m968 539-63-35 1 42z" fill="#d99f42" stroke="#d99f42"/><path d="m874 221-51 1 10 54z" fill="#d5974d" stroke="#d5974d"/><path d="m512 355-34 70 52 8z" fill="#e1a840" stroke="#e1a840"/><path d="m518 478-72 73 108 27z" fill="#dba045" stroke="#dba045"/><path d="m903 343 84-46-114-10z" fill="#d5994a" stroke="#d5994a"/><path d="m873 287 1-66-41 55z" fill="#d6994c" stroke="#d6994c"/><path d="m999 387-51-33-70 68z" fill="#dca141" stroke="#dca141"/><path d="m478 425-7 62 47-9z" fill="#e2aa3d" stroke="#e2aa3d"/><path d="m554 578-27 49 83 19z" fill="#d59849" stroke="#d59849"/><path d="m689 722 56-94-82-11z" fill="#d99f42" stroke="#d99f42"/><path d="m512 355-20-38-14 108z" fill="#dca147" stroke="#dca147"/><path d="m495 287-3 30 97 6z" fill="#d99c4c" stroke="#d99c4c"/><path d="m950 605 18-66-62 7z" fill="#d49847" stroke="#d49847"/><path d="m958 494 41-107-121 35z" fill="#dfa83b" stroke="#dfa83b"/><path d="m446 551 81 76 27-49z" fill="#d5984a" stroke="#d5984a"/><path d="m610 646 79 76-26-105z" fill="#d59a47" stroke="#d59a47"/><path d="m987 297-113-76-1 66z" fill="#d3944e" stroke="#d3944e"/><path d="m631 142 33 37v-77z" fill="#d19155" stroke="#d19155"/><path d="m757 220-93-41 8 109z" fill="#dca147" stroke="#dca147"/><path d="m664 179 105-79-105 2z" fill="#d29454" stroke="#d29454"/><path d="m664 179-51 16 25 70z" fill="#d79a4e" stroke="#d79a4e"/><path d="m566 257-71 30 94 36z" fill="#d99b4c" stroke="#d99b4c"/><path d="m532 180-37 107 71-30z" fill="#d39353" stroke="#d39353"/><path d="m392 468 79 19 7-62z" fill="#e0a741" stroke="#e0a741"/><path d="m927 648 23-43-44-59z" fill="#d1934a" stroke="#d1934a"/><path d="m927 648-21-102-82 103z" fill="#d39548" stroke="#d39548"/><path d="m625 729 64-7-79-76z" fill="#d0934c" stroke="#d0934c"/><path d="m1023 399-24-12-41 107z" fill="#dba140" stroke="#dba140"/><path d="m948 354 39-57-84 46z" fill="#d59949" stroke="#d59949"/><path d="m765 694 70 16-11-61z" fill="#d0934a" stroke="#d0934a"/><path d="m825 756 10-46-70-16z" fill="#cc8d4e" stroke="#cc8d4e"/><path d="m894 710 33-62-103 1z" fill="#cc8d4d" stroke="#cc8d4d"/><path d="m471 487-25 64 72-73z" fill="#dda244" stroke="#dda244"/><path d="m392 468 54 83 25-64z" fill="#da9f47" stroke="#da9f47"/><path d="m392 468 86-43-109-35z" fill="#dda246" stroke="#dda246"/><path d="m527 627 23 62 60-43z" fill="#d1934d" stroke="#d1934d"/><path d="m457 629 93 60-23-62z" fill="#ce8e51" stroke="#ce8e51"/><path d="m550 689 75 40-15-83z" fill="#cf904e" stroke="#cf904e"/><path d="m689 722 66 45 10-73z" fill="#d1934a" stroke="#d1934a"/><path d="m1034 348-47-51-39 57z" fill="#d2944c" stroke="#d2944c"/><path d="m999 387 35-39-86 6z" fill="#d59849" stroke="#d59849"/><path d="m1064 468-41-69-65 95z" fill="#dba23f" stroke="#dba23f"/><path d="m1064 468-106 26 10 45z" fill="#d79c43" stroke="#d79c43"/><path d="m625 729 51 20 13-27z" fill="#ce8f4e" stroke="#ce8f4e"/><path d="m613 195-81-15 34 77z" fill="#d29354" stroke="#d29354"/><path d="m664 179-33-37-18 53z" fill="#d39453" stroke="#d39453"/><path d="m823 118-66 102 66 2z" fill="#d39550" stroke="#d39550"/><path d="m835 710h59l-70-61z" fill="#cc8e4d" stroke="#cc8e4d"/><path d="m1020 655 5-81-75 31z" fill="#ca8a4f" stroke="#ca8a4f"/><path d="m825 756 69-46h-59z" fill="#c88851" stroke="#c88851"/><path d="m446 551 11 78 70-2z" fill="#d2934f" stroke="#d2934f"/><path d="m631 142-99 38 81 15z" fill="#d09056" stroke="#d09056"/><path d="m676 749 79 18-66-45z" fill="#cf914b" stroke="#cf914b"/><path d="m1023 399 11-51-35 39z" fill="#d59849" stroke="#d59849"/><path d="m478 425 14-108-120 16z" fill="#d99c4c" stroke="#d99c4c"/><path d="m369 390 109 35-106-92z" fill="#d89b4d" stroke="#d89b4d"/><path d="m446 551-52 5 63 73z" fill="#d1934f" stroke="#d1934f"/><path d="m755 767 70-11-60-62z" fill="#cc8d4d" stroke="#cc8d4d"/><path d="m950 605 75-31-57-35z" fill="#d0924a" stroke="#d0924a"/><path d="m1023 399 88 30-77-81z" fill="#d2964a" stroke="#d2964a"/><path d="m1020 655-70-50-23 43z" fill="#ca8950" stroke="#ca8950"/><path d="m874 221-51-103v104z" fill="#d09153" stroke="#d09153"/><path d="m910 112-87 6 51 103z" fill="#ca8958" stroke="#ca8958"/><path d="m994 209-120 12 113 76z" fill="#cc8c54" stroke="#cc8c54"/><path d="m1025 574 39-106-96 71z" fill="#d29548" stroke="#d29548"/><path d="m769 100-105 79 93 41z" fill="#d79a4e" stroke="#d79a4e"/><path d="m631 142-101-17 2 55z" fill="#cc8a5a" stroke="#cc8a5a"/><path d="m392 468 2 88 52-5z" fill="#d6994c" stroke="#d6994c"/><path d="m823 118-54-18-12 120z" fill="#d09154" stroke="#d09154"/><path d="m372 333 120-16-108-63z" fill="#d19155" stroke="#d19155"/><path d="m392 468-42 98 44-10z" fill="#d3954f" stroke="#d3954f"/><path d="m894 710 64-1-31-61z" fill="#c68652" stroke="#c68652"/><path d="m910 758 48-49-64 1z" fill="#c28055" stroke="#c28055"/><path d="m1051 295-57-86-7 88z" fill="#ca8955" stroke="#ca8955"/><path d="m1034 348 17-53-64 2z" fill="#ce8e50" stroke="#ce8e50"/><path d="m1125 340-74-45-17 53z" fill="#cb8c52" stroke="#cb8c52"/><path d="m532 180-62 2 25 105z" fill="#ce8d59" stroke="#ce8d59"/><path d="m530 125-60 57 62-2z" fill="#c9875d" stroke="#c9875d"/><path d="m384 254 108 63 3-30z" fill="#d29354" stroke="#d29354"/><path d="m958 709 62-54-93-7z" fill="#c58453" stroke="#c58453"/><path d="m1025 574 80-91-41-15z" fill="#d1944a" stroke="#d1944a"/><path d="m825 756 85 2-16-48z" fill="#c48254" stroke="#c48254"/><path d="m958 709 85-33-23-21z" fill="#c17f56" stroke="#c17f56"/><path d="m836 823 74-65-85-2z" fill="#c17f55" stroke="#c17f55"/><path d="m625 729-38 57 89-37z" fill="#c98952" stroke="#c98952"/><path d="m676 749 4 99 75-81z" fill="#ca8a4f" stroke="#ca8a4f"/><path d="m755 767 81 56-11-67z" fill="#c58453" stroke="#c58453"/><path d="m547 776 40 10 38-57z" fill="#c58455" stroke="#c58455"/><path d="m547 776 78-47-75-40z" fill="#c88854" stroke="#c88854"/><path d="m547 776 3-87-91 37z" fill="#c48357" stroke="#c48357"/><path d="m545 65-15 60 101 17z" fill="#c8855e" stroke="#c8855e"/><path d="m459 726 91-37-93-60z" fill="#c98755" stroke="#c98755"/><path d="m823 118 22-49-76 31z" fill="#c9875b" stroke="#c9875b"/><path d="m961 144-51-32-36 109z" fill="#c7855a" stroke="#c7855a"/><path d="m994 209-33-65-87 77z" fill="#c88658" stroke="#c88658"/><path d="m1055 102-94 42 33 65z" fill="#bf7a60" stroke="#bf7a60"/><path d="m369 390-32 70 55 8z" fill="#dba049" stroke="#dba049"/><path d="m303 431 34 29 32-70z" fill="#d89c4d" stroke="#d89c4d"/><path d="m394 556-22 48 85 25z" fill="#cd8e53" stroke="#cd8e53"/><path d="m350 566 22 38 22-48z" fill="#cd8e53" stroke="#cd8e53"/><path d="m401 728 58-2-2-97z" fill="#c48159" stroke="#c48159"/><path d="m372 333-40-15 37 72z" fill="#d19254" stroke="#d19254"/><path d="m470 182-86 72 111 33z" fill="#cd8c59" stroke="#cd8c59"/><path d="m382 200 2 54 86-72z" fill="#c8845e" stroke="#c8845e"/><path d="m1064 468 47-39-88-30z" fill="#d69a45" stroke="#d69a45"/><path d="m1124 550-19-67-80 91z" fill="#cc8d4e" stroke="#cc8d4e"/><path d="m664 102-29-38-4 78z" fill="#cc8b5a" stroke="#cc8b5a"/><path d="m688 49-53 15 29 38z" fill="#ca885c" stroke="#ca885c"/><path d="m688 49-24 53 105-2z" fill="#ce8e58" stroke="#ce8e58"/><path d="m1105 483 6-54-47 39z" fill="#d49947" stroke="#d49947"/><path d="m337 460 13 106 42-98z" fill="#d6994d" stroke="#d6994d"/><path d="m910 112-65-43-22 49z" fill="#c6835d" stroke="#c6835d"/><path d="m922 44-77 25 65 43z" fill="#c07c61" stroke="#c07c61"/><path d="m769 44-81 5 81 51z" fill="#cc8a5a" stroke="#cc8a5a"/><path d="m780 853 56-30-81-56z" fill="#c28055" stroke="#c28055"/><path d="m1020 655 94-5-89-76z" fill="#c48254" stroke="#c48254"/><path d="m1022 779 21-103-85 33z" fill="#bc7859" stroke="#bc7859"/><path d="m964 769-6-60-48 49z" fill="#bd7b58" stroke="#bd7b58"/><path d="m845 69-76-25v56z" fill="#c8865c" stroke="#c8865c"/><path d="m1051 295 12-70-69-16z" fill="#c68458" stroke="#c68458"/><path d="m1100 269-37-44-12 70z" fill="#c58259" stroke="#c58259"/><path d="m889 834 75-65-54-11z" fill="#bb7759" stroke="#bb7759"/><path d="m609 838 71 10-4-99z" fill="#c48255" stroke="#c48255"/><path d="m609 838 67-89-89 37z" fill="#c48256" stroke="#c48256"/><path d="m384 254-52 64 40 15z" fill="#cd8c59" stroke="#cd8c59"/><path d="m512 845 97-7-22-52z" fill="#bc795b" stroke="#bc795b"/><path d="m512 845 75-59-40-10z" fill="#bd7a5b" stroke="#bd7a5b"/><path d="m680 848 100 5-25-86z" fill="#c58452" stroke="#c58452"/><path d="m836 823 53 11 21-76z" fill="#bc7959" stroke="#bc7959"/><path d="m530 125-72-9 12 66z" fill="#c58261" stroke="#c58261"/><path d="m635 64-90 1 86 77z" fill="#c9865e" stroke="#c9865e"/><path d="m555-37-10 102 90-1z" fill="#c07c65" stroke="#c07c65"/><path d="m389 141-7 59 88-18z" fill="#c48062" stroke="#c48062"/><path d="m384 254-58 2 6 62z" fill="#ca885c" stroke="#ca885c"/><path d="m1188 416-63-76-14 89z" fill="#cc8e4f" stroke="#cc8e4f"/><path d="m1111 429 14-89-91 8z" fill="#ce8f4e" stroke="#ce8f4e"/><path d="m1125 340-25-71-49 26z" fill="#c78656" stroke="#c78656"/><path d="m1114 650 10-100-99 24z" fill="#c58453" stroke="#c58453"/><path d="m1105 483 66-23-60-31z" fill="#d19549" stroke="#d19549"/><path d="m279 409 24 22 66-41z" fill="#d59750" stroke="#d59750"/><path d="m337 460-87 53 100 53z" fill="#d19252" stroke="#d19252"/><path d="m545 65-87 51 72 9z" fill="#c37f63" stroke="#c37f63"/><path d="m829 918 60-84-53-11z" fill="#b8735b" stroke="#b8735b"/><path d="m459 726-4 62 92-12z" fill="#be7b5b" stroke="#be7b5b"/><path d="m372 604 29 124 56-99z" fill="#c68558" stroke="#c68558"/><path d="m336 653 65 75-29-124z" fill="#c3805c" stroke="#c3805c"/><path d="m336 653 36-49-22-38z" fill="#c88758" stroke="#c88758"/><path d="m421 764 34 24 4-62z" fill="#bc775e" stroke="#bc775e"/><path d="m332 318-53 91 90-19z" fill="#d29354" stroke="#d29354"/><path d="m382 200-56 56 58-2z" fill="#c7845f" stroke="#c7845f"/><path d="m349 176-23 80 56-56z" fill="#c47f63" stroke="#c47f63"/><path d="m961 144 6-64-57 32z" fill="#c07c60" stroke="#c07c60"/><path d="m851 2-116-7 34 49z" fill="#c37f61" stroke="#c37f61"/><path d="m1055 102-88-22-6 64z" fill="#bb7663" stroke="#bb7663"/><path d="m1055 102-61 107 69 16z" fill="#bf7b5f" stroke="#bf7b5f"/><path d="m265 612 71 41 14-87z" fill="#c6835b" stroke="#c6835b"/><path d="m401 728 20 36 38-38z" fill="#bd795d" stroke="#bd795d"/><path d="m386 826 35-62-110 11z" fill="#b36c65" stroke="#b36c65"/><path d="m303 431-53 82 87-53z" fill="#d6984f" stroke="#d6984f"/><path d="m236 363 43 46 53-91z" fill="#ce8e58" stroke="#ce8e58"/><path d="m1022 779-64-70 6 60z" fill="#ba765a" stroke="#ba765a"/><path d="m1108 680 6-30-71 26z" fill="#bc7859" stroke="#bc7859"/><path d="m1043 676 71-26-94 5z" fill="#bf7c57" stroke="#bf7c57"/><path d="m967 80-45-36-12 68z" fill="#bd7862" stroke="#bd7862"/><path d="m769 44-34-49-47 54z" fill="#c9875d" stroke="#c9875d"/><path d="m688 49-56-91 3 106z" fill="#c58161" stroke="#c58161"/><path d="m851 2-82 42 76 25z" fill="#c37f61" stroke="#c37f61"/><path d="m458 116-69 25 81 41z" fill="#c37e63" stroke="#c37e63"/><path d="m351 134 38 7 6-60z" fill="#bb7568" stroke="#bb7568"/><path d="m1163 535-58-52 19 67z" fill="#ca8a4f" stroke="#ca8a4f"/><path d="m1163 535 8-75-66 23z" fill="#cc8e4e" stroke="#cc8e4e"/><path d="m1190 258-53-63-37 74z" fill="#bd785e" stroke="#bd785e"/><path d="m1023 831-1-52-58-10z" fill="#b36d5e" stroke="#b36d5e"/><path d="m1213 639-50-104-39 15z" fill="#c07e56" stroke="#c07e56"/><path d="m609 838 17 65 54-55z" fill="#bc795a" stroke="#bc795a"/><path d="m680 848 80 68 20-63z" fill="#bf7d57" stroke="#bf7d57"/><path d="m455 788 57 57 35-69z" fill="#ba765e" stroke="#ba765e"/><path d="m486 850 26-5-57-57z" fill="#b67061" stroke="#b67061"/><path d="m1114 650 99-11-89-89z" fill="#bd7a58" stroke="#bd7a58"/><path d="m1092 767 16-87-65-4z" fill="#b7725c" stroke="#b7725c"/><path d="m389 141-40 35 33 24z" fill="#c17c64" stroke="#c17c64"/><path d="m248 272-12 91 96-45z" fill="#c9865d" stroke="#c9865d"/><path d="m922 44-71-42-6 67z" fill="#be7963" stroke="#be7963"/><path d="m336 653-12 36 77 39z" fill="#be7a5e" stroke="#be7a5e"/><path d="m386 826 100 24-31-62z" fill="#b46e63" stroke="#b46e63"/><path d="m265 612 59 77 12-36z" fill="#c07c5e" stroke="#c07c5e"/><path d="m1269 459-81-43-17 44z" fill="#cb8d4e" stroke="#cb8d4e"/><path d="m1171 460 17-44-77 13z" fill="#cf914c" stroke="#cf914c"/><path d="m544 915 82-12-17-65z" fill="#b6715f" stroke="#b6715f"/><path d="m780 853 49 65 7-95z" fill="#ba755a" stroke="#ba755a"/><path d="m512 845 32 70 65-77z" fill="#b6715f" stroke="#b6715f"/><path d="m386 826 69-38-34-24z" fill="#b67062" stroke="#b67062"/><path d="m735-5-41-24-6 78z" fill="#c6835f" stroke="#c6835f"/><path d="m395 81-6 60 69-25z" fill="#bd7867" stroke="#bd7867"/><path d="m703-66-9 37 41 24z" fill="#c37e63" stroke="#c37e63"/><path d="m708 934 52-18-80-68z" fill="#bd7a58" stroke="#bd7a58"/><path d="m988 863 35-32-59-62z" fill="#b06a60" stroke="#b06a60"/><path d="m279 409-29 104 53-82z" fill="#d6994f" stroke="#d6994f"/><path d="m967 80-18-79-27 43z" fill="#b87267" stroke="#b87267"/><path d="m922 44 27-43-98 1z" fill="#b87367" stroke="#b87367"/><path d="m1117 119-62-17 8 123z" fill="#b97363" stroke="#b97363"/><path d="m1137 195-74 30 37 44z" fill="#bf7b5d" stroke="#bf7b5d"/><path d="m389 141-38-7-2 42z" fill="#be7867" stroke="#be7867"/><path d="m248 272 84 46-6-62z" fill="#c7845f" stroke="#c7845f"/><path d="m152 416 10 85 88 12z" fill="#cd8d58" stroke="#cd8d58"/><path d="m395 81 63 35-14-78z" fill="#bb7469" stroke="#bb7469"/><path d="m1190 258-90 11 25 71z" fill="#c27f5a" stroke="#c27f5a"/><path d="m246 555 19 57 85-46z" fill="#c8865a" stroke="#c8865a"/><path d="m444 38 14 78 87-51z" fill="#be7867" stroke="#be7867"/><path d="m760 916 69 2-49-65z" fill="#b8745b" stroke="#b8745b"/><path d="m250 513-4 42 104 11z" fill="#cb8a57" stroke="#cb8a57"/><path d="m555-37-111 75 101 27z" fill="#bb7469" stroke="#bb7469"/><path d="m626 903 82 31-28-86z" fill="#ba765b" stroke="#ba765b"/><path d="m760 916 13 60 56-58z" fill="#b36d5e" stroke="#b36d5e"/><path d="m248 272 78-16-84-77z" fill="#c07b65" stroke="#c07b65"/><path d="m152 547 47 65 47-57z" fill="#c27f5f" stroke="#c27f5f"/><path d="m1022 779 70-12-49-91z" fill="#b6705d" stroke="#b6705d"/><path d="m988 863-24-94-75 65z" fill="#b46e5d" stroke="#b46e5d"/><path d="m1023 831 69-64-70 12z" fill="#af6960" stroke="#af6960"/><path d="m1210 700 3-61-99 11z" fill="#b56f5d" stroke="#b56f5d"/><path d="m694-29-62-13 56 91z" fill="#c27e62" stroke="#c27e62"/><path d="m703-66-71 24 62 13z" fill="#bf7a66" stroke="#bf7a66"/><path d="m1188 416 14-91-77 15z" fill="#c68555" stroke="#c68555"/><path d="m782-118-79 52 32 61z" fill="#bf7966" stroke="#bf7966"/><path d="m1051 45-102-44 18 79z" fill="#b46d68" stroke="#b46d68"/><path d="m912 904 76-41-99-29z" fill="#b06960" stroke="#b06960"/><path d="m829 918 83-14-23-70z" fill="#b26c5f" stroke="#b26c5f"/><path d="m242 179 84 77 23-80z" fill="#bf7a66" stroke="#bf7a66"/><path d="m1202 325-12-67-65 82z" fill="#c17e5a" stroke="#c17e5a"/><path d="m486 850 58 65-32-70z" fill="#b36c62" stroke="#b36c62"/><path d="m626 903-3 64 85-33z" fill="#b46e5f" stroke="#b46e5f"/><path d="m456 911 88 4-58-65z" fill="#af6765" stroke="#af6765"/><path d="m632-42-77 5 80 101z" fill="#be7966" stroke="#be7966"/><path d="m311 775 110-11-20-36z" fill="#b87262" stroke="#b87262"/><path d="m311 775 90-47-77-39z" fill="#b87362" stroke="#b87362"/><path d="m632-42-16-42-61 47z" fill="#b8726b" stroke="#b8726b"/><path d="m806-108-71 103 116 7z" fill="#bc7766" stroke="#bc7766"/><path d="m949 1-75-46-23 47z" fill="#b77068" stroke="#b77068"/><path d="m1055 102-4-57-84 35z" fill="#b56e67" stroke="#b56e67"/><path d="m1137 195-20-76-54 106z" fill="#b97462" stroke="#b97462"/><path d="m1190 149-73-30 20 76z" fill="#b36c66" stroke="#b36c66"/><path d="m1190 258-16-58-37-5z" fill="#b87261" stroke="#b87261"/><path d="m1108 62-57-17 4 57z" fill="#b1686a" stroke="#b1686a"/><path d="m879-102-73-6 68 63z" fill="#b36a6d" stroke="#b36a6d"/><path d="m239 719 85-30-59-77z" fill="#bb7662" stroke="#bb7662"/><path d="m239 719 72 56 13-86z" fill="#b56f65" stroke="#b56f65"/><path d="m1210 700-96-50-6 30z" fill="#b6715c" stroke="#b6715c"/><path d="m1163 535 106-76-98 1z" fill="#c98950" stroke="#c98950"/><path d="m1282 389-17-61-63-3z" fill="#bf7b5a" stroke="#bf7b5a"/><path d="m544 915 79 52 3-64z" fill="#b16a61" stroke="#b16a61"/><path d="m708 934 65 42-13-60z" fill="#b6715d" stroke="#b6715d"/><path d="m829 918 18 88 65-102z" fill="#ac6462" stroke="#ac6462"/><path d="m563 1006 60-39-79-52z" fill="#ab6364" stroke="#ab6364"/><path d="m676 997 97-21-65-42z" fill="#b46f5d" stroke="#b46f5d"/><path d="m152 416 98 97 29-104z" fill="#d39453" stroke="#d39453"/><path d="m248 272-56 82 44 9z" fill="#c7845f" stroke="#c7845f"/><path d="m703-66-87-18 16 42z" fill="#bc7569" stroke="#bc7569"/><path d="m555-37-109 10-2 65z" fill="#b56d6e" stroke="#b56d6e"/><path d="m782-118-166 34 87 18z" fill="#bc7668" stroke="#bc7668"/><path d="m386 826 70 85 30-61z" fill="#af6766" stroke="#af6766"/><path d="m377 904 79 7-70-85z" fill="#a96169" stroke="#a96169"/><path d="m912 904 79 4-3-45z" fill="#aa6263" stroke="#aa6263"/><path d="m988 863 70 61-35-93z" fill="#a75f64" stroke="#a75f64"/><path d="m1023 831 84 26-15-90z" fill="#a96263" stroke="#a96263"/><path d="m1092 767 118-67-102-20z" fill="#b26b5f" stroke="#b26b5f"/><path d="m993 994-2-86-79-4z" fill="#a45b66" stroke="#a45b66"/><path d="m1117 119-9-57-53 40z" fill="#b16a69" stroke="#b16a69"/><path d="m879-102-5 57 75 46z" fill="#b26a6c" stroke="#b26a6c"/><path d="m1195 37-87 25 9 57z" fill="#aa626c" stroke="#aa626c"/><path d="m516-74-70 47 109-10z" fill="#b36a70" stroke="#b36a70"/><path d="m444 38-69-41 20 84z" fill="#b56d6e" stroke="#b56d6e"/><path d="m260 98-18 81 109-45z" fill="#b76f6d" stroke="#b76f6d"/><path d="m351 134-109 45 107-3z" fill="#bc7669" stroke="#bc7669"/><path d="m248 272-91 11 35 71z" fill="#c27e63" stroke="#c27e63"/><path d="m309 66 42 68 44-53z" fill="#b76f6c" stroke="#b76f6c"/><path d="m1277 579-8-120-106 76z" fill="#c17f55" stroke="#c17f55"/><path d="m1202 325 58-32-70-35z" fill="#bc775e" stroke="#bc775e"/><path d="m1242 193-52-44-16 51z" fill="#b26a66" stroke="#b26a66"/><path d="m246 555-47 57h66z" fill="#c27f5e" stroke="#c27f5e"/><path d="m162 501 84 54 4-42z" fill="#c9885a" stroke="#c9885a"/><path d="m1213 639 64-60-114-44z" fill="#bb7859" stroke="#bb7859"/><path d="m1206 789 4-89-118 67z" fill="#aa6363" stroke="#aa6363"/><path d="m1174 200 16-51-53 46z" fill="#b46d65" stroke="#b46d65"/><path d="m1242 193-68 7 16 58z" fill="#b56f63" stroke="#b56f63"/><path d="m197 680 42 39 26-107z" fill="#b87364" stroke="#b87364"/><path d="m303 846 74 58 9-78z" fill="#a96069" stroke="#a96069"/><path d="m616-84-100 10 39 37z" fill="#b56d6e" stroke="#b56d6e"/><path d="m623 967 53 30 32-63z" fill="#b16b60" stroke="#b16b60"/><path d="m563 1006 113-9-53-30z" fill="#ab6364" stroke="#ab6364"/><path d="m1282 389-80-64-14 91z" fill="#c48356" stroke="#c48356"/><path d="m874-45-68-63 45 110z" fill="#b77069" stroke="#b77069"/><path d="m616-84-151-14 51 24z" fill="#b06771" stroke="#b06771"/><path d="m1018-29-69 30 102 44z" fill="#af676c" stroke="#af676c"/><path d="m1096 3-78-32 33 74z" fill="#ab626e" stroke="#ab626e"/><path d="m375-3-66 69 86 15z" fill="#b26a70" stroke="#b26a70"/><path d="m1265 328-5-35-58 32z" fill="#bc785d" stroke="#bc785d"/><path d="m152 416 127-7-43-46z" fill="#cd8d58" stroke="#cd8d58"/><path d="m1265 328 45-33-50-2z" fill="#b8735f" stroke="#b8735f"/><path d="m1269 459 13-70-94 27z" fill="#c78653" stroke="#c78653"/><path d="m806-108-24-10-47 113z" fill="#ba7469" stroke="#ba7469"/><path d="m879-102-97-16 24 10z" fill="#b26b6d" stroke="#b26b6d"/><path d="m394-112-19 109 71-24z" fill="#ab6175" stroke="#ab6175"/><path d="m446-27-71 24 69 41z" fill="#b26970" stroke="#b26970"/><path d="m1058 924 49-67-84-26z" fill="#a45b66" stroke="#a45b66"/><path d="m242 179-36 28 42 65z" fill="#bc7568" stroke="#bc7568"/><path d="m192 354-40 62 84-53z" fill="#ca885c" stroke="#ca885c"/><path d="m175 143 31 64 36-28z" fill="#b66e6e" stroke="#b66e6e"/><path d="m994-113-115 11 70 103z" fill="#ac646f" stroke="#ac646f"/><path d="m1210 700 45-61h-42z" fill="#b16b5f" stroke="#b16b5f"/><path d="m1269 459 84-50-71-20z" fill="#c28056" stroke="#c28056"/><path d="m1275 682-20-43-45 61z" fill="#ad6761" stroke="#ad6761"/><path d="m89 400 63 16-59-95z" fill="#c48061" stroke="#c48061"/><path d="m1255 639 22-60-64 60z" fill="#b46f5d" stroke="#b46f5d"/><path d="m199 612-2 68 68-68z" fill="#bc7762" stroke="#bc7762"/><path d="m119 687 78-7 2-68z" fill="#b56e67" stroke="#b56e67"/><path d="m303 846 8-71-87 19z" fill="#aa616a" stroke="#aa616a"/><path d="m303 846 83-20-75-51z" fill="#ad6468" stroke="#ad6468"/><path d="m458 977 105 29-19-91z" fill="#a65e68" stroke="#a65e68"/><path d="m309 66-49 32 91 36z" fill="#b46c6e" stroke="#b46c6e"/><path d="m263 72-3 26 49-32z" fill="#b06771" stroke="#b06771"/><path d="m773 976 74 30-18-88z" fill="#ac6662" stroke="#ac6662"/><path d="m991 908 67 16-70-61z" fill="#a55c65" stroke="#a55c65"/><path d="m676 997 171 9-74-30z" fill="#ae6761" stroke="#ae6761"/><path d="m1260 293-18-100-52 65z" fill="#b67062" stroke="#b67062"/><path d="m1188-2-92 5 12 59z" fill="#a65c70" stroke="#a65c70"/><path d="m1108 62-12-59-45 42z" fill="#ac636d" stroke="#ac636d"/><path d="m1310 295-68-102 18 100z" fill="#b46e63" stroke="#b46e63"/><path d="m1195 37-78 82 73 30z" fill="#ac636c" stroke="#ac636c"/><path d="m1018-29-24-84-45 114z" fill="#ab626f" stroke="#ab626f"/><path d="m162 501-10 46 94 8z" fill="#c6845d" stroke="#c6845d"/><path d="m127 471 25 76 10-46z" fill="#c7855d" stroke="#c7855d"/><path d="m224 794 87-19-72-56z" fill="#ae6668" stroke="#ae6668"/><path d="m458 977 86-62-88-4z" fill="#a86068" stroke="#a86068"/><path d="m676 997 227 20-56-11z" fill="#a86064" stroke="#a86064"/><path d="m206 207-49 76 91-11z" fill="#bd7867" stroke="#bd7867"/><path d="m84 271 73 12-42-103z" fill="#b76f6d" stroke="#b76f6d"/><path d="m1033 987 25-63-67-16z" fill="#9e5468" stroke="#9e5468"/><path d="m260 98-85 45 67 36z" fill="#b36a70" stroke="#b36a70"/><path d="m300-15-37 87 46-6z" fill="#ac6274" stroke="#ac6274"/><path d="m89 400 38 71 25-55z" fill="#ca885c" stroke="#ca885c"/><path d="m152 416-25 55 35 30z" fill="#cc8b59" stroke="#cc8b59"/><path d="m402 978 54-67-79-7z" fill="#a3596c" stroke="#a3596c"/><path d="m402 978 56-1-2-66z" fill="#a2586c" stroke="#a2586c"/><path d="m1173 856-81-89 15 90z" fill="#a45c66" stroke="#a45c66"/><path d="m1173 856 33-67-114-22z" fill="#a45c66" stroke="#a45c66"/><path d="m1331 637 16-72-70 14z" fill="#b26c5f" stroke="#b26c5f"/><path d="m516-74-51-24-19 71z" fill="#ae6572" stroke="#ae6572"/><path d="m375-3-75-12 9 81z" fill="#ac6374" stroke="#ac6374"/><path d="m782-118-317 20 151 14z" fill="#b56e6e" stroke="#b56e6e"/><path d="m847 1006 56 11 9-113z" fill="#a55d65" stroke="#a55d65"/><path d="m563 1006 340 11-227-20z" fill="#af6960" stroke="#af6960"/><path d="m1246 748 29-66-65 18z" fill="#a96163" stroke="#a96163"/><path d="m1337 339-72-11 17 61z" fill="#bb785c" stroke="#bb785c"/><path d="m127 471v90l25-14z" fill="#c4805f" stroke="#c4805f"/><path d="m152 547-25 14 72 51z" fill="#bf7b62" stroke="#bf7b62"/><path d="m1206 789 40-41-36-48z" fill="#a65e65" stroke="#a65e65"/><path d="m1327 496-58-37 8 120z" fill="#be7b57" stroke="#be7b57"/><path d="m1337 339-27-44-45 33z" fill="#b7725f" stroke="#b7725f"/><path d="m349 1001 53-23-25-74z" fill="#9c526f" stroke="#9c526f"/><path d="m159 772 65 22 15-75z" fill="#ab626b" stroke="#ab626b"/><path d="m159 772 80-53-42-39z" fill="#af676a" stroke="#af676a"/><path d="m1347 565-20-69-50 83z" fill="#b8735b" stroke="#b8735b"/><path d="m1206 789 27 39 13-80z" fill="#a05768" stroke="#a05768"/><path d="m1128 935 45-79-66 1z" fill="#9c526a" stroke="#9c526a"/><path d="m1128 935-21-78-49 67z" fill="#9c5269" stroke="#9c5269"/><path d="m903 1017 90-23-81-90z" fill="#a25967" stroke="#a25967"/><path d="m1055-106-61-7 24 84z" fill="#a45973" stroke="#a45973"/><path d="m879-102 115-11-212-5z" fill="#ad6370" stroke="#ad6370"/><path d="m1310 117-58 6-10 70z" fill="#a85e6c" stroke="#a85e6c"/><path d="m1242 193 10-70-62 26z" fill="#ac646a" stroke="#ac646a"/><path d="m1104-92-49-14-37 77z" fill="#a15774" stroke="#a15774"/><path d="m323-99-23 84 75 12z" fill="#a65c78" stroke="#a65c78"/><path d="m161 53 14 90 85-45z" fill="#ac6274" stroke="#ac6274"/><path d="m93 321 59 95 40-62z" fill="#c58161" stroke="#c58161"/><path d="m161 53 99 45 3-26z" fill="#ac6275" stroke="#ac6275"/><path d="m308 929 69-25-74-58z" fill="#a2586d" stroke="#a2586d"/><path d="m458 977-109 24 214 5z" fill="#9e546d" stroke="#9e546d"/><path d="m1252 123-57-86-5 112z" fill="#a85e6d" stroke="#a85e6d"/><path d="m1353 409-16-70-55 50z" fill="#bc785b" stroke="#bc785b"/><path d="m1310 117-61-67 3 73z" fill="#a15770" stroke="#a15770"/><path d="m1092 1016-59-29-40 7z" fill="#954a6c" stroke="#954a6c"/><path d="m993 994 40-7-42-79z" fill="#9d5369" stroke="#9d5369"/><path d="m224 794 23 60 56-8z" fill="#a55c6d" stroke="#a55c6d"/><path d="m199 841 48 13-23-60z" fill="#a3586f" stroke="#a3586f"/><path d="m1400 438-47-29-26 87z" fill="#c07d56" stroke="#c07d56"/><path d="m1327 496 26-87-84 50z" fill="#c38154" stroke="#c38154"/><path d="m93 321 99 33-35-71z" fill="#c07c65" stroke="#c07c65"/><path d="m32 583 49 45 46-67z" fill="#b87167" stroke="#b87167"/><path d="m247 854 61 75-5-83z" fill="#a1576e" stroke="#a1576e"/><path d="m1331 637-54-58-22 60z" fill="#b16b5f" stroke="#b16b5f"/><path d="m1331 637-76 2 20 43z" fill="#ad6661" stroke="#ad6661"/><path d="m1173 856 60-28-27-39z" fill="#9d5469" stroke="#9d5469"/><path d="m1092 1016 36-81-70-11z" fill="#954b6c" stroke="#954b6c"/><path d="m84 271 9 50 64-38z" fill="#bb7469" stroke="#bb7469"/><path d="m1355 692-24-55-56 45z" fill="#a76064" stroke="#a76064"/><path d="m1314 747-39-65-29 66z" fill="#a45b66" stroke="#a45b66"/><path d="m1209 942 24-114-60 28z" fill="#964c6c" stroke="#964c6c"/><path d="m1104-92-86 63 78 32z" fill="#a45a72" stroke="#a45a72"/><path d="m465-98-71-14 52 85z" fill="#aa6075" stroke="#aa6075"/><path d="m782-118-388 6 71 14z" fill="#af6672" stroke="#af6672"/><path d="m1195 37-7-39-80 64z" fill="#a45a70" stroke="#a45a70"/><path d="m1249 50-61-52 7 39z" fill="#9f5573" stroke="#9f5573"/><path d="m81 628 38 59 80-75z" fill="#b56d68" stroke="#b56d68"/><path d="m81 628 118-16-72-51z" fill="#ba7565" stroke="#ba7565"/><path d="m119 687 40 85 38-92z" fill="#ad656b" stroke="#ad656b"/><path d="m247 854-11 55 72 20z" fill="#9c5271" stroke="#9c5271"/><path d="m159 772 40 69 25-47z" fill="#a45a6e" stroke="#a45a6e"/><path d="m1188-2-84-90-8 95z" fill="#a05574" stroke="#a05574"/><path d="m1188-2-7-113-77 23z" fill="#984d78" stroke="#984d78"/><path d="m1252 123-3-73-54-13z" fill="#a25870" stroke="#a25870"/><path d="m1310 117-68 76 117 13z" fill="#a75e6b" stroke="#a75e6b"/><path d="m300-15-62 9 25 78z" fill="#a85e76" stroke="#a85e76"/><path d="m115 180 42 103 49-76z" fill="#b7706c" stroke="#b7706c"/><path d="m277-86-39 80 62-9z" fill="#a2577a" stroke="#a2577a"/><path d="m115 180 91 27-31-64z" fill="#b26a70" stroke="#b26a70"/><path d="m93 321-35 45 31 34z" fill="#c07c65" stroke="#c07c65"/><path d="m116 134-1 46 60-37z" fill="#ad6473" stroke="#ad6473"/><path d="m54 477 73-6-38-71z" fill="#ca885c" stroke="#ca885c"/><path d="m54 477 73 84v-90z" fill="#c4815f" stroke="#c4815f"/><path d="m119 687-38 86 78-1z" fill="#a65d6f" stroke="#a65d6f"/><path d="m1407 468-80 28 20 69z" fill="#b9755b" stroke="#b9755b"/><path d="m1233 828 81-81-68 1z" fill="#9f5568" stroke="#9f5568"/><path d="m1329 859-15-112-81 81z" fill="#974d6b" stroke="#974d6b"/><path d="m37 290 21 76 35-45z" fill="#bb7569" stroke="#bb7569"/><path d="m27 403 27 74 35-77z" fill="#c58260" stroke="#c58260"/><path d="m402 978-53 23 109-24z" fill="#9b516f" stroke="#9b516f"/><path d="m563 1006-393 4 733 7z" fill="#a2596a" stroke="#a2596a"/><path d="m308 929 41 72 28-97z" fill="#9d5270" stroke="#9d5270"/><path d="m260 977 89 24-41-72z" fill="#954a73" stroke="#954a73"/><path d="m394-112-71 13 52 96z" fill="#a55b78" stroke="#a55b78"/><path d="m202 910 34-1 11-55z" fill="#9a5072" stroke="#9a5072"/><path d="m202 910 45-56-48-13z" fill="#9d5271" stroke="#9d5271"/><path d="m1359 206-117-13 68 102z" fill="#ae6667" stroke="#ae6667"/><path d="m1427 266-117 29 27 44z" fill="#b16a63" stroke="#b16a63"/><path d="m1353 409 38-55-54-15z" fill="#b8735e" stroke="#b8735e"/><path d="m1400 438-9-84-38 55z" fill="#b9755c" stroke="#b9755c"/><path d="m1400 438-73 58 80-28z" fill="#bc7958" stroke="#bc7958"/><path d="m-21 390 48 13 31-37z" fill="#be7966" stroke="#be7966"/><path d="m41 184-4 106 47-19z" fill="#b26970" stroke="#b26970"/><path d="m129 65-13 69 59 9z" fill="#a95f76" stroke="#a95f76"/><path d="m1406 649-59-84-16 72z" fill="#ab6362" stroke="#ab6362"/><path d="m1427 266-68-60-49 89z" fill="#ab6368" stroke="#ab6368"/><path d="m1314 747 41-55-80-10z" fill="#a35b66" stroke="#a35b66"/><path d="m238-6-77 59 102 19z" fill="#a75c77" stroke="#a75c77"/><path d="m199-39-38 92 77-59z" fill="#a0567b" stroke="#a0567b"/><path d="m1033 987 59 29-34-92z" fill="#964b6c" stroke="#964b6c"/><path d="m1128 935 81 7-36-86z" fill="#944a6d" stroke="#944a6d"/><path d="m903 1017 189-1-99-22z" fill="#974d6b" stroke="#974d6b"/><path d="m1429 581-22-113-60 97z" fill="#b26d5e" stroke="#b26d5e"/><path d="m1486 365-59-99-36 88z" fill="#ad6664" stroke="#ad6664"/><path d="m323-99-46 13 23 71z" fill="#a0557b" stroke="#a0557b"/><path d="m1092 1016 78-44-42-37z" fill="#90446e" stroke="#90446e"/><path d="m1400 676 6-27-51 43z" fill="#a15867" stroke="#a15867"/><path d="m58 366-31 37 62-3z" fill="#c27d63" stroke="#c27d63"/><path d="m54 477-22 106 95-22z" fill="#bd7864" stroke="#bd7864"/><path d="m37 290 56 31-9-50z" fill="#b8716b" stroke="#b8716b"/><path d="m1170 972 39-30-81-7z" fill="#8f446e" stroke="#8f446e"/><path d="m236 909 24 68 48-48z" fill="#974c72" stroke="#974c72"/><path d="m134 919 68-9-3-69z" fill="#974b75" stroke="#974b75"/><path d="m107 867 92-26-40-69z" fill="#9e5372" stroke="#9e5372"/><path d="m41 184 43 87 31-91z" fill="#b06771" stroke="#b06771"/><path d="m116 134-75 50 74-4z" fill="#ab6274" stroke="#ab6274"/><path d="m161 53-32 12 46 78z" fill="#a85d77" stroke="#a85d77"/><path d="m115 1 14 64 32-12z" fill="#a0557c" stroke="#a0557c"/><path d="m-39 491 71 92 22-106z" fill="#bc7766" stroke="#bc7766"/><path d="m40 695 41 78 38-86z" fill="#a65e6f" stroke="#a65e6f"/><path d="m202 910 58 67-24-68z" fill="#954a74" stroke="#954a74"/><path d="m277-86-78 47 39 33z" fill="#9e537d" stroke="#9e537d"/><path d="m1249 50 29-88-90 36z" fill="#994f75" stroke="#994f75"/><path d="m1310 117-2-81-59 14z" fill="#9c5272" stroke="#9c5272"/><path d="m1385 40-77-4 2 81z" fill="#984d74" stroke="#984d74"/><path d="m1355 692 51-43-75-12z" fill="#a55d65" stroke="#a55d65"/><path d="m1400 676-45 16 44 75z" fill="#9d5369" stroke="#9d5369"/><path d="m1399 767-44-75-41 55z" fill="#9c526a" stroke="#9c526a"/><path d="m40 695 79-8-38-59z" fill="#ad656c" stroke="#ad656c"/><path d="m202 910-32 100 90-33z" fill="#8e4277" stroke="#8e4277"/><path d="m1451 422-60-68 9 84z" fill="#b7725d" stroke="#b7725d"/><path d="m1406 649 23-68-82-16z" fill="#ab6362" stroke="#ab6362"/><path d="m1458 581h-29l29 31z" fill="#a75e64" stroke="#a75e64"/><path d="m1278-38-97-77 7 113z" fill="#954978" stroke="#954978"/><path d="m1104-92 77-23-126 9z" fill="#984d78" stroke="#984d78"/><path d="m1055-106 126-9-187 2z" fill="#9b5077" stroke="#9b5077"/><path d="m994-113 187-2-399-3z" fill="#a35975" stroke="#a35975"/><path d="m13 619 27 76 41-67z" fill="#ad656d" stroke="#ad656d"/><path d="m38 98 3 86 75-50z" fill="#a75c78" stroke="#a75c78"/><path d="m37 290-58 100 79-24z" fill="#bb7569" stroke="#bb7569"/><path d="m38 98 78 36 13-69z" fill="#a45979" stroke="#a45979"/><path d="m1359 206 68-105-117 16z" fill="#9e5470" stroke="#9e5470"/><path d="m1391 354 36-88-90 73z" fill="#b16a63" stroke="#b16a63"/><path d="m1451 422-51 16 7 30z" fill="#bb765a" stroke="#bb765a"/><path d="m32 583-19 36 68 9z" fill="#b26b6b" stroke="#b26b6b"/><path d="m-49 549 62 70 19-36z" fill="#b26b6b" stroke="#b26b6b"/><path d="m-39 491 93-14-27-74z" fill="#c48061" stroke="#c48061"/><path d="m1460 507-9-85-44 46z" fill="#b7735b" stroke="#b7735b"/><path d="m1308 36-30-74-29 88z" fill="#974c75" stroke="#974c75"/><path d="m1349-45-71 7 30 74z" fill="#904479" stroke="#904479"/><path d="m1285 929 44-70-96-31z" fill="#90456f" stroke="#90456f"/><path d="m1285 929-52-101-24 114z" fill="#90446e" stroke="#90446e"/><path d="m1427 266-9-66-59 6z" fill="#a45b6b" stroke="#a45b6b"/><path d="m1473 271-55-71 9 66z" fill="#a35a6b" stroke="#a35a6b"/><path d="m40 695 15 72 26 6z" fill="#a25772" stroke="#a25772"/><path d="m81 773 26 94 52-95z" fill="#9e5372" stroke="#9e5372"/><path d="m-22 700 77 67-15-72z" fill="#a25872" stroke="#a25872"/><path d="m1429 581 31-74-53-39z" fill="#b16c5f" stroke="#b16c5f"/><path d="m1458 581 2-74-31 74z" fill="#ab6462" stroke="#ab6462"/><path d="m-52 355 31 35 58-100z" fill="#b8716c" stroke="#b8716c"/><path d="m1276 992 9-63-76 13z" fill="#863a72" stroke="#863a72"/><path d="m1276 992-67-50-39 30z" fill="#883c71" stroke="#883c71"/><path d="m56 871 51-4-26-94z" fill="#974b76" stroke="#974b76"/><path d="m199-39-84 40 46 52z" fill="#9e537d" stroke="#9e537d"/><path d="m108-85 7 86 84-40z" fill="#964b81" stroke="#964b81"/><path d="m1458 612-52 37 80 26z" fill="#9f5668" stroke="#9f5668"/><path d="m1458 612-29-31-23 68z" fill="#a55d65" stroke="#a55d65"/><path d="m277-86-78-12v59z" fill="#994e7f" stroke="#994e7f"/><path d="m323-99-124 1 78 12z" fill="#9a4e7f" stroke="#9a4e7f"/><path d="m394-112-195 14 124-1z" fill="#9c517d" stroke="#9c517d"/><path d="m1329 859 70-92-85-20z" fill="#954a6c" stroke="#954a6c"/><path d="m1404 833-5-66-70 92z" fill="#8e436f" stroke="#8e436f"/><path d="m107 867 27 52 65-78z" fill="#964b75" stroke="#964b75"/><path d="m56 871 78 48-27-52z" fill="#914578" stroke="#914578"/><path d="m1486 365-35 57 111-27z" fill="#af6862" stroke="#af6862"/><path d="m1486 675-80-26-6 27z" fill="#9e5569" stroke="#9e5569"/><path d="m1285 929 25-10 19-60z" fill="#893d71" stroke="#893d71"/><path d="m1276 992 34-73-25 10z" fill="#843872" stroke="#843872"/><path d="m13 619-46 28 73 48z" fill="#aa616f" stroke="#aa616f"/><path d="m-21 390-18 101 66-88z" fill="#c17c65" stroke="#c17c65"/><path d="m41 184-58 63 54 43z" fill="#af6572" stroke="#af6572"/><path d="m-21 390-86 40 68 61z" fill="#bf7966" stroke="#bf7966"/><path d="m-61 173 44 74 58-63z" fill="#a85e77" stroke="#a85e77"/><path d="m45 34-7 64 91-33z" fill="#9e537d" stroke="#9e537d"/><path d="m1451 422 35-57-95-11z" fill="#b26c61" stroke="#b26c61"/><path d="m1542 359-56 6 76 30z" fill="#aa6265" stroke="#aa6265"/><path d="m1532 574-72-67-2 74z" fill="#a96163" stroke="#a96163"/><path d="m1486 365-13-94-46-5z" fill="#a85f68" stroke="#a85f68"/><path d="m1427 101-42-61-75 77z" fill="#974c74" stroke="#974c74"/><path d="m1427 101-68 105 59-6z" fill="#9e546f" stroke="#9e546f"/><path d="m1278-38-1-62-96-15z" fill="#8e427c" stroke="#8e427c"/><path d="m1308-98-31-2 1 62z" fill="#8a3e7d" stroke="#8a3e7d"/><path d="m-39 491-10 58 81 34z" fill="#b77069" stroke="#b77069"/><path d="m-108 461 59 88 10-58z" fill="#b97269" stroke="#b97269"/><path d="m-17 247-35 108 89-65z" fill="#b26a6f" stroke="#b26a6f"/><path d="m1382 905 22-72-75 26z" fill="#883c71" stroke="#883c71"/><path d="m1092 1016 184-24-106-20z" fill="#883c71" stroke="#883c71"/><path d="m55 767 1 104 25-98z" fill="#9a4e75" stroke="#9a4e75"/><path d="m-49 549 16 98 46-28z" fill="#ae666e" stroke="#ae666e"/><path d="m1478 183-51-82-9 99z" fill="#994f71" stroke="#994f71"/><path d="m-33 647 11 53 62-5z" fill="#a55b71" stroke="#a55b71"/><path d="m1399 767 87-92-86 1z" fill="#994e6b" stroke="#994e6b"/><path d="m1382 905-53-46-19 60z" fill="#873b72" stroke="#873b72"/><path d="m-130 265 10 96 68-6z" fill="#af6772" stroke="#af6772"/><path d="m38 98-54 38 57 48z" fill="#a3587a" stroke="#a3587a"/><path d="m115 1-70 33 84 31z" fill="#9c517e" stroke="#9c517e"/><path d="m36 5 9 29 70-33z" fill="#974b81" stroke="#974b81"/><path d="m134 919 36 91 32-100z" fill="#8e4278" stroke="#8e4278"/><path d="m260 977-90 33 179-9z" fill="#8e4276" stroke="#8e4276"/><path d="m349 1001-179 9 393-4z" fill="#954972" stroke="#954972"/><path d="m105 982 65 28-36-91z" fill="#873b7a" stroke="#873b7a"/><path d="m-25 857 81 14-1-104z" fill="#924678" stroke="#924678"/><path d="m1378-28-70 64 77 4z" fill="#8f4478" stroke="#8f4478"/><path d="m1378-28-29-17-41 81z" fill="#8d417a" stroke="#8d417a"/><path d="m-60 42 44 94 54-38z" fill="#9a4f7f" stroke="#9a4f7f"/><path d="m1349-45-41-53-30 60z" fill="#8b3e7d" stroke="#8b3e7d"/><path d="m1277-100 107-5-203-10z" fill="#883b7f" stroke="#883b7f"/><path d="m1451 797 35-122-87 92z" fill="#92476d" stroke="#92476d"/><path d="m1458 612 74-38-74 7z" fill="#a45b66" stroke="#a45b66"/><path d="m1472-34-94 6 7 68z" fill="#873b7c" stroke="#873b7c"/><path d="m1473 271 5-88-60 17z" fill="#9f556e" stroke="#9f556e"/><path d="m1536 211-58-28-5 88z" fill="#9b516f" stroke="#9b516f"/><path d="m1335 1010 47-105-72 14z" fill="#7f3274" stroke="#7f3274"/><path d="m1404 833 47-36-52-30z" fill="#8d426f" stroke="#8d426f"/><path d="m1349-45 35-60-76 7z" fill="#84387e" stroke="#84387e"/><path d="m1482 36-97 4 42 61z" fill="#8e4278" stroke="#8e4278"/><path d="m199-98-91 13 91 46z" fill="#954982" stroke="#954982"/><path d="m-60 42-26 74 70 20z" fill="#974c80" stroke="#974c80"/><path d="m1455 866-4-69-47 36z" fill="#863a71" stroke="#863a71"/><path d="m108-85-72 90 79-4z" fill="#934883" stroke="#934883"/><path d="m40 983 65-1-49-111z" fill="#85387c" stroke="#85387c"/><path d="m56 871 49 111 29-63z" fill="#8b3f7a" stroke="#8b3f7a"/><path d="m1537 623-79-11 28 63z" fill="#9d5369" stroke="#9d5369"/><path d="m1537 623-5-49-74 38z" fill="#a05768" stroke="#a05768"/><path d="m1486 365 45-89-58-5z" fill="#a55c69" stroke="#a55c69"/><path d="m1560 460-109-38 9 85z" fill="#b46e5e" stroke="#b46e5e"/><path d="m-22 700-12 79 89-12z" fill="#9c5175" stroke="#9c5175"/><path d="m-90 684 56 95 12-79z" fill="#9c5176" stroke="#9c5176"/><path d="m-90 684 68 16-11-53z" fill="#a35873" stroke="#a35873"/><path d="m-86 116 25 57 45-37z" fill="#9d517d" stroke="#9d517d"/><path d="m-16 136-45 37 102 11z" fill="#a3597a" stroke="#a3597a"/><path d="m-52 355-55 75 86-40z" fill="#b9736b" stroke="#b9736b"/><path d="m1542 359-11-83-45 89z" fill="#a65e68" stroke="#a65e68"/><path d="m1478 183 14-58-65-24z" fill="#944974" stroke="#944974"/><path d="m-120 361 13 69 55-75z" fill="#b66e6d" stroke="#b66e6d"/><path d="m-49 549-33 97 49 1z" fill="#ab6170" stroke="#ab6170"/><path d="m-119 579 37 67 33-97z" fill="#ab6270" stroke="#ab6270"/><path d="m-107 430-1 31 69 30z" fill="#bd7768" stroke="#bd7768"/><path d="m1536 211-44-86-14 58z" fill="#954a73" stroke="#954a73"/><path d="m-25 857 42 34 39-20z" fill="#8c3f7b" stroke="#8c3f7b"/><path d="m1532 574 28-114-100 47z" fill="#ab6362" stroke="#ab6362"/><path d="m1535 682 2-59-51 52z" fill="#974d6b" stroke="#974d6b"/><path d="m1382 905 73-39-51-33z" fill="#843773" stroke="#843773"/><path d="m1276 992 59 18-25-91z" fill="#7f3174" stroke="#7f3174"/><path d="m1092 1016 243-6-59-18z" fill="#813473" stroke="#813473"/><path d="m1537 623 23-163-28 114z" fill="#a45b66" stroke="#a45b66"/><path d="m1542 359 20 36-31-119z" fill="#a55c68" stroke="#a55c68"/><path d="m1531 276 5-65-63 60z" fill="#9e536e" stroke="#9e536e"/><path d="m1560 460 2-65-111 27z" fill="#b06961" stroke="#b06961"/><path d="m-107 430-13-69 12 100z" fill="#b8716b" stroke="#b8716b"/><path d="m-130 265 78 90 35-108z" fill="#ae6473" stroke="#ae6473"/><path d="m-34 779 9 78 80-90z" fill="#954978" stroke="#954978"/><path d="m-82 646-8 38 57-37z" fill="#a35974" stroke="#a35974"/><path d="m-119 579 29 105 8-38z" fill="#a45a74" stroke="#a45a74"/><path d="m-119 579 70-30-59-88z" fill="#b36b6d" stroke="#b36b6d"/><path d="m1521 763 14-81-49-7z" fill="#91466e" stroke="#91466e"/><path d="m1474 908-19-42-73 39z" fill="#7e3075" stroke="#7e3075"/><path d="m1562 395-26-184-5 65z" fill="#a0566c" stroke="#a0566c"/><path d="m1521 763-35-88-35 122z" fill="#8f436f" stroke="#8f436f"/><path d="m1537 623-2 59 25-222z" fill="#9f5568" stroke="#9f5568"/><path d="m-120 361 1 218 11-118z" fill="#b9736a" stroke="#b9736a"/><path d="m-132 855 107 2-9-78z" fill="#8b3f7c" stroke="#8b3f7c"/><path d="m17 891 23 92 16-112z" fill="#873b7c" stroke="#873b7c"/><path d="m1378-28 6-77-35 60z" fill="#85387e" stroke="#85387e"/><path d="m1308-98 76-7-107 5z" fill="#843780" stroke="#843780"/><path d="m1472-34-88-71-6 77z" fill="#81347f" stroke="#81347f"/><path d="m1482 36-55 65 65 24z" fill="#8e4277" stroke="#8e4277"/><path d="m1535 860-14-97-70 34z" fill="#843772" stroke="#843772"/><path d="m1529 66-47-30 10 89z" fill="#893d7a" stroke="#893d7a"/><path d="m1536 211-14-102-30 16z" fill="#914575" stroke="#914575"/><path d="m1529 66-7 43 14 102z" fill="#8d4177" stroke="#8d4177"/><path d="m105 982-65 1 130 27z" fill="#81347d" stroke="#81347d"/><path d="m-13 984 53-1-23-92z" fill="#7f327f" stroke="#7f327f"/><path d="m-120 361-10-96 11 314z" fill="#b66e6d" stroke="#b66e6d"/><path d="m-61 173-69 92 113-18z" fill="#a65c78" stroke="#a65c78"/><path d="m-124 182-6 83 69-92z" fill="#a1567b" stroke="#a1567b"/><path d="m-60 42 98 56 7-64z" fill="#984c80" stroke="#984c80"/><path d="m-30-6 75 40-9-29z" fill="#924683" stroke="#924683"/><path d="m-15-67-15 61 66 11z" fill="#8c4087" stroke="#8c4087"/><path d="m108-85-76-12 4 102z" fill="#8d4186" stroke="#8d4186"/><path d="m199-98-167 1 76 12z" fill="#8d4186" stroke="#8d4186"/><path d="m-108-105 140 8 167-1z" fill="#863a8a" stroke="#863a8a"/><path d="m-30-6-30 48 105-8z" fill="#914684" stroke="#914684"/><path d="m1335 1010 61-4-14-101z" fill="#782a76" stroke="#782a76"/><path d="m1455 866 80-6-84-63z" fill="#813473" stroke="#813473"/><path d="m-90 52-34 130 38-66z" fill="#964a81" stroke="#964a81"/><path d="m-86 116-38 66 63-9z" fill="#9c517e" stroke="#9c517e"/><path d="m1474 970v-62l-92-3z" fill="#782a77" stroke="#782a77"/><path d="m1539-1-67-33 10 70z" fill="#7f337e" stroke="#7f337e"/><path d="m1482 36-10-70-87 74z" fill="#873a7c" stroke="#873a7c"/><path d="m1522 109 7-43-37 59z" fill="#8b3f78" stroke="#8b3f78"/><path d="m1539-1-10 67 7 145z" fill="#883b79" stroke="#883b79"/><path d="m32-97-47 30 51 72z" fill="#8a3e88" stroke="#8a3e88"/><path d="m-119-36 29 88 30-10z" fill="#8a3e87" stroke="#8a3e87"/><path d="m-60 42-30 10 4 64z" fill="#924683" stroke="#924683"/><path d="m-119-36 59 78 30-48z" fill="#893d88" stroke="#893d88"/><path d="m-25 857-13 85 55-51z" fill="#85387d" stroke="#85387d"/><path d="m-121 909 83 33 13-85z" fill="#803380" stroke="#803380"/><path d="m-134 788 100-9-56-95z" fill="#954979" stroke="#954979"/><path d="m40 983-53 1 183 26z" fill="#7d317f" stroke="#7d317f"/><path d="m-38 942 25 42 30-93z" fill="#7e327f" stroke="#7e327f"/><path d="m1474 908 61-48-80 6z" fill="#7a2d75" stroke="#7a2d75"/><path d="m1521 763 14 97v-178z" fill="#873a71" stroke="#873a71"/><path d="m1535 682 28 250-3-472z" fill="#90446e" stroke="#90446e"/><path d="m1563 932-28-72-61 48z" fill="#732578" stroke="#732578"/><path d="m1396 1006 78-36-92-65z" fill="#752777" stroke="#752777"/><path d="m-38 942-85 32 110 10z" fill="#752983" stroke="#752983"/><path d="m-119 579-15 209 44-104z" fill="#9c5176" stroke="#9c5176"/><path d="m-130 265-4 523 15-209z" fill="#ae6670" stroke="#ae6670"/><path d="m1529 66 10-67-57 37z" fill="#82367d" stroke="#82367d"/><path d="m1472-34 2-82-90 11z" fill="#792c82" stroke="#792c82"/><path d="m1562 395-23-396-3 212z" fill="#954972" stroke="#954972"/><path d="m1384-105 90-11-293 1z" fill="#803381" stroke="#803381"/><path d="m1181-115 293-1-692-2z" fill="#93487b" stroke="#93487b"/><path d="m1525-116h-51l-2 82z" fill="#732784" stroke="#732784"/><path d="m-134 788 2 67 98-76z" fill="#8b3f7d" stroke="#8b3f7d"/><path d="m1396 1006 126-33-48-3z" fill="#6c1d7a" stroke="#6c1d7a"/><path d="m1474 970 48 3-48-65z" fill="#6f2179" stroke="#6f2179"/><path d="m-132 855 11 54 96-52z" fill="#813580" stroke="#813580"/><path d="m-90 52-29-88-5 218z" fill="#8e4285" stroke="#8e4285"/><path d="m-124 182 5-218-11 301z" fill="#964b81" stroke="#964b81"/><path d="m-15-67-104 31 89 30z" fill="#863a89" stroke="#863a89"/><path d="m-108-105-11 69 104-31z" fill="#7e328d" stroke="#7e328d"/><path d="m1522 973 41-41-89-24z" fill="#6d1f79" stroke="#6d1f79"/><path d="m1535 860 28 72-28-250z" fill="#7d3075" stroke="#7d3075"/><path d="m1560 460 3 472-1-537z" fill="#9c5269" stroke="#9c5269"/><path d="m1474-116h51l-743-2z" fill="#883c7e" stroke="#883c7e"/><path d="m1539-1-14-115-53 82z" fill="#772a82" stroke="#772a82"/><path d="m782-118-890 13 502-7z" fill="#9f547c" stroke="#9f547c"/><path d="m394-112-502 7 307 7z" fill="#904384" stroke="#904384"/><path d="m32-97-140-8 93 38z" fill="#80358c" stroke="#80358c"/><path d="m-132 855 9 119 2-65z" fill="#782c83" stroke="#782c83"/><path d="m-121 909-2 65 85-32z" fill="#772a83" stroke="#772a83"/><path d="m-13 984-110-10 293 36z" fill="#782c81" stroke="#782c81"/></g></svg>