<svg xmlns="http://www.w3.org/2000/svg" width="1440" height="900"><path d="M739,475L672,393L687,490Z" fill="#b9726b" stroke="#b9726b" stroke-width="1.51"/><path d="M739,475L765,422L672,393Z" fill="#b9726b" stroke="#b9726b" stroke-width="1.51"/><path d="M765,422L693,335L672,393Z" fill="#b66e6d" stroke="#b66e6d" stroke-width="1.51"/><path d="M672,393L571,403L687,490Z" fill="#b66e6d" stroke="#b66e6d" stroke-width="1.51"/><path d="M578,344L571,403L672,393Z" fill="#b26970" stroke="#b26970" stroke-width="1.51"/><path d="M765,422L784,322L693,335Z" fill="#b66e6d" stroke="#b66e6d" stroke-width="1.51"/><path d="M571,403L577,518L687,490Z" fill="#b76f6d" stroke="#b76f6d" stroke-width="1.51"/><path d="M687,490L735,587L739,475Z" fill="#bd7868" stroke="#bd7868" stroke-width="1.51"/><path d="M739,475L841,499L765,422Z" fill="#bd7668" stroke="#bd7668" stroke-width="1.51"/><path d="M765,422L851,390L784,322Z" fill="#b9726b" stroke="#b9726b" stroke-width="1.51"/><path d="M702,605L735,587L687,490Z" fill="#bf7966" stroke="#bf7966" stroke-width="1.51"/><path d="M735,587L841,499L739,475Z" fill="#bf7a66" stroke="#bf7a66" stroke-width="1.51"/><path d="M693,335L578,344L672,393Z" fill="#b26970" stroke="#b26970" stroke-width="1.51"/><path d="M666,261L578,344L693,335Z" fill="#b06672" stroke="#b06672" stroke-width="1.51"/><path d="M841,499L851,390L765,422Z" fill="#bd7668" stroke="#bd7668" stroke-width="1.51"/><path d="M577,583L702,605L687,490Z" fill="#bd7768" stroke="#bd7768" stroke-width="1.51"/><path d="M755,226L666,261L693,335Z" fill="#b06771" stroke="#b06771" stroke-width="1.51"/><path d="M577,518L577,583L687,490Z" fill="#ba736a" stroke="#ba736a" stroke-width="1.51"/><path d="M496,505L577,583L577,518Z" fill="#b8716b" stroke="#b8716b" stroke-width="1.51"/><path d="M578,344L526,343L571,403Z" fill="#b06672" stroke="#b06672" stroke-width="1.51"/><path d="M571,403L496,505L577,518Z" fill="#b56d6e" stroke="#b56d6e" stroke-width="1.51"/><path d="M495,258L526,343L578,344Z" fill="#ac6274" stroke="#ac6274" stroke-width="1.51"/><path d="M735,587L854,568L841,499Z" fill="#c27d64" stroke="#c27d64" stroke-width="1.51"/><path d="M841,499L917,489L851,390Z" fill="#c07a65" stroke="#c07a65" stroke-width="1.51"/><path d="M850,672L854,568L735,587Z" fill="#c58161" stroke="#c58161" stroke-width="1.51"/><path d="M784,322L755,226L693,335Z" fill="#b26a70" stroke="#b26a70" stroke-width="1.51"/><path d="M851,390L858,306L784,322Z" fill="#b8716c" stroke="#b8716c" stroke-width="1.51"/><path d="M931,346L858,306L851,390Z" fill="#ba736a" stroke="#ba736a" stroke-width="1.51"/><path d="M526,343L488,426L571,403Z" fill="#af6672" stroke="#af6672" stroke-width="1.51"/><path d="M488,426L496,505L571,403Z" fill="#b26970" stroke="#b26970" stroke-width="1.51"/><path d="M852,214L755,226L784,322Z" fill="#b26a70" stroke="#b26a70" stroke-width="1.51"/><path d="M854,568L917,489L841,499Z" fill="#c37f63" stroke="#c37f63" stroke-width="1.51"/><path d="M581,642L682,662L702,605Z" fill="#c17c65" stroke="#c17c65" stroke-width="1.51"/><path d="M702,605L752,679L735,587Z" fill="#c37e63" stroke="#c37e63" stroke-width="1.51"/><path d="M577,583L581,642L702,605Z" fill="#be7967" stroke="#be7967" stroke-width="1.51"/><path d="M496,601L581,642L577,583Z" fill="#bb7569" stroke="#bb7569" stroke-width="1.51"/><path d="M666,261L589,227L578,344Z" fill="#ad6374" stroke="#ad6374" stroke-width="1.51"/><path d="M671,168L589,227L666,261Z" fill="#aa6075" stroke="#aa6075" stroke-width="1.51"/><path d="M682,662L752,679L702,605Z" fill="#c37f62" stroke="#c37f62" stroke-width="1.51"/><path d="M742,756L752,679L682,662Z" fill="#c68360" stroke="#c68360" stroke-width="1.51"/><path d="M958,383L931,346L851,390Z" fill="#bd7668" stroke="#bd7668" stroke-width="1.51"/><path d="M858,306L852,214L784,322Z" fill="#b56d6e" stroke="#b56d6e" stroke-width="1.51"/><path d="M496,505L496,601L577,583Z" fill="#b8716b" stroke="#b8716b" stroke-width="1.51"/><path d="M433,581L496,601L496,505Z" fill="#b66f6d" stroke="#b66f6d" stroke-width="1.51"/><path d="M917,489L958,383L851,390Z" fill="#bf7966" stroke="#bf7966" stroke-width="1.51"/><path d="M755,226L671,168L666,261Z" fill="#ac6373" stroke="#ac6373" stroke-width="1.51"/><path d="M937,206L852,214L858,306Z" fill="#b56d6e" stroke="#b56d6e" stroke-width="1.51"/><path d="M845,160L852,214L937,206Z" fill="#b26970" stroke="#b26970" stroke-width="1.51"/><path d="M758,168L671,168L755,226Z" fill="#ac6374" stroke="#ac6374" stroke-width="1.51"/><path d="M420,317L416,420L488,426Z" fill="#ac6374" stroke="#ac6374" stroke-width="1.51"/><path d="M589,227L495,258L578,344Z" fill="#aa6075" stroke="#aa6075" stroke-width="1.51"/><path d="M524,172L495,258L589,227Z" fill="#a65b78" stroke="#a65b78" stroke-width="1.51"/><path d="M852,214L758,168L755,226Z" fill="#af6672" stroke="#af6672" stroke-width="1.51"/><path d="M752,679L850,672L735,587Z" fill="#c68260" stroke="#c68260" stroke-width="1.51"/><path d="M854,568L955,602L917,489Z" fill="#c68261" stroke="#c68261" stroke-width="1.51"/><path d="M917,489L1017,421L958,383Z" fill="#c27d64" stroke="#c27d64" stroke-width="1.51"/><path d="M488,426L404,478L496,505Z" fill="#b16871" stroke="#b16871" stroke-width="1.51"/><path d="M420,317L488,426L526,343Z" fill="#ac6374" stroke="#ac6374" stroke-width="1.51"/><path d="M416,420L404,478L488,426Z" fill="#af6672" stroke="#af6672" stroke-width="1.51"/><path d="M913,668L955,602L854,568Z" fill="#c9865e" stroke="#c9865e" stroke-width="1.51"/><path d="M581,642L610,764L682,662Z" fill="#c27e63" stroke="#c27e63" stroke-width="1.51"/><path d="M496,601L526,686L581,642Z" fill="#bd7767" stroke="#bd7767" stroke-width="1.51"/><path d="M422,667L526,686L496,601Z" fill="#bc7569" stroke="#bc7569" stroke-width="1.51"/><path d="M404,478L433,581L496,505Z" fill="#b36b6f" stroke="#b36b6f" stroke-width="1.51"/><path d="M495,258L420,317L526,343Z" fill="#a96076" stroke="#a96076" stroke-width="1.51"/><path d="M313,415L326,486L404,478Z" fill="#ad6373" stroke="#ad6373" stroke-width="1.51"/><path d="M944,755L913,668L850,672Z" fill="#cc8b5a" stroke="#cc8b5a" stroke-width="1.51"/><path d="M850,672L913,668L854,568Z" fill="#c8865e" stroke="#c8865e" stroke-width="1.51"/><path d="M852,214L845,160L758,168Z" fill="#af6672" stroke="#af6672" stroke-width="1.51"/><path d="M593,82L595,141L671,168Z" fill="#a45a79" stroke="#a45a79" stroke-width="1.51"/><path d="M937,206L858,306L931,346Z" fill="#b8716b" stroke="#b8716b" stroke-width="1.51"/><path d="M671,168L595,141L589,227Z" fill="#a75d77" stroke="#a75d77" stroke-width="1.51"/><path d="M495,258L400,239L420,317Z" fill="#a55b79" stroke="#a55b79" stroke-width="1.51"/><path d="M593,82L671,168L683,37Z" fill="#a45a79" stroke="#a45a79" stroke-width="1.51"/><path d="M1015,480L1017,421L917,489Z" fill="#c48062" stroke="#c48062" stroke-width="1.51"/><path d="M958,383L1008,332L931,346Z" fill="#bd7867" stroke="#bd7867" stroke-width="1.51"/><path d="M1011,567L1015,480L917,489Z" fill="#c68260" stroke="#c68260" stroke-width="1.51"/><path d="M595,141L524,172L589,227Z" fill="#a55b78" stroke="#a55b78" stroke-width="1.51"/><path d="M669,775L742,756L682,662Z" fill="#c7845f" stroke="#c7845f" stroke-width="1.51"/><path d="M752,679L828,768L850,672Z" fill="#ca875d" stroke="#ca875d" stroke-width="1.51"/><path d="M1017,421L1008,332L958,383Z" fill="#c07b65" stroke="#c07b65" stroke-width="1.51"/><path d="M1012,236L937,206L931,346Z" fill="#b8726b" stroke="#b8726b" stroke-width="1.51"/><path d="M955,602L1011,567L917,489Z" fill="#c7845f" stroke="#c7845f" stroke-width="1.51"/><path d="M1009,640L1011,567L955,602Z" fill="#cb895c" stroke="#cb895c" stroke-width="1.51"/><path d="M526,686L610,764L581,642Z" fill="#c17c64" stroke="#c17c64" stroke-width="1.51"/><path d="M610,764L669,775L682,662Z" fill="#c68260" stroke="#c68260" stroke-width="1.51"/><path d="M742,756L828,768L752,679Z" fill="#c9885c" stroke="#c9885c" stroke-width="1.51"/><path d="M913,668L1009,640L955,602Z" fill="#cb895b" stroke="#cb895b" stroke-width="1.51"/><path d="M746,811L828,768L742,756Z" fill="#cb8a5a" stroke="#cb8a5a" stroke-width="1.51"/><path d="M433,581L422,667L496,601Z" fill="#b8716b" stroke="#b8716b" stroke-width="1.51"/><path d="M526,686L493,765L610,764Z" fill="#c27d63" stroke="#c27d63" stroke-width="1.51"/><path d="M355,603L422,667L433,581Z" fill="#b76f6d" stroke="#b76f6d" stroke-width="1.51"/><path d="M524,172L400,239L495,258Z" fill="#a45a79" stroke="#a45a79" stroke-width="1.51"/><path d="M313,415L404,478L416,420Z" fill="#ac6274" stroke="#ac6274" stroke-width="1.51"/><path d="M944,755L1009,640L913,668Z" fill="#ce8d59" stroke="#ce8d59" stroke-width="1.51"/><path d="M1011,567L1128,480L1015,480Z" fill="#c8865d" stroke="#c8865d" stroke-width="1.51"/><path d="M937,206L948,135L845,160Z" fill="#b26970" stroke="#b26970" stroke-width="1.51"/><path d="M1008,332L1012,236L931,346Z" fill="#bc7568" stroke="#bc7568" stroke-width="1.51"/><path d="M1084,242L1012,236L1008,332Z" fill="#bb7569" stroke="#bb7569" stroke-width="1.51"/><path d="M595,141L495,82L524,172Z" fill="#a1577b" stroke="#a1577b" stroke-width="1.51"/><path d="M524,172L425,134L400,239Z" fill="#a1567b" stroke="#a1567b" stroke-width="1.51"/><path d="M683,37L671,168L758,168Z" fill="#a75e77" stroke="#a75e77" stroke-width="1.51"/><path d="M669,775L746,811L742,756Z" fill="#ca885c" stroke="#ca885c" stroke-width="1.51"/><path d="M675,855L746,811L669,775Z" fill="#cb895b" stroke="#cb895b" stroke-width="1.51"/><path d="M404,478L355,603L433,581Z" fill="#b36b6f" stroke="#b36b6f" stroke-width="1.51"/><path d="M345,308L416,420L420,317Z" fill="#a85e77" stroke="#a85e77" stroke-width="1.51"/><path d="M400,239L345,308L420,317Z" fill="#a45a79" stroke="#a45a79" stroke-width="1.51"/><path d="M326,486L355,603L404,478Z" fill="#b06771" stroke="#b06771" stroke-width="1.51"/><path d="M393,732L493,765L422,667Z" fill="#bd7867" stroke="#bd7867" stroke-width="1.51"/><path d="M422,667L493,765L526,686Z" fill="#be7967" stroke="#be7967" stroke-width="1.51"/><path d="M590,857L675,855L669,775Z" fill="#ca885c" stroke="#ca885c" stroke-width="1.51"/><path d="M345,308L313,415L416,420Z" fill="#a85e76" stroke="#a85e76" stroke-width="1.51"/><path d="M1025,160L948,135L937,206Z" fill="#b46c6f" stroke="#b46c6f" stroke-width="1.51"/><path d="M752,34L683,37L758,168Z" fill="#a65c78" stroke="#a65c78" stroke-width="1.51"/><path d="M912,845L944,755L828,768Z" fill="#d09155" stroke="#d09155" stroke-width="1.51"/><path d="M828,768L944,755L850,672Z" fill="#cd8c59" stroke="#cd8c59" stroke-width="1.51"/><path d="M752,34L758,168L845,160Z" fill="#ab6175" stroke="#ab6175" stroke-width="1.51"/><path d="M872,66L752,34L845,160Z" fill="#aa6075" stroke="#aa6075" stroke-width="1.51"/><path d="M948,135L872,66L845,160Z" fill="#ae6572" stroke="#ae6572" stroke-width="1.51"/><path d="M495,82L425,134L524,172Z" fill="#9f547c" stroke="#9f547c" stroke-width="1.51"/><path d="M400,239L327,213L345,308Z" fill="#a1577b" stroke="#a1577b" stroke-width="1.51"/><path d="M495,82L595,141L593,82Z" fill="#a0567b" stroke="#a0567b" stroke-width="1.51"/><path d="M581,-19L495,82L593,82Z" fill="#9e527d" stroke="#9e527d" stroke-width="1.51"/><path d="M746,811L869,859L828,768Z" fill="#cf8e58" stroke="#cf8e58" stroke-width="1.51"/><path d="M590,857L669,775L610,764Z" fill="#c8855e" stroke="#c8855e" stroke-width="1.51"/><path d="M502,834L590,857L610,764Z" fill="#c7845f" stroke="#c7845f" stroke-width="1.51"/><path d="M313,661L393,732L422,667Z" fill="#b9726a" stroke="#b9726a" stroke-width="1.51"/><path d="M948,135L919,63L872,66Z" fill="#ae6473" stroke="#ae6473" stroke-width="1.51"/><path d="M1012,236L1025,160L937,206Z" fill="#b66f6c" stroke="#b66f6c" stroke-width="1.51"/><path d="M1084,242L1025,160L1012,236Z" fill="#b9726b" stroke="#b9726b" stroke-width="1.51"/><path d="M1017,421L1119,331L1008,332Z" fill="#c07c65" stroke="#c07c65" stroke-width="1.51"/><path d="M1015,480L1128,480L1017,421Z" fill="#c68260" stroke="#c68260" stroke-width="1.51"/><path d="M1126,585L1128,480L1011,567Z" fill="#cb895b" stroke="#cb895b" stroke-width="1.51"/><path d="M1126,585L1011,567L1009,640Z" fill="#cc8b5a" stroke="#cc8b5a" stroke-width="1.51"/><path d="M1119,331L1084,242L1008,332Z" fill="#bf7966" stroke="#bf7966" stroke-width="1.51"/><path d="M1128,480L1131,413L1017,421Z" fill="#c6835f" stroke="#c6835f" stroke-width="1.51"/><path d="M1131,413L1119,331L1017,421Z" fill="#c37f62" stroke="#c37f62" stroke-width="1.51"/><path d="M313,415L268,416L326,486Z" fill="#a96075" stroke="#a96075" stroke-width="1.51"/><path d="M218,560L313,661L355,603Z" fill="#b26a70" stroke="#b26a70" stroke-width="1.51"/><path d="M355,603L313,661L422,667Z" fill="#b76f6c" stroke="#b76f6c" stroke-width="1.51"/><path d="M226,347L268,416L313,415Z" fill="#a65b78" stroke="#a65b78" stroke-width="1.51"/><path d="M226,347L313,415L345,308Z" fill="#a55a79" stroke="#a55a79" stroke-width="1.51"/><path d="M502,834L610,764L493,765Z" fill="#c48062" stroke="#c48062" stroke-width="1.51"/><path d="M840,-54L735,-31L752,34Z" fill="#a3587a" stroke="#a3587a" stroke-width="1.51"/><path d="M1039,57L919,63L948,135Z" fill="#af6671" stroke="#af6671" stroke-width="1.51"/><path d="M425,134L327,213L400,239Z" fill="#9f547c" stroke="#9f547c" stroke-width="1.51"/><path d="M410,849L502,834L493,765Z" fill="#c37f62" stroke="#c37f62" stroke-width="1.51"/><path d="M218,560L355,603L326,486Z" fill="#b06671" stroke="#b06671" stroke-width="1.51"/><path d="M393,732L410,849L493,765Z" fill="#c07b65" stroke="#c07b65" stroke-width="1.51"/><path d="M1114,681L1126,585L1009,640Z" fill="#d08f57" stroke="#d08f57" stroke-width="1.51"/><path d="M1128,480L1210,412L1131,413Z" fill="#c8855d" stroke="#c8855d" stroke-width="1.51"/><path d="M736,951L869,859L746,811Z" fill="#d19155" stroke="#d19155" stroke-width="1.51"/><path d="M944,755L1043,740L1009,640Z" fill="#d09056" stroke="#d09056" stroke-width="1.51"/><path d="M736,951L746,811L675,855Z" fill="#cf8e57" stroke="#cf8e57" stroke-width="1.51"/><path d="M1043,852L1043,740L944,755Z" fill="#d49551" stroke="#d49551" stroke-width="1.51"/><path d="M869,859L912,845L828,768Z" fill="#d19154" stroke="#d19154" stroke-width="1.51"/><path d="M683,37L581,-19L593,82Z" fill="#9f547c" stroke="#9f547c" stroke-width="1.51"/><path d="M735,-31L677,-26L683,37Z" fill="#a0557b" stroke="#a0557b" stroke-width="1.51"/><path d="M735,-31L683,37L752,34Z" fill="#a2577a" stroke="#a2577a" stroke-width="1.51"/><path d="M425,134L317,121L327,213Z" fill="#9c507e" stroke="#9c507e" stroke-width="1.51"/><path d="M495,82L436,51L425,134Z" fill="#9b507e" stroke="#9b507e" stroke-width="1.51"/><path d="M517,-36L436,51L495,82Z" fill="#994e7f" stroke="#994e7f" stroke-width="1.51"/><path d="M840,-54L752,34L872,66Z" fill="#a65c78" stroke="#a65c78" stroke-width="1.51"/><path d="M1025,160L1039,57L948,135Z" fill="#b26a70" stroke="#b26a70" stroke-width="1.51"/><path d="M1084,242L1082,163L1025,160Z" fill="#b8726b" stroke="#b8726b" stroke-width="1.51"/><path d="M1180,217L1082,163L1084,242Z" fill="#bb7569" stroke="#bb7569" stroke-width="1.51"/><path d="M517,-36L581,-19L616,-90Z" fill="#984d80" stroke="#984d80" stroke-width="1.51"/><path d="M677,-26L581,-19L683,37Z" fill="#9e537d" stroke="#9e537d" stroke-width="1.51"/><path d="M614,918L675,916L675,855Z" fill="#cd8d59" stroke="#cd8d59" stroke-width="1.51"/><path d="M614,918L675,855L590,857Z" fill="#cb8a5a" stroke="#cb8a5a" stroke-width="1.51"/><path d="M1043,740L1114,681L1009,640Z" fill="#d19255" stroke="#d19255" stroke-width="1.51"/><path d="M268,416L222,486L326,486Z" fill="#aa6076" stroke="#aa6076" stroke-width="1.51"/><path d="M169,409L222,486L268,416Z" fill="#a65c78" stroke="#a65c78" stroke-width="1.51"/><path d="M220,247L226,347L345,308Z" fill="#a0557b" stroke="#a0557b" stroke-width="1.51"/><path d="M220,247L345,308L327,213Z" fill="#9f547d" stroke="#9f547d" stroke-width="1.51"/><path d="M497,900L614,918L590,857Z" fill="#ca885c" stroke="#ca885c" stroke-width="1.51"/><path d="M1126,585L1211,507L1128,480Z" fill="#cc8b5a" stroke="#cc8b5a" stroke-width="1.51"/><path d="M1131,413L1210,412L1119,331Z" fill="#c68260" stroke="#c68260" stroke-width="1.51"/><path d="M1114,681L1169,595L1126,585Z" fill="#d19155" stroke="#d19155" stroke-width="1.51"/><path d="M222,486L218,560L326,486Z" fill="#ac6274" stroke="#ac6274" stroke-width="1.51"/><path d="M175,493L218,560L222,486Z" fill="#aa6075" stroke="#aa6075" stroke-width="1.51"/><path d="M436,51L317,121L425,134Z" fill="#9a4e7f" stroke="#9a4e7f" stroke-width="1.51"/><path d="M313,661L321,767L393,732Z" fill="#ba736a" stroke="#ba736a" stroke-width="1.51"/><path d="M502,834L497,900L590,857Z" fill="#c7855e" stroke="#c7855e" stroke-width="1.51"/><path d="M248,773L321,767L313,661Z" fill="#b9726b" stroke="#b9726b" stroke-width="1.51"/><path d="M336,814L410,849L393,732Z" fill="#bf7a66" stroke="#bf7a66" stroke-width="1.51"/><path d="M410,849L497,900L502,834Z" fill="#c68260" stroke="#c68260" stroke-width="1.51"/><path d="M581,-19L517,-36L495,82Z" fill="#9a4e7f" stroke="#9a4e7f" stroke-width="1.51"/><path d="M436,51L308,71L317,121Z" fill="#974b81" stroke="#974b81" stroke-width="1.51"/><path d="M616,-90L581,-19L677,-26Z" fill="#9b4f7e" stroke="#9b4f7e" stroke-width="1.51"/><path d="M1090,84L1039,57L1025,160Z" fill="#b36b6f" stroke="#b36b6f" stroke-width="1.51"/><path d="M927,-47L840,-54L872,66Z" fill="#a75d77" stroke="#a75d77" stroke-width="1.51"/><path d="M1211,507L1210,412L1128,480Z" fill="#ca895b" stroke="#ca895b" stroke-width="1.51"/><path d="M1119,331L1180,217L1084,242Z" fill="#bf7966" stroke="#bf7966" stroke-width="1.51"/><path d="M1082,163L1090,84L1025,160Z" fill="#b66e6d" stroke="#b66e6d" stroke-width="1.51"/><path d="M927,-47L872,66L919,63Z" fill="#aa6175" stroke="#aa6175" stroke-width="1.51"/><path d="M697,-97L616,-90L677,-26Z" fill="#9a4f7e" stroke="#9a4f7e" stroke-width="1.51"/><path d="M675,916L736,951L675,855Z" fill="#cf8f57" stroke="#cf8f57" stroke-width="1.51"/><path d="M869,859L908,931L912,845Z" fill="#d59751" stroke="#d59751" stroke-width="1.51"/><path d="M679,994L736,951L675,916Z" fill="#d29354" stroke="#d29354" stroke-width="1.51"/><path d="M679,994L675,916L614,918Z" fill="#d09056" stroke="#d09056" stroke-width="1.51"/><path d="M1169,595L1211,507L1126,585Z" fill="#cf8e57" stroke="#cf8e57" stroke-width="1.51"/><path d="M244,159L220,247L327,213Z" fill="#9b4f7f" stroke="#9b4f7f" stroke-width="1.51"/><path d="M169,409L175,493L222,486Z" fill="#a65c78" stroke="#a65c78" stroke-width="1.51"/><path d="M265,848L336,814L321,767Z" fill="#bd7867" stroke="#bd7867" stroke-width="1.51"/><path d="M321,767L336,814L393,732Z" fill="#bd7768" stroke="#bd7768" stroke-width="1.51"/><path d="M402,946L526,986L497,900Z" fill="#c9885c" stroke="#c9885c" stroke-width="1.51"/><path d="M1114,681L1175,671L1169,595Z" fill="#d29354" stroke="#d29354" stroke-width="1.51"/><path d="M1298,581L1271,500L1211,507Z" fill="#d09056" stroke="#d09056" stroke-width="1.51"/><path d="M1043,740L1123,750L1114,681Z" fill="#d49552" stroke="#d49552" stroke-width="1.51"/><path d="M1108,817L1123,750L1043,740Z" fill="#d6984f" stroke="#d6984f" stroke-width="1.51"/><path d="M1043,852L944,755L912,845Z" fill="#d49651" stroke="#d49651" stroke-width="1.51"/><path d="M1210,412L1209,305L1119,331Z" fill="#c58161" stroke="#c58161" stroke-width="1.51"/><path d="M1284,404L1209,305L1210,412Z" fill="#c8855e" stroke="#c8855e" stroke-width="1.51"/><path d="M1047,-11L927,-47L919,63Z" fill="#ab6174" stroke="#ab6174" stroke-width="1.51"/><path d="M1190,140L1090,84L1082,163Z" fill="#b8706c" stroke="#b8706c" stroke-width="1.51"/><path d="M736,951L873,936L869,859Z" fill="#d49552" stroke="#d49552" stroke-width="1.51"/><path d="M218,560L228,675L313,661Z" fill="#b26970" stroke="#b26970" stroke-width="1.51"/><path d="M169,409L268,416L226,347Z" fill="#a35979" stroke="#a35979" stroke-width="1.51"/><path d="M174,648L228,675L218,560Z" fill="#b06771" stroke="#b06771" stroke-width="1.51"/><path d="M1209,305L1180,217L1119,331Z" fill="#c17d64" stroke="#c17d64" stroke-width="1.51"/><path d="M1123,750L1175,671L1114,681Z" fill="#d49651" stroke="#d49651" stroke-width="1.51"/><path d="M163,309L169,409L226,347Z" fill="#a0557b" stroke="#a0557b" stroke-width="1.51"/><path d="M873,936L908,931L869,859Z" fill="#d59850" stroke="#d59850" stroke-width="1.51"/><path d="M220,247L163,309L226,347Z" fill="#9e537d" stroke="#9e537d" stroke-width="1.51"/><path d="M317,121L244,159L327,213Z" fill="#9a4e80" stroke="#9a4e80" stroke-width="1.51"/><path d="M239,67L244,159L317,121Z" fill="#954982" stroke="#954982" stroke-width="1.51"/><path d="M697,-97L677,-26L735,-31Z" fill="#9d527d" stroke="#9d527d" stroke-width="1.51"/><path d="M749,-105L697,-97L735,-31Z" fill="#9d527d" stroke="#9d527d" stroke-width="1.51"/><path d="M840,-54L749,-105L735,-31Z" fill="#a0557b" stroke="#a0557b" stroke-width="1.51"/><path d="M1047,-11L919,63L1039,57Z" fill="#ae6572" stroke="#ae6572" stroke-width="1.51"/><path d="M998,903L1043,852L912,845Z" fill="#d79a4e" stroke="#d79a4e" stroke-width="1.51"/><path d="M393,-30L436,51L517,-36Z" fill="#954a81" stroke="#954a81" stroke-width="1.51"/><path d="M393,-30L308,71L436,51Z" fill="#954982" stroke="#954982" stroke-width="1.51"/><path d="M697,-97L497,-123L616,-90Z" fill="#964a81" stroke="#964a81" stroke-width="1.51"/><path d="M831,-110L749,-105L840,-54Z" fill="#9f547c" stroke="#9f547c" stroke-width="1.51"/><path d="M908,931L998,903L912,845Z" fill="#d79a4e" stroke="#d79a4e" stroke-width="1.51"/><path d="M159,235L163,309L220,247Z" fill="#9b4f7f" stroke="#9b4f7f" stroke-width="1.51"/><path d="M736,951L845,993L873,936Z" fill="#d69850" stroke="#d69850" stroke-width="1.51"/><path d="M873,936L942,996L908,931Z" fill="#d89c4c" stroke="#d89c4c" stroke-width="1.51"/><path d="M574,1004L679,994L614,918Z" fill="#d09056" stroke="#d09056" stroke-width="1.51"/><path d="M1043,852L1108,817L1043,740Z" fill="#d7994e" stroke="#d7994e" stroke-width="1.51"/><path d="M1123,750L1179,760L1175,671Z" fill="#d7994f" stroke="#d7994f" stroke-width="1.51"/><path d="M1105,922L1108,817L1043,852Z" fill="#da9e4a" stroke="#da9e4a" stroke-width="1.51"/><path d="M679,994L736,994L736,951Z" fill="#d39552" stroke="#d39552" stroke-width="1.51"/><path d="M908,931L942,996L998,903Z" fill="#d99d4b" stroke="#d99d4b" stroke-width="1.51"/><path d="M497,-123L393,-30L517,-36Z" fill="#934782" stroke="#934782" stroke-width="1.51"/><path d="M228,675L248,773L313,661Z" fill="#b66f6d" stroke="#b66f6d" stroke-width="1.51"/><path d="M402,946L497,900L410,849Z" fill="#c6835f" stroke="#c6835f" stroke-width="1.51"/><path d="M497,900L526,986L614,918Z" fill="#cc8a5a" stroke="#cc8a5a" stroke-width="1.51"/><path d="M173,765L248,773L228,675Z" fill="#b66f6c" stroke="#b66f6c" stroke-width="1.51"/><path d="M927,-47L831,-110L840,-54Z" fill="#a3587a" stroke="#a3587a" stroke-width="1.51"/><path d="M131,593L175,493L69,496Z" fill="#a75e77" stroke="#a75e77" stroke-width="1.51"/><path d="M131,593L218,560L175,493Z" fill="#ab6175" stroke="#ab6175" stroke-width="1.51"/><path d="M131,593L174,648L218,560Z" fill="#ae6473" stroke="#ae6473" stroke-width="1.51"/><path d="M1090,84L1047,-11L1039,57Z" fill="#b16871" stroke="#b16871" stroke-width="1.51"/><path d="M927,-47L952,-98L831,-110Z" fill="#a45979" stroke="#a45979" stroke-width="1.51"/><path d="M1128,-19L1047,-11L1090,84Z" fill="#b06871" stroke="#b06871" stroke-width="1.51"/><path d="M736,994L845,993L736,951Z" fill="#d59850" stroke="#d59850" stroke-width="1.51"/><path d="M1270,230L1190,140L1180,217Z" fill="#be7967" stroke="#be7967" stroke-width="1.51"/><path d="M1180,217L1190,140L1082,163Z" fill="#bb7569" stroke="#bb7569" stroke-width="1.51"/><path d="M1298,581L1211,507L1169,595Z" fill="#d19156" stroke="#d19156" stroke-width="1.51"/><path d="M1211,507L1271,500L1210,412Z" fill="#cc8b59" stroke="#cc8b59" stroke-width="1.51"/><path d="M1209,305L1270,230L1180,217Z" fill="#c17c64" stroke="#c17c64" stroke-width="1.51"/><path d="M1298,581L1169,595L1309,645Z" fill="#d49552" stroke="#d49552" stroke-width="1.51"/><path d="M402,946L410,849L311,913Z" fill="#c48162" stroke="#c48162" stroke-width="1.51"/><path d="M1108,817L1179,760L1123,750Z" fill="#d89b4d" stroke="#d89b4d" stroke-width="1.51"/><path d="M244,159L159,235L220,247Z" fill="#994d80" stroke="#994d80" stroke-width="1.51"/><path d="M69,496L175,493L169,409Z" fill="#a45a79" stroke="#a45a79" stroke-width="1.51"/><path d="M152,133L159,235L244,159Z" fill="#954a82" stroke="#954a82" stroke-width="1.51"/><path d="M239,67L317,121L308,71Z" fill="#944882" stroke="#944882" stroke-width="1.51"/><path d="M526,986L574,1004L614,918Z" fill="#cf8e58" stroke="#cf8e58" stroke-width="1.51"/><path d="M679,994L574,1004L736,994Z" fill="#d29453" stroke="#d29453" stroke-width="1.51"/><path d="M1011,1012L942,996L845,993Z" fill="#dca048" stroke="#dca048" stroke-width="1.51"/><path d="M1271,500L1284,404L1210,412Z" fill="#cc8a5a" stroke="#cc8a5a" stroke-width="1.51"/><path d="M311,913L410,849L336,814Z" fill="#c17d64" stroke="#c17d64" stroke-width="1.51"/><path d="M526,986L430,1033L574,1004Z" fill="#ce8d58" stroke="#ce8d58" stroke-width="1.51"/><path d="M99,388L169,409L163,309Z" fill="#9f547c" stroke="#9f547c" stroke-width="1.51"/><path d="M173,765L265,848L248,773Z" fill="#ba736a" stroke="#ba736a" stroke-width="1.51"/><path d="M269,-1L239,67L308,71Z" fill="#914584" stroke="#914584" stroke-width="1.51"/><path d="M1013,-103L952,-98L927,-47Z" fill="#a65c78" stroke="#a65c78" stroke-width="1.51"/><path d="M616,-90L497,-123L517,-36Z" fill="#954982" stroke="#954982" stroke-width="1.51"/><path d="M309,-44L269,-1L308,71Z" fill="#904485" stroke="#904485" stroke-width="1.51"/><path d="M749,-105L497,-123L697,-97Z" fill="#974c80" stroke="#974c80" stroke-width="1.51"/><path d="M831,-110L497,-123L749,-105Z" fill="#9a4e7f" stroke="#9a4e7f" stroke-width="1.51"/><path d="M1284,404L1284,310L1209,305Z" fill="#c7845f" stroke="#c7845f" stroke-width="1.51"/><path d="M173,765L228,675L174,648Z" fill="#b36b6f" stroke="#b36b6f" stroke-width="1.51"/><path d="M248,773L265,848L321,767Z" fill="#bb7569" stroke="#bb7569" stroke-width="1.51"/><path d="M72,318L99,388L163,309Z" fill="#9c517e" stroke="#9c517e" stroke-width="1.51"/><path d="M1284,310L1270,230L1209,305Z" fill="#c48062" stroke="#c48062" stroke-width="1.51"/><path d="M845,993L942,996L873,936Z" fill="#d99c4b" stroke="#d99c4b" stroke-width="1.51"/><path d="M998,903L1105,922L1043,852Z" fill="#da9e4a" stroke="#da9e4a" stroke-width="1.51"/><path d="M1108,817L1210,848L1179,760Z" fill="#da9e4a" stroke="#da9e4a" stroke-width="1.51"/><path d="M1011,1012L845,993L736,994Z" fill="#d99d4b" stroke="#d99d4b" stroke-width="1.51"/><path d="M265,848L311,913L336,814Z" fill="#c07b65" stroke="#c07b65" stroke-width="1.51"/><path d="M1309,645L1169,595L1175,671Z" fill="#d49552" stroke="#d49552" stroke-width="1.51"/><path d="M1271,500L1350,498L1284,404Z" fill="#cf8e58" stroke="#cf8e58" stroke-width="1.51"/><path d="M1284,404L1371,338L1284,310Z" fill="#c9875d" stroke="#c9875d" stroke-width="1.51"/><path d="M309,-44L308,71L393,-30Z" fill="#914584" stroke="#914584" stroke-width="1.51"/><path d="M239,67L152,133L244,159Z" fill="#934783" stroke="#934783" stroke-width="1.51"/><path d="M59,659L173,765L174,648Z" fill="#b16871" stroke="#b16871" stroke-width="1.51"/><path d="M265,848L222,912L311,913Z" fill="#c07b65" stroke="#c07b65" stroke-width="1.51"/><path d="M319,-121L309,-44L393,-30Z" fill="#8d4186" stroke="#8d4186" stroke-width="1.51"/><path d="M831,-110L417,-135L497,-123Z" fill="#944982" stroke="#944982" stroke-width="1.51"/><path d="M952,-98L1112,-132L831,-110Z" fill="#a55a78" stroke="#a55a78" stroke-width="1.51"/><path d="M1047,-11L1013,-103L927,-47Z" fill="#a95f76" stroke="#a95f76" stroke-width="1.51"/><path d="M1112,-132L1013,-103L1047,-11Z" fill="#aa6076" stroke="#aa6076" stroke-width="1.51"/><path d="M1128,-19L1090,84L1217,36Z" fill="#b46b6e" stroke="#b46b6e" stroke-width="1.51"/><path d="M1217,36L1090,84L1190,140Z" fill="#b76f6c" stroke="#b76f6c" stroke-width="1.51"/><path d="M159,235L72,318L163,309Z" fill="#9a4e7f" stroke="#9a4e7f" stroke-width="1.51"/><path d="M139,83L152,133L239,67Z" fill="#904484" stroke="#904484" stroke-width="1.51"/><path d="M1277,748L1309,645L1175,671Z" fill="#d89a4d" stroke="#d89a4d" stroke-width="1.51"/><path d="M1011,1012L1105,922L998,903Z" fill="#dda147" stroke="#dda147" stroke-width="1.51"/><path d="M131,593L59,659L174,648Z" fill="#ad6473" stroke="#ad6473" stroke-width="1.51"/><path d="M99,388L69,496L169,409Z" fill="#a1577b" stroke="#a1577b" stroke-width="1.51"/><path d="M-1,490L69,496L99,388Z" fill="#a0567b" stroke="#a0567b" stroke-width="1.51"/><path d="M1112,-132L417,-135L831,-110Z" fill="#9c517d" stroke="#9c517d" stroke-width="1.51"/><path d="M497,-123L417,-135L393,-30Z" fill="#8f4384" stroke="#8f4384" stroke-width="1.51"/><path d="M52,260L72,318L159,235Z" fill="#974c81" stroke="#974c81" stroke-width="1.51"/><path d="M1298,581L1350,498L1271,500Z" fill="#d19254" stroke="#d19254" stroke-width="1.51"/><path d="M1277,748L1175,671L1179,760Z" fill="#d89b4d" stroke="#d89b4d" stroke-width="1.51"/><path d="M69,496L72,585L131,593Z" fill="#a85e77" stroke="#a85e77" stroke-width="1.51"/><path d="M942,996L1011,1012L998,903Z" fill="#dca148" stroke="#dca148" stroke-width="1.51"/><path d="M430,1033L1011,1012L736,994Z" fill="#d59750" stroke="#d59750" stroke-width="1.51"/><path d="M1368,595L1350,498L1298,581Z" fill="#d49651" stroke="#d49651" stroke-width="1.51"/><path d="M1367,170L1299,147L1270,230Z" fill="#c17d64" stroke="#c17d64" stroke-width="1.51"/><path d="M359,1014L430,1033L402,946Z" fill="#ca875c" stroke="#ca875c" stroke-width="1.51"/><path d="M402,946L430,1033L526,986Z" fill="#cb895b" stroke="#cb895b" stroke-width="1.51"/><path d="M574,1004L430,1033L736,994Z" fill="#d09156" stroke="#d09156" stroke-width="1.51"/><path d="M1105,922L1210,848L1108,817Z" fill="#dca048" stroke="#dca048" stroke-width="1.51"/><path d="M1270,831L1210,848L1290,911Z" fill="#e0a643" stroke="#e0a643" stroke-width="1.51"/><path d="M1270,831L1277,748L1179,760Z" fill="#dca049" stroke="#dca049" stroke-width="1.51"/><path d="M1128,-19L1112,-132L1047,-11Z" fill="#ac6473" stroke="#ac6473" stroke-width="1.51"/><path d="M1275,81L1217,36L1190,140Z" fill="#b9726b" stroke="#b9726b" stroke-width="1.51"/><path d="M1299,147L1190,140L1270,230Z" fill="#bf7966" stroke="#bf7966" stroke-width="1.51"/><path d="M1350,498L1364,434L1284,404Z" fill="#cf8e58" stroke="#cf8e58" stroke-width="1.51"/><path d="M48,163L52,260L159,235Z" fill="#944882" stroke="#944882" stroke-width="1.51"/><path d="M142,-34L139,83L239,67Z" fill="#8c4086" stroke="#8c4086" stroke-width="1.51"/><path d="M142,-34L239,67L269,-1Z" fill="#8d4186" stroke="#8d4186" stroke-width="1.51"/><path d="M246,-98L269,-1L309,-44Z" fill="#8b3f87" stroke="#8b3f87" stroke-width="1.51"/><path d="M1385,211L1270,230L1284,310Z" fill="#c48161" stroke="#c48161" stroke-width="1.51"/><path d="M311,913L359,1014L402,946Z" fill="#c78360" stroke="#c78360" stroke-width="1.51"/><path d="M262,1017L359,1014L311,913Z" fill="#c68260" stroke="#c68260" stroke-width="1.51"/><path d="M-26,398L-1,490L99,388Z" fill="#9e527d" stroke="#9e527d" stroke-width="1.51"/><path d="M-32,586L59,659L72,585Z" fill="#a95f76" stroke="#a95f76" stroke-width="1.51"/><path d="M48,163L159,235L152,133Z" fill="#934783" stroke="#934783" stroke-width="1.51"/><path d="M150,866L265,848L173,765Z" fill="#ba746a" stroke="#ba746a" stroke-width="1.51"/><path d="M150,866L222,912L265,848Z" fill="#bd7767" stroke="#bd7767" stroke-width="1.51"/><path d="M1299,147L1275,81L1190,140Z" fill="#bc7668" stroke="#bc7668" stroke-width="1.51"/><path d="M417,-135L319,-121L393,-30Z" fill="#8c4086" stroke="#8c4086" stroke-width="1.51"/><path d="M72,585L59,659L131,593Z" fill="#ab6175" stroke="#ab6175" stroke-width="1.51"/><path d="M-1,490L72,585L69,496Z" fill="#a45979" stroke="#a45979" stroke-width="1.51"/><path d="M1299,147L1369,49L1275,81Z" fill="#bc7768" stroke="#bc7768" stroke-width="1.51"/><path d="M1364,434L1371,338L1284,404Z" fill="#cc8b5a" stroke="#cc8b5a" stroke-width="1.51"/><path d="M1372,686L1368,595L1309,645Z" fill="#d99c4c" stroke="#d99c4c" stroke-width="1.51"/><path d="M1309,645L1368,595L1298,581Z" fill="#d6984f" stroke="#d6984f" stroke-width="1.51"/><path d="M1350,498L1429,470L1364,434Z" fill="#d19255" stroke="#d19255" stroke-width="1.51"/><path d="M1482,400L1464,334L1371,338Z" fill="#ce8d58" stroke="#ce8d58" stroke-width="1.51"/><path d="M1210,848L1270,831L1179,760Z" fill="#dca148" stroke="#dca148" stroke-width="1.51"/><path d="M1277,748L1372,686L1309,645Z" fill="#da9d4a" stroke="#da9d4a" stroke-width="1.51"/><path d="M1195,925L1210,848L1105,922Z" fill="#dea444" stroke="#dea444" stroke-width="1.51"/><path d="M1011,1012L1107,999L1105,922Z" fill="#dfa543" stroke="#dfa543" stroke-width="1.51"/><path d="M1197,988L1195,925L1105,922Z" fill="#e0a741" stroke="#e0a741" stroke-width="1.51"/><path d="M55,823L150,866L173,765Z" fill="#b7706c" stroke="#b7706c" stroke-width="1.51"/><path d="M222,912L262,1017L311,913Z" fill="#c37e63" stroke="#c37e63" stroke-width="1.51"/><path d="M1292,-39L1208,-42L1217,36Z" fill="#b46c6e" stroke="#b46c6e" stroke-width="1.51"/><path d="M1217,36L1208,-42L1128,-19Z" fill="#b36a6f" stroke="#b36a6f" stroke-width="1.51"/><path d="M319,-121L246,-98L309,-44Z" fill="#893d88" stroke="#893d88" stroke-width="1.51"/><path d="M-26,398L99,388L72,318Z" fill="#9b4f7e" stroke="#9b4f7e" stroke-width="1.51"/><path d="M1183,-98L1112,-132L1128,-19Z" fill="#ad6474" stroke="#ad6474" stroke-width="1.51"/><path d="M1013,-103L1112,-132L952,-98Z" fill="#a75d77" stroke="#a75d77" stroke-width="1.51"/><path d="M139,83L48,163L152,133Z" fill="#8f4385" stroke="#8f4385" stroke-width="1.51"/><path d="M52,260L-7,318L72,318Z" fill="#964b81" stroke="#964b81" stroke-width="1.51"/><path d="M76,33L48,163L139,83Z" fill="#8c4087" stroke="#8c4087" stroke-width="1.51"/><path d="M48,163L11,256L52,260Z" fill="#924683" stroke="#924683" stroke-width="1.51"/><path d="M1368,759L1372,686L1277,748Z" fill="#dca147" stroke="#dca147" stroke-width="1.51"/><path d="M1443,226L1385,211L1371,338Z" fill="#c8855e" stroke="#c8855e" stroke-width="1.51"/><path d="M11,256L-7,318L52,260Z" fill="#944982" stroke="#944982" stroke-width="1.51"/><path d="M1385,211L1367,170L1270,230Z" fill="#c37f62" stroke="#c37f62" stroke-width="1.51"/><path d="M1275,81L1292,-39L1217,36Z" fill="#b7706c" stroke="#b7706c" stroke-width="1.51"/><path d="M1371,338L1385,211L1284,310Z" fill="#c7855e" stroke="#c7855e" stroke-width="1.51"/><path d="M1429,470L1350,498L1468,566Z" fill="#d59651" stroke="#d59651" stroke-width="1.51"/><path d="M1208,-42L1183,-98L1128,-19Z" fill="#b06771" stroke="#b06771" stroke-width="1.51"/><path d="M1295,-121L1183,-98L1208,-42Z" fill="#b06871" stroke="#b06871" stroke-width="1.51"/><path d="M59,659L58,774L173,765Z" fill="#b26970" stroke="#b26970" stroke-width="1.51"/><path d="M4,771L58,774L59,659Z" fill="#af6772" stroke="#af6772" stroke-width="1.51"/><path d="M140,945L222,912L150,866Z" fill="#bd7867" stroke="#bd7867" stroke-width="1.51"/><path d="M140,945L262,1017L222,912Z" fill="#c17c64" stroke="#c17c64" stroke-width="1.51"/><path d="M359,1014L262,1017L430,1033Z" fill="#c9875d" stroke="#c9875d" stroke-width="1.51"/><path d="M-7,318L-26,398L72,318Z" fill="#994c80" stroke="#994c80" stroke-width="1.51"/><path d="M-1,490L-32,586L72,585Z" fill="#a55a78" stroke="#a55a78" stroke-width="1.51"/><path d="M1468,566L1350,498L1368,595Z" fill="#d59850" stroke="#d59850" stroke-width="1.51"/><path d="M246,-98L142,-34L269,-1Z" fill="#893d88" stroke="#893d88" stroke-width="1.51"/><path d="M1372,686L1440,668L1368,595Z" fill="#da9e4a" stroke="#da9e4a" stroke-width="1.51"/><path d="M1362,833L1368,759L1277,748Z" fill="#dfa444" stroke="#dfa444" stroke-width="1.51"/><path d="M1362,833L1277,748L1270,831Z" fill="#dfa444" stroke="#dfa444" stroke-width="1.51"/><path d="M1195,925L1290,911L1210,848Z" fill="#e0a741" stroke="#e0a741" stroke-width="1.51"/><path d="M1107,999L1197,988L1105,922Z" fill="#e1a841" stroke="#e1a841" stroke-width="1.51"/><path d="M1303,1002L1197,988L1357,1026Z" fill="#e7b036" stroke="#e7b036" stroke-width="1.51"/><path d="M142,-34L76,33L139,83Z" fill="#893d88" stroke="#893d88" stroke-width="1.51"/><path d="M-117,241L-7,318L11,256Z" fill="#924583" stroke="#924583" stroke-width="1.51"/><path d="M-85,496L-32,586L-1,490Z" fill="#a1557b" stroke="#a1557b" stroke-width="1.51"/><path d="M58,774L55,823L173,765Z" fill="#b46d6e" stroke="#b46d6e" stroke-width="1.51"/><path d="M4,771L55,823L58,774Z" fill="#b26a6f" stroke="#b26a6f" stroke-width="1.51"/><path d="M89,914L140,945L150,866Z" fill="#bc7668" stroke="#bc7668" stroke-width="1.51"/><path d="M1197,988L1290,911L1195,925Z" fill="#e2aa3f" stroke="#e2aa3f" stroke-width="1.51"/><path d="M1369,49L1299,147L1367,170Z" fill="#bf7a66" stroke="#bf7a66" stroke-width="1.51"/><path d="M1346,-28L1292,-39L1275,81Z" fill="#b8716b" stroke="#b8716b" stroke-width="1.51"/><path d="M-32,586L-38,642L59,659Z" fill="#a85e77" stroke="#a85e77" stroke-width="1.51"/><path d="M-96,683L-38,642L-118,607Z" fill="#a65b78" stroke="#a65b78" stroke-width="1.51"/><path d="M1290,911L1362,833L1270,831Z" fill="#e1a840" stroke="#e1a840" stroke-width="1.51"/><path d="M1434,775L1440,668L1372,686Z" fill="#dea346" stroke="#dea346" stroke-width="1.51"/><path d="M1385,211L1451,144L1367,170Z" fill="#c48062" stroke="#c48062" stroke-width="1.51"/><path d="M1482,400L1371,338L1364,434Z" fill="#ce8e58" stroke="#ce8e58" stroke-width="1.51"/><path d="M1482,400L1364,434L1429,470Z" fill="#d19255" stroke="#d19255" stroke-width="1.51"/><path d="M55,823L89,914L150,866Z" fill="#b9726b" stroke="#b9726b" stroke-width="1.51"/><path d="M-38,642L4,771L59,659Z" fill="#ac6374" stroke="#ac6374" stroke-width="1.51"/><path d="M142,-34L86,-30L76,33Z" fill="#863a89" stroke="#863a89" stroke-width="1.51"/><path d="M-42,123L11,256L48,163Z" fill="#8e4286" stroke="#8e4286" stroke-width="1.51"/><path d="M-83,344L-26,398L-7,318Z" fill="#974b81" stroke="#974b81" stroke-width="1.51"/><path d="M68,-109L86,-30L142,-34Z" fill="#82368b" stroke="#82368b" stroke-width="1.51"/><path d="M1464,334L1443,226L1371,338Z" fill="#cb895c" stroke="#cb895c" stroke-width="1.51"/><path d="M1451,144L1369,49L1367,170Z" fill="#c17c64" stroke="#c17c64" stroke-width="1.51"/><path d="M-20,912L89,914L55,823Z" fill="#b8706c" stroke="#b8706c" stroke-width="1.51"/><path d="M1434,775L1372,686L1368,759Z" fill="#dea444" stroke="#dea444" stroke-width="1.51"/><path d="M1440,668L1468,566L1368,595Z" fill="#d99d4b" stroke="#d99d4b" stroke-width="1.51"/><path d="M1533,512L1482,400L1429,470Z" fill="#d49651" stroke="#d49651" stroke-width="1.51"/><path d="M1544,223L1451,144L1443,226Z" fill="#c8855e" stroke="#c8855e" stroke-width="1.51"/><path d="M-83,344L-7,318L-117,241Z" fill="#924683" stroke="#924683" stroke-width="1.51"/><path d="M-128,380L-85,496L-26,398Z" fill="#994e7f" stroke="#994e7f" stroke-width="1.51"/><path d="M-26,398L-85,496L-1,490Z" fill="#9d517d" stroke="#9d517d" stroke-width="1.51"/><path d="M-7,58L48,163L76,33Z" fill="#893d88" stroke="#893d88" stroke-width="1.51"/><path d="M1369,49L1346,-28L1275,81Z" fill="#ba746a" stroke="#ba746a" stroke-width="1.51"/><path d="M1292,-39L1295,-121L1208,-42Z" fill="#b36a6f" stroke="#b36a6f" stroke-width="1.51"/><path d="M1183,-98L1295,-121L1112,-132Z" fill="#ad6473" stroke="#ad6473" stroke-width="1.51"/><path d="M1430,-31L1346,-28L1369,49Z" fill="#ba746a" stroke="#ba746a" stroke-width="1.51"/><path d="M246,-98L142,-135L142,-34Z" fill="#83388a" stroke="#83388a" stroke-width="1.51"/><path d="M319,-121L142,-135L246,-98Z" fill="#85398a" stroke="#85398a" stroke-width="1.51"/><path d="M417,-135L142,-135L319,-121Z" fill="#863a89" stroke="#863a89" stroke-width="1.51"/><path d="M-35,-3L-7,58L76,33Z" fill="#84388a" stroke="#84388a" stroke-width="1.51"/><path d="M-35,-3L76,33L86,-30Z" fill="#84388a" stroke="#84388a" stroke-width="1.51"/><path d="M140,945L139,1015L262,1017Z" fill="#c27e64" stroke="#c27e64" stroke-width="1.51"/><path d="M262,1017L51,1028L430,1033Z" fill="#c68360" stroke="#c68360" stroke-width="1.51"/><path d="M51,1028L139,1015L140,945Z" fill="#c07a65" stroke="#c07a65" stroke-width="1.51"/><path d="M51,1028L140,945L89,914Z" fill="#be7867" stroke="#be7867" stroke-width="1.51"/><path d="M1443,226L1451,144L1385,211Z" fill="#c68260" stroke="#c68260" stroke-width="1.51"/><path d="M1533,297L1443,226L1464,334Z" fill="#cc8a5a" stroke="#cc8a5a" stroke-width="1.51"/><path d="M-7,58L-42,123L48,163Z" fill="#893d88" stroke="#893d88" stroke-width="1.51"/><path d="M1454,828L1434,775L1362,833Z" fill="#e3aa3e" stroke="#e3aa3e" stroke-width="1.51"/><path d="M1362,833L1434,775L1368,759Z" fill="#e0a741" stroke="#e0a741" stroke-width="1.51"/><path d="M1565,664L1517,556L1468,566Z" fill="#dca148" stroke="#dca148" stroke-width="1.51"/><path d="M4,771L-14,824L55,823Z" fill="#b26a6f" stroke="#b26a6f" stroke-width="1.51"/><path d="M-82,760L-14,824L4,771Z" fill="#af6771" stroke="#af6771" stroke-width="1.51"/><path d="M-82,760L4,771L-38,642Z" fill="#ac6274" stroke="#ac6274" stroke-width="1.51"/><path d="M1346,-28L1295,-121L1292,-39Z" fill="#b46d6e" stroke="#b46d6e" stroke-width="1.51"/><path d="M1345,-132L1295,-121L1346,-28Z" fill="#b36b6f" stroke="#b36b6f" stroke-width="1.51"/><path d="M1565,664L1468,566L1440,668Z" fill="#dca147" stroke="#dca147" stroke-width="1.51"/><path d="M1468,566L1533,512L1429,470Z" fill="#d6994e" stroke="#d6994e" stroke-width="1.51"/><path d="M1482,400L1533,297L1464,334Z" fill="#cf8f57" stroke="#cf8f57" stroke-width="1.51"/><path d="M1290,911L1394,946L1362,833Z" fill="#e4ad3c" stroke="#e4ad3c" stroke-width="1.51"/><path d="M1197,988L1303,1002L1290,911Z" fill="#e4ad3a" stroke="#e4ad3a" stroke-width="1.51"/><path d="M1357,1026L1197,988L1107,999Z" fill="#e5ad3a" stroke="#e5ad3a" stroke-width="1.51"/><path d="M1357,1026L1107,999L1011,1012Z" fill="#e3ab3c" stroke="#e3ab3c" stroke-width="1.51"/><path d="M-83,344L-128,380L-26,398Z" fill="#964a81" stroke="#964a81" stroke-width="1.51"/><path d="M-118,607L-38,642L-32,586Z" fill="#a55a79" stroke="#a55a79" stroke-width="1.51"/><path d="M-117,241L-128,380L-83,344Z" fill="#924684" stroke="#924684" stroke-width="1.51"/><path d="M-118,607L-32,586L-85,496Z" fill="#a1567b" stroke="#a1567b" stroke-width="1.51"/><path d="M-128,380L-118,607L-85,496Z" fill="#9c517e" stroke="#9c517e" stroke-width="1.51"/><path d="M1517,556L1533,512L1468,566Z" fill="#d99d4b" stroke="#d99d4b" stroke-width="1.51"/><path d="M142,-135L68,-109L142,-34Z" fill="#81358c" stroke="#81358c" stroke-width="1.51"/><path d="M-125,130L-117,241L-42,123Z" fill="#883c88" stroke="#883c88" stroke-width="1.51"/><path d="M-118,76L-42,123L-7,58Z" fill="#85398a" stroke="#85398a" stroke-width="1.51"/><path d="M-42,123L-117,241L11,256Z" fill="#8d4186" stroke="#8d4186" stroke-width="1.51"/><path d="M1533,512L1544,411L1482,400Z" fill="#d59751" stroke="#d59751" stroke-width="1.51"/><path d="M1544,411L1533,297L1482,400Z" fill="#d19254" stroke="#d19254" stroke-width="1.51"/><path d="M-14,824L-20,912L55,823Z" fill="#b46d6e" stroke="#b46d6e" stroke-width="1.51"/><path d="M-96,683L-82,760L-38,642Z" fill="#a95f76" stroke="#a95f76" stroke-width="1.51"/><path d="M-88,857L-82,760L-119,920Z" fill="#b06871" stroke="#b06871" stroke-width="1.51"/><path d="M1517,556L1565,664L1533,512Z" fill="#dba048" stroke="#dba048" stroke-width="1.51"/><path d="M1546,769L1565,664L1440,668Z" fill="#e0a741" stroke="#e0a741" stroke-width="1.51"/><path d="M1394,946L1454,828L1362,833Z" fill="#e5ad3a" stroke="#e5ad3a" stroke-width="1.51"/><path d="M13,-119L-35,-3L86,-30Z" fill="#7f338d" stroke="#7f338d" stroke-width="1.51"/><path d="M1303,1002L1394,946L1290,911Z" fill="#e6af38" stroke="#e6af38" stroke-width="1.51"/><path d="M1295,-121L1345,-132L1112,-132Z" fill="#ae6672" stroke="#ae6672" stroke-width="1.51"/><path d="M1112,-132L1433,-135L417,-135Z" fill="#a45a79" stroke="#a45a79" stroke-width="1.51"/><path d="M1430,-31L1345,-132L1346,-28Z" fill="#b76f6c" stroke="#b76f6c" stroke-width="1.51"/><path d="M1481,66L1369,49L1451,144Z" fill="#c07b65" stroke="#c07b65" stroke-width="1.51"/><path d="M-88,857L-20,912L-14,824Z" fill="#b36b6f" stroke="#b36b6f" stroke-width="1.51"/><path d="M1545,72L1481,66L1451,144Z" fill="#c37e62" stroke="#c37e62" stroke-width="1.51"/><path d="M1481,66L1430,-31L1369,49Z" fill="#bd7867" stroke="#bd7867" stroke-width="1.51"/><path d="M1544,411L1544,223L1533,297Z" fill="#cf8f57" stroke="#cf8f57" stroke-width="1.51"/><path d="M1533,297L1544,223L1443,226Z" fill="#cb895b" stroke="#cb895b" stroke-width="1.51"/><path d="M-20,912L51,1028L89,914Z" fill="#bb7569" stroke="#bb7569" stroke-width="1.51"/><path d="M139,1015L51,1028L262,1017Z" fill="#c27e63" stroke="#c27e63" stroke-width="1.51"/><path d="M-118,76L-125,130L-42,123Z" fill="#84388a" stroke="#84388a" stroke-width="1.51"/><path d="M-117,241L-125,130L-128,380Z" fill="#8c4086" stroke="#8c4086" stroke-width="1.51"/><path d="M1303,1002L1357,1026L1394,946Z" fill="#e9b333" stroke="#e9b333" stroke-width="1.51"/><path d="M1546,769L1434,775L1454,828Z" fill="#e4ab3c" stroke="#e4ab3c" stroke-width="1.51"/><path d="M430,1033L1357,1026L1011,1012Z" fill="#dda246" stroke="#dda246" stroke-width="1.51"/><path d="M-35,-3L-118,76L-7,58Z" fill="#82368b" stroke="#82368b" stroke-width="1.51"/><path d="M68,-109L13,-119L86,-30Z" fill="#7e338d" stroke="#7e338d" stroke-width="1.51"/><path d="M142,-135L13,-119L68,-109Z" fill="#7c318e" stroke="#7c318e" stroke-width="1.51"/><path d="M-20,912L-19,1024L51,1028Z" fill="#bb7569" stroke="#bb7569" stroke-width="1.51"/><path d="M-82,760L-88,857L-14,824Z" fill="#b06771" stroke="#b06771" stroke-width="1.51"/><path d="M-119,920L-82,760L-96,683Z" fill="#ad6473" stroke="#ad6473" stroke-width="1.51"/><path d="M1544,223L1551,168L1451,144Z" fill="#c8855e" stroke="#c8855e" stroke-width="1.51"/><path d="M1481,66L1541,-53L1430,-31Z" fill="#be7867" stroke="#be7867" stroke-width="1.51"/><path d="M1544,411L1551,168L1544,223Z" fill="#cd8c59" stroke="#cd8c59" stroke-width="1.51"/><path d="M1546,769L1440,668L1434,775Z" fill="#e1a841" stroke="#e1a841" stroke-width="1.51"/><path d="M1533,512L1565,664L1544,411Z" fill="#da9e4b" stroke="#da9e4b" stroke-width="1.51"/><path d="M1544,411L1565,664L1551,168Z" fill="#d49651" stroke="#d49651" stroke-width="1.51"/><path d="M1442,944L1454,828L1394,946Z" fill="#e7b136" stroke="#e7b136" stroke-width="1.51"/><path d="M-87,-9L-118,76L-35,-3Z" fill="#7f338c" stroke="#7f338c" stroke-width="1.51"/><path d="M1475,990L1442,944L1394,946Z" fill="#e9b431" stroke="#e9b431" stroke-width="1.51"/><path d="M-98,-118L-87,-9L-35,-3Z" fill="#7b2f8e" stroke="#7b2f8e" stroke-width="1.51"/><path d="M1552,811L1546,769L1454,828Z" fill="#e5ae3a" stroke="#e5ae3a" stroke-width="1.51"/><path d="M1551,168L1545,72L1451,144Z" fill="#c68260" stroke="#c68260" stroke-width="1.51"/><path d="M1430,-31L1433,-135L1345,-132Z" fill="#b66e6d" stroke="#b66e6d" stroke-width="1.51"/><path d="M-107,985L-19,1024L-20,912Z" fill="#b9726b" stroke="#b9726b" stroke-width="1.51"/><path d="M1546,769L1552,811L1565,664Z" fill="#e4ac3b" stroke="#e4ac3b" stroke-width="1.51"/><path d="M1555,897L1552,811L1454,828Z" fill="#e7b135" stroke="#e7b135" stroke-width="1.51"/><path d="M1524,-124L1433,-135L1430,-31Z" fill="#b8716b" stroke="#b8716b" stroke-width="1.51"/><path d="M1345,-132L1433,-135L1112,-132Z" fill="#b06771" stroke="#b06771" stroke-width="1.51"/><path d="M-88,857L-119,920L-20,912Z" fill="#b46c6e" stroke="#b46c6e" stroke-width="1.51"/><path d="M-118,607L-119,920L-96,683Z" fill="#aa6076" stroke="#aa6076" stroke-width="1.51"/><path d="M-128,380L-119,920L-118,607Z" fill="#a45979" stroke="#a45979" stroke-width="1.51"/><path d="M1442,944L1555,897L1454,828Z" fill="#e8b234" stroke="#e8b234" stroke-width="1.51"/><path d="M1357,1026L1475,990L1394,946Z" fill="#eab530" stroke="#eab530" stroke-width="1.51"/><path d="M1552,811L1555,897L1565,664Z" fill="#e6af38" stroke="#e6af38" stroke-width="1.51"/><path d="M1475,990L1555,897L1442,944Z" fill="#eab62e" stroke="#eab62e" stroke-width="1.51"/><path d="M13,-119L-98,-118L-35,-3Z" fill="#7a2e8e" stroke="#7a2e8e" stroke-width="1.51"/><path d="M-87,-9L-98,-118L-118,76Z" fill="#7b308e" stroke="#7b308e" stroke-width="1.51"/><path d="M-118,76L-98,-118L-125,130Z" fill="#7e328d" stroke="#7e328d" stroke-width="1.51"/><path d="M142,-135L-98,-118L13,-119Z" fill="#792e8f" stroke="#792e8f" stroke-width="1.51"/><path d="M1551,168L1541,-53L1545,72Z" fill="#c37f62" stroke="#c37f62" stroke-width="1.51"/><path d="M1545,72L1541,-53L1481,66Z" fill="#c17c65" stroke="#c17c65" stroke-width="1.51"/><path d="M-119,920L-107,985L-20,912Z" fill="#b66e6d" stroke="#b66e6d" stroke-width="1.51"/><path d="M1541,-53L1524,-124L1430,-31Z" fill="#bb7569" stroke="#bb7569" stroke-width="1.51"/><path d="M1475,990L1559,987L1555,897Z" fill="#edb92a" stroke="#edb92a" stroke-width="1.51"/><path d="M1555,897L1559,987L1565,664Z" fill="#e9b333" stroke="#e9b333" stroke-width="1.51"/><path d="M1357,1026L1559,987L1475,990Z" fill="#ecb92a" stroke="#ecb92a" stroke-width="1.51"/></svg>