<svg height="1800" width="2400" xmlns="http://www.w3.org/2000/svg"><g stroke-width="1.51"><path d="m1259 905 60-179-159 124z" fill="#59057f" stroke="#59057f"/><path d="m1319 726-189-24 30 148z" fill="#570380" stroke="#570380"/><path d="m1259 905 203-24-143-155z" fill="#60107d" stroke="#60107d"/><path d="m1462 881 71-142-214-13z" fill="#67187c" stroke="#67187c"/><path d="m1319 726-5-210-184 186z" fill="#5c0a80" stroke="#5c0a80"/><path d="m1443 509-129 7 5 210z" fill="#63157f" stroke="#63157f"/><path d="m1259 905 188 159 15-183z" fill="#67187b" stroke="#67187b"/><path d="m1139 1122 135-14-15-203z" fill="#64147c" stroke="#64147c"/><path d="m1274 1108 173-44-188-159z" fill="#691a7b" stroke="#691a7b"/><path d="m1662 900-9-188-120 27z" fill="#732579" stroke="#732579"/><path d="m1160 850-21 272 120-217z" fill="#5b077e" stroke="#5b077e"/><path d="m906 1086 233 36 21-272z" fill="#61107e" stroke="#61107e"/><path d="m1533 739-90-230-124 217z" fill="#681a7d" stroke="#681a7d"/><path d="m1314 516-157-52-27 238z" fill="#590681" stroke="#590681"/><path d="m1315 348-158 116 157 52z" fill="#5e0f81" stroke="#5e0f81"/><path d="m1130 702-214-11 244 159z" fill="#580481" stroke="#580481"/><path d="m1157 464-241 227 214 11z" fill="#590682" stroke="#590682"/><path d="m916 691-46 225 290-66z" fill="#580481" stroke="#580481"/><path d="m1533 739 120-27-210-203z" fill="#6f227b" stroke="#6f227b"/><path d="m1662 900-129-161-71 142z" fill="#6e207a" stroke="#6e207a"/><path d="m1447 1064 215-164-200-19z" fill="#6f2179" stroke="#6f2179"/><path d="m870 916 36 170 254-236z" fill="#5c0a7f" stroke="#5c0a7f"/><path d="m1443 509-128-161-1 168z" fill="#651680" stroke="#651680"/><path d="m1542 353-227-5 128 161z" fill="#6b1d7f" stroke="#6b1d7f"/><path d="m1274 1108 52 161 121-205z" fill="#742678" stroke="#742678"/><path d="m1447 1064 246 39-31-203z" fill="#7a2d76" stroke="#7a2d76"/><path d="m1139 1122 187 147-52-161z" fill="#6f2179" stroke="#6f2179"/><path d="m1081 1294 245-25-187-147z" fill="#712378" stroke="#712378"/><path d="m916 691-145 8 99 217z" fill="#5a0782" stroke="#5a0782"/><path d="m870 916-141 196 177-26z" fill="#65157f" stroke="#65157f"/><path d="m856 490-85 209 145-8z" fill="#5b0983" stroke="#5b0983"/><path d="m856 490 60 201 241-227z" fill="#5b0983" stroke="#5b0983"/><path d="m1060 270-204 220 301-26z" fill="#5c0b84" stroke="#5c0b84"/><path d="m928 1264 153 30 58-172z" fill="#722479" stroke="#722479"/><path d="m1523 1266 170-163-246-39z" fill="#803374" stroke="#803374"/><path d="m1822 665-90-105-79 152z" fill="#7b2e78" stroke="#7b2e78"/><path d="m1732 560-190-207-99 156z" fill="#73257c" stroke="#73257c"/><path d="m1452 1519 71-253-197 3z" fill="#873b71" stroke="#873b71"/><path d="m1326 1269 197-3-76-202z" fill="#7c3075" stroke="#7c3075"/><path d="m1653 712 79-152-289-51z" fill="#74277b" stroke="#74277b"/><path d="m1822 665-169 47 187 154z" fill="#7c2f76" stroke="#7c2f76"/><path d="m763 1241 165 23-22-178z" fill="#71237b" stroke="#71237b"/><path d="m906 1086 22 178 211-142z" fill="#6c1f7b" stroke="#6c1f7b"/><path d="m1315 348-255-78 97 194z" fill="#5b0a83" stroke="#5b0a83"/><path d="m1081 138-21 132 228-177z" fill="#5d0e85" stroke="#5d0e85"/><path d="m856 490-105 31 20 178z" fill="#5c0c84" stroke="#5c0c84"/><path d="m868 321-117 200 105-31z" fill="#5d0e85" stroke="#5d0e85"/><path d="m771 699-92 216 191 1z" fill="#590782" stroke="#590782"/><path d="m527 667 152 248 92-216z" fill="#5b0a83" stroke="#5b0a83"/><path d="m1840 866-187-154 9 188z" fill="#782b77" stroke="#782b77"/><path d="m1693 1103 147-237-178 34z" fill="#7d2f75" stroke="#7d2f75"/><path d="m679 915 50 197 141-196z" fill="#601080" stroke="#601080"/><path d="m1060 270-192 51-12 169z" fill="#5d0d85" stroke="#5d0d85"/><path d="m1149 1425 100 4-168-135z" fill="#7d2f75" stroke="#7d2f75"/><path d="m1081 1294 168 135 77-160z" fill="#7a2c76" stroke="#7a2c76"/><path d="m945 1466 204-41-68-131z" fill="#7e3176" stroke="#7e3176"/><path d="m729 1112 34 129 143-155z" fill="#6e207d" stroke="#6e207d"/><path d="m928 1264 17 202 136-172z" fill="#7b2e77" stroke="#7b2e77"/><path d="m1693 1103 181-18-34-219z" fill="#853872" stroke="#853872"/><path d="m1523 1266 211-19-41-144z" fill="#893d71" stroke="#893d71"/><path d="m1697 1490 37-243-211 19z" fill="#92476e" stroke="#92476e"/><path d="m1822 665 26-136-116 31z" fill="#7f3377" stroke="#7f3377"/><path d="m1732 560-91-287-99 80z" fill="#782a7c" stroke="#782a7c"/><path d="m2049 755-201-226-26 136z" fill="#853875" stroke="#853875"/><path d="m1525 122-237-29 27 255z" fill="#681b81" stroke="#681b81"/><path d="m1843 343-202-70 91 287z" fill="#7e317a" stroke="#7e317a"/><path d="m1734 1247 140-162-181 18z" fill="#8b4070" stroke="#8b4070"/><path d="m1840 866 209-111-227-90z" fill="#843774" stroke="#843774"/><path d="m1060 270-164-195-28 246z" fill="#5e0f86" stroke="#5e0f86"/><path d="m1288 93-228 177 255 78z" fill="#5d0e84" stroke="#5d0e84"/><path d="m1525 122-210 226 227 5z" fill="#6e2080" stroke="#6e2080"/><path d="m751 521-167 4 187 174z" fill="#5c0d84" stroke="#5c0d84"/><path d="m664 309-80 216 167-4z" fill="#5e0f86" stroke="#5e0f86"/><path d="m664 309 87 212 117-200z" fill="#5e0f86" stroke="#5e0f86"/><path d="m763 1241 182 225-17-202z" fill="#7a2d78" stroke="#7a2d78"/><path d="m1273 1656 179-137-203-90z" fill="#8e426f" stroke="#8e426f"/><path d="m1641 273-116-151 17 231z" fill="#75287e" stroke="#75287e"/><path d="m1704 78-179 44 116 151z" fill="#792c7e" stroke="#792c7e"/><path d="m763 1241-60 214 242 11z" fill="#7f3377" stroke="#7f3377"/><path d="m729 1112-186 181 220-52z" fill="#74277c" stroke="#74277c"/><path d="m679 915-114 151 164 46z" fill="#651680" stroke="#651680"/><path d="m517 891 48 175 114-151z" fill="#5f1082" stroke="#5f1082"/><path d="m584 525-57 142 244 32z" fill="#5c0d84" stroke="#5c0d84"/><path d="m527 667-10 224 162 24z" fill="#5b0a83" stroke="#5b0a83"/><path d="m1249 1429 203 90-126-250z" fill="#863972" stroke="#863972"/><path d="m1273 1656-24-227-100-4z" fill="#863a71" stroke="#863a71"/><path d="m1734 1247 126-8 14-154z" fill="#91466e" stroke="#91466e"/><path d="m1882 1423-22-184-126 8z" fill="#994f6b" stroke="#994f6b"/><path d="m1848 529-5-186-111 217z" fill="#813478" stroke="#813478"/><path d="m2016 339-173 4 5 186z" fill="#873b77" stroke="#873b77"/><path d="m584 525-196-31 139 173z" fill="#5e1086" stroke="#5e1086"/><path d="m749 127-85 182 204 12z" fill="#5f1187" stroke="#5f1187"/><path d="m2118 919-69-164-209 111z" fill="#893c71" stroke="#893c71"/><path d="m2062 1045-222-179 34 219z" fill="#8a3e70" stroke="#8a3e70"/><path d="m1081 138-185-63 164 195z" fill="#5e1086" stroke="#5e1086"/><path d="m920-62-24 137 185 63z" fill="#601287" stroke="#601287"/><path d="m1452 1519 245-29-174-224z" fill="#92476d" stroke="#92476d"/><path d="m1288 93-28-119-179 164z" fill="#5e0f85" stroke="#5e0f85"/><path d="m1469-19-209-7 28 119z" fill="#681a83" stroke="#681a83"/><path d="m896 75-147 52 119 194z" fill="#601187" stroke="#601187"/><path d="m2117 1307-55-262-202 194z" fill="#9c5269" stroke="#9c5269"/><path d="m1860 1239 202-194-188 40z" fill="#93476d" stroke="#93476d"/><path d="m1525 122-56-141-181 112z" fill="#6e2081" stroke="#6e2081"/><path d="m1700-27-231 8 56 141z" fill="#772a80" stroke="#772a80"/><path d="m1115 1671 158-15-124-231z" fill="#8a3e70" stroke="#8a3e70"/><path d="m543 1293 160 162 60-214z" fill="#7d307a" stroke="#7d307a"/><path d="m1115 1671 34-246-204 41z" fill="#873a73" stroke="#873a73"/><path d="m1452 1519 28 185 217-214z" fill="#9b5169" stroke="#9b5169"/><path d="m1838 109-134-31-63 195z" fill="#7f337c" stroke="#7f337c"/><path d="m565 1066-22 227 186-181z" fill="#70227e" stroke="#70227e"/><path d="m374 1126 169 167 22-227z" fill="#71247e" stroke="#71247e"/><path d="m664 309-109-19 29 235z" fill="#601287" stroke="#601287"/><path d="m507 185 48 105 109 19z" fill="#611388" stroke="#611388"/><path d="m2062 1045 56-126-278-53z" fill="#8b3f70" stroke="#8b3f70"/><path d="m915 1628 200 43-170-205z" fill="#8c4072" stroke="#8c4072"/><path d="m1697 1490 185-67-148-176z" fill="#9c516a" stroke="#9c516a"/><path d="m1815 1627 67-204-185 67z" fill="#a55c66" stroke="#a55c66"/><path d="m763 1630 152-2 30-162z" fill="#8c4072" stroke="#8c4072"/><path d="m2119 474-271 55 201 226z" fill="#8b3f73" stroke="#8b3f73"/><path d="m2119 474-103-135-168 190z" fill="#8c4075" stroke="#8c4075"/><path d="m1843 343-5-234-197 164z" fill="#81357b" stroke="#81357b"/><path d="m1260-26-131-58-48 222z" fill="#5f1086" stroke="#5f1086"/><path d="m896 75-164-166 17 218z" fill="#611488" stroke="#611488"/><path d="m1114-256 15 172 130-192z" fill="#611388" stroke="#611388"/><path d="m2015 118-177-9 5 234z" fill="#893c78" stroke="#893c78"/><path d="m1704 78-4-105-175 149z" fill="#7b2f7e" stroke="#7b2f7e"/><path d="m527 667-219 93 209 131z" fill="#5d0d85" stroke="#5d0d85"/><path d="m517 891-143 235 191-60z" fill="#661881" stroke="#661881"/><path d="m388 351v143l196 31z" fill="#601287" stroke="#601287"/><path d="m749 127-242 58 157 124z" fill="#611488" stroke="#611488"/><path d="m1129-84-209 22 161 200z" fill="#601287" stroke="#601287"/><path d="m2231 528-112-54-70 281z" fill="#924771" stroke="#924771"/><path d="m1273 1656 207 48-28-185z" fill="#974d6b" stroke="#974d6b"/><path d="m1279 1873 201-169-207-48z" fill="#9c5269" stroke="#9c5269"/><path d="m537 1503 226 127-60-175z" fill="#8b3e75" stroke="#8b3e75"/><path d="m306 955 68 171 143-235z" fill="#641582" stroke="#641582"/><path d="m1838 109-138-136 4 105z" fill="#81357c" stroke="#81357c"/><path d="m1114-256-167 48 182 124z" fill="#611488" stroke="#611488"/><path d="m388 494-80 266 219-93z" fill="#5e1086" stroke="#5e1086"/><path d="m308 760-2 195 211-64z" fill="#5c0c84" stroke="#5c0c84"/><path d="m703 1455 60 175 182-164z" fill="#893c74" stroke="#893c74"/><path d="m1083 1887 196-14-164-202z" fill="#994f6b" stroke="#994f6b"/><path d="m537 1503 166-48-160-162z" fill="#833778" stroke="#833778"/><path d="m555 290-167 61 196 174z" fill="#601287" stroke="#601287"/><path d="m491-76 16 261 242-58z" fill="#621689" stroke="#621689"/><path d="m507 185-119 166 167-61z" fill="#621488" stroke="#621488"/><path d="m388 494-201 46 121 220z" fill="#601287" stroke="#601287"/><path d="m2118 919 108-12-177-152z" fill="#90446f" stroke="#90446f"/><path d="m2241 1072-15-165-108 12z" fill="#974c6b" stroke="#974c6b"/><path d="m2241 1072-123-153-56 126z" fill="#974c6b" stroke="#974c6b"/><path d="m1882 1423 235-116-257-68z" fill="#a15867" stroke="#a15867"/><path d="m1480 1704 245-30-28-184z" fill="#a35a66" stroke="#a35a66"/><path d="m1725 1674 90-47-118-137z" fill="#a75f64" stroke="#a75f64"/><path d="m362 1444 175 59 6-210z" fill="#843879" stroke="#843879"/><path d="m2103 1485 14-178-235 116z" fill="#aa6163" stroke="#aa6163"/><path d="m2226 907 29-212-206 60z" fill="#92476f" stroke="#92476f"/><path d="m2241 132-226-14 1 221z" fill="#934875" stroke="#934875"/><path d="m2016 339-1-221-172 225z" fill="#8b3f77" stroke="#8b3f77"/><path d="m2255 695-24-167-182 227z" fill="#944870" stroke="#944870"/><path d="m2117 1307 124-235-179-27z" fill="#9f5568" stroke="#9f5568"/><path d="m2226 907 198-182-169-30z" fill="#994f6c" stroke="#994f6c"/><path d="m1838 109 31-150-169 14z" fill="#85387c" stroke="#85387c"/><path d="m2234 376-218-37 103 135z" fill="#934873" stroke="#934873"/><path d="m920-62-188-29 164 166z" fill="#621489" stroke="#621489"/><path d="m748-221-16 130 188 29z" fill="#631689" stroke="#631689"/><path d="m2015 118-146-159-31 150z" fill="#8a3e79" stroke="#8a3e79"/><path d="m1470-235-210 209 209 7z" fill="#6d2083" stroke="#6d2083"/><path d="m1470-235-1 216 177-186z" fill="#762982" stroke="#762982"/><path d="m1129-84-182-124-27 146z" fill="#611488" stroke="#611488"/><path d="m1646-205-177 186 231-8z" fill="#7a2e80" stroke="#7a2e80"/><path d="m1259-276-130 192 131 58z" fill="#611386" stroke="#611386"/><path d="m1115 1671 164 202-6-217z" fill="#954a6c" stroke="#954a6c"/><path d="m1480 1704 172 159 73-189z" fill="#aa6263" stroke="#aa6263"/><path d="m936 1834 179-163-200-43z" fill="#94496e" stroke="#94496e"/><path d="m374 1126-70 177 239-10z" fill="#782b7d" stroke="#782b7d"/><path d="m174 1132 130 171 70-177z" fill="#75287f" stroke="#75287f"/><path d="m2231 528 3-152-115 98z" fill="#974b71" stroke="#974b71"/><path d="m2417 521-183-145-3 152z" fill="#9c516f" stroke="#9c516f"/><path d="m763 1630 173 204-21-206z" fill="#94496f" stroke="#94496f"/><path d="m688 1847 248-13-173-204z" fill="#9a4f6e" stroke="#9a4f6e"/><path d="m1470-235-211-41 1 250z" fill="#691c85" stroke="#691c85"/><path d="m1470-235 403-48-614 7z" fill="#772b83" stroke="#772b83"/><path d="m1869-41-223-164 54 178z" fill="#82367e" stroke="#82367e"/><path d="m1279 1873 238-16-37-153z" fill="#a45c66" stroke="#a45c66"/><path d="m1725 1674 134 171-44-218z" fill="#b06a5f" stroke="#b06a5f"/><path d="m2066 1642 37-157-221-62z" fill="#af6861" stroke="#af6861"/><path d="m2117 1307 166-1-42-234z" fill="#a76064" stroke="#a76064"/><path d="m2066 1642-184-219-67 204z" fill="#ae6661" stroke="#ae6661"/><path d="m308 760-194 187 192 8z" fill="#5d0e85" stroke="#5d0e85"/><path d="m306 955-132 177 200-6z" fill="#6c1e81" stroke="#6c1e81"/><path d="m388 351-201 189 201-46z" fill="#611388" stroke="#611388"/><path d="m152 314 35 226 201-189z" fill="#621589" stroke="#621589"/><path d="m367 84 21 267 119-166z" fill="#631689" stroke="#631689"/><path d="m537 1503 12 213 214-86z" fill="#914573" stroke="#914573"/><path d="m304 1303 58 141 181-151z" fill="#80337a" stroke="#80337a"/><path d="m1661 2060-9-197-135-6z" fill="#b46f5e" stroke="#b46f5e"/><path d="m936 1834 147 53 32-216z" fill="#994f6c" stroke="#994f6c"/><path d="m187 540-43 168 164 52z" fill="#601187" stroke="#601187"/><path d="m114 947 60 185 132-177z" fill="#671a83" stroke="#671a83"/><path d="m144 1472 185 157 33-185z" fill="#8c4078" stroke="#8c4078"/><path d="m1517 1857 135 6-172-159z" fill="#aa6363" stroke="#aa6363"/><path d="m1298 2079 219-222-238 16z" fill="#a96164" stroke="#a96164"/><path d="m491-76-124 160 140 101z" fill="#64178a" stroke="#64178a"/><path d="m491-76 258 203-17-218z" fill="#63168a" stroke="#63168a"/><path d="m947-208-199-13 172 159z" fill="#621689" stroke="#621689"/><path d="m1114-256-366 35 199 13z" fill="#631689" stroke="#631689"/><path d="m486-309 262 88 366-35z" fill="#64188b" stroke="#64188b"/><path d="m144 708-30 239 194-187z" fill="#5e1086" stroke="#5e1086"/><path d="m2277 1497 6-191-166 1z" fill="#b16a60" stroke="#b16a60"/><path d="m2492 935-68-210-198 182z" fill="#9c526a" stroke="#9c526a"/><path d="m936 1834-71 161 218-108z" fill="#a05769" stroke="#a05769"/><path d="m329 1629 220 87-12-213z" fill="#924674" stroke="#924674"/><path d="m748-221-257 145 241-15z" fill="#64188a" stroke="#64188a"/><path d="m2103 1485 174 12-160-190z" fill="#b16b5f" stroke="#b16b5f"/><path d="m1859 1845 207-203-251-15z" fill="#b5705d" stroke="#b5705d"/><path d="m2255 695 162-174-186 7z" fill="#9b506d" stroke="#9b506d"/><path d="m2444 1086-218-179 15 165z" fill="#9f5668" stroke="#9f5668"/><path d="m549 1716 139 131 75-217z" fill="#984d70" stroke="#984d70"/><path d="m1869-41 4-242-227 78z" fill="#873a7d" stroke="#873a7d"/><path d="m2015 118 90-162-236 3z" fill="#904478" stroke="#904478"/><path d="m2234 376 7-244-225 207z" fill="#974b72" stroke="#974b72"/><path d="m2435 283-194-151-7 244z" fill="#9e5470" stroke="#9e5470"/><path d="m2424 725-7-204-162 174z" fill="#9d536b" stroke="#9d536b"/><path d="m2241 132-136-176-90 162z" fill="#974b75" stroke="#974b75"/><path d="m189 126-37 188 236 37z" fill="#64178a" stroke="#64178a"/><path d="m-84 719 26 146 202-157z" fill="#611388" stroke="#611388"/><path d="m144 708-202 157 172 82z" fill="#5f1187" stroke="#5f1187"/><path d="m189 126 199 225-21-267z" fill="#63178a" stroke="#63178a"/><path d="m1652 1863 207-18-134-171z" fill="#b26d5e" stroke="#b26d5e"/><path d="m549 1716 22 99 117 32z" fill="#9c526f" stroke="#9c526f"/><path d="m383 1874 188-59-22-99z" fill="#9e536f" stroke="#9e536f"/><path d="m329 1629 208-126-175-59z" fill="#8c4076" stroke="#8c4076"/><path d="m306-225 80 165 105-16z" fill="#661a8c" stroke="#661a8c"/><path d="m491-76-105 16-19 144z" fill="#64198b" stroke="#64198b"/><path d="m2283 1306 161-220-203-14z" fill="#a86164" stroke="#a86164"/><path d="m2629 710-44-241-168 52z" fill="#a85f68" stroke="#a85f68"/><path d="m2447 1286-3-200-161 220z" fill="#b06a60" stroke="#b06a60"/><path d="m144 1472 218-28-58-141z" fill="#85397a" stroke="#85397a"/><path d="m117 1319 187-16-130-171z" fill="#7a2d7e" stroke="#7a2d7e"/><path d="m2244 1617 33-120-174-12z" fill="#b9755b" stroke="#b9755b"/><path d="m2244 1617-141-132-37 157z" fill="#b9745b" stroke="#b9745b"/><path d="m-82 1253 199 66 57-187z" fill="#7a2d80" stroke="#7a2d80"/><path d="m2444 1086 48-151-266-28z" fill="#a15867" stroke="#a15867"/><path d="m2045-239-172-44-4 242z" fill="#8f427a" stroke="#8f427a"/><path d="m1646-205 227-78-403 48z" fill="#803380" stroke="#803380"/><path d="m707 2036 158-41-177-148z" fill="#a55d6a" stroke="#a55d6a"/><path d="m688 1847 177 148 71-161z" fill="#a1576b" stroke="#a1576b"/><path d="m1083 1887 36 174 160-188z" fill="#a15868" stroke="#a15868"/><path d="m1652 1863 9 197 198-215z" fill="#b9755a" stroke="#b9755a"/><path d="m386-60-197 186 178-42z" fill="#64198b" stroke="#64198b"/><path d="m865 1995 254 66-36-174z" fill="#a55c67" stroke="#a55c67"/><path d="m1119 2061 179 18-19-206z" fill="#a65e65" stroke="#a65e65"/><path d="m2222 1837 22-220-178 25z" fill="#c18056" stroke="#c18056"/><path d="m2446 1425 1-139-164 20z" fill="#b7725c" stroke="#b7725c"/><path d="m2444 1086 160-41-112-110z" fill="#aa6263" stroke="#aa6263"/><path d="m2446 1425-163-119-6 191z" fill="#b8745b" stroke="#b8745b"/><path d="m2417 521 18-238-201 93z" fill="#a0566e" stroke="#a0566e"/><path d="m2281-117-236-122 60 195z" fill="#9a4e76" stroke="#9a4e76"/><path d="m2105-44-60-195-176 198z" fill="#924678" stroke="#924678"/><path d="m2585 469-150-186-18 238z" fill="#a65c6b" stroke="#a65c6b"/><path d="m117 1319 27 153 160-169z" fill="#83367c" stroke="#83367c"/><path d="m2281-117-176 73 136 176z" fill="#9c5174" stroke="#9c5174"/><path d="m114 947-173 115 233 70z" fill="#6b1e83" stroke="#6b1e83"/><path d="m117 1319-204 155 231-2z" fill="#883b7b" stroke="#883b7b"/><path d="m-84 719 228-11-225-189z" fill="#621589" stroke="#621589"/><path d="m144 708 43-168-268-21z" fill="#611489" stroke="#611489"/><path d="m1520 2098 141-38-144-203z" fill="#b6725c" stroke="#b6725c"/><path d="m1859 1845 206 4 1-207z" fill="#bd7a58" stroke="#bd7a58"/><path d="m1298 2079 222 19-3-241z" fill="#b16b5f" stroke="#b16b5f"/><path d="m1857 2081 208-232-206-4z" fill="#c28154" stroke="#c28154"/><path d="m-58 865-1 197 173-115z" fill="#651786" stroke="#651786"/><path d="m-81 519 268 21-35-226z" fill="#631689" stroke="#631689"/><path d="m-269 907 61 194 149-39z" fill="#6b1e85" stroke="#6b1e85"/><path d="m2592 1258 12-213-160 41z" fill="#b26c5f" stroke="#b26c5f"/><path d="m2454 1626-8-201-169 72z" fill="#c07e56" stroke="#c07e56"/><path d="m2454 1626-177-129-33 120z" fill="#c17f56" stroke="#c17f56"/><path d="m865 1995-158 41 412 25z" fill="#a96066" stroke="#a96066"/><path d="m1119 2061-566 46 745-28z" fill="#ab6365" stroke="#ab6365"/><path d="m1298 2079-745 28 967-9z" fill="#aa6363" stroke="#aa6363"/><path d="m571 1815 136 221-19-189z" fill="#a3596c" stroke="#a3596c"/><path d="m553 2107 154-71-136-221z" fill="#a9606a" stroke="#a9606a"/><path d="m383 1874 166-158-220-87z" fill="#9a5071" stroke="#9a5071"/><path d="m748-221-262-88 5 233z" fill="#651a8c" stroke="#651a8c"/><path d="m386-60-290-57 93 243z" fill="#661b8d" stroke="#661b8d"/><path d="m1259-276-773-33 628 53z" fill="#63168a" stroke="#63168a"/><path d="m1873-283-1387-26 773 33z" fill="#621488" stroke="#621488"/><path d="m-61 288 213 26-165-142z" fill="#65198b" stroke="#65198b"/><path d="m-61 288-20 231 233-205z" fill="#64188b" stroke="#64188b"/><path d="m2592 1258-148-172 3 200z" fill="#b46f5e" stroke="#b46f5e"/><path d="m2629 710-212-189 7 204z" fill="#a45a69" stroke="#a45a69"/><path d="m2430-21-149-96-40 249z" fill="#a15771" stroke="#a15771"/><path d="m2629 710-205 15 68 210z" fill="#a45b67" stroke="#a45b67"/><path d="m136 1839 247 35-54-245z" fill="#9e5471" stroke="#9e5471"/><path d="m2463 114-222 18 194 151z" fill="#a3596f" stroke="#a3596f"/><path d="m2604 1045 24-136-136 26z" fill="#a96163" stroke="#a96163"/><path d="m2628 909 1-199-137 225z" fill="#a65e65" stroke="#a65e65"/><path d="m2617 167-154-53-28 169z" fill="#a9606c" stroke="#a9606c"/><path d="m486-309-180 84 185 149z" fill="#671b8d" stroke="#671b8d"/><path d="m-208 1101 126 152 23-191z" fill="#742882" stroke="#742882"/><path d="m-59 1062-23 191 256-121z" fill="#742781" stroke="#742781"/><path d="m144 1472-16 206 201-49z" fill="#924776" stroke="#924776"/><path d="m-13 172 165 142 37-188z" fill="#65198b" stroke="#65198b"/><path d="m-15-64 2 236 202-46z" fill="#671c8d" stroke="#671c8d"/><path d="m1661 2060 196 21 2-236z" fill="#c07e56" stroke="#c07e56"/><path d="m2065 1849 157-12-156-195z" fill="#c38154" stroke="#c38154"/><path d="m1520 2098 337-17-196-21z" fill="#c07e56" stroke="#c07e56"/><path d="m2604 1045-12 213 36-349z" fill="#b16b5f" stroke="#b16b5f"/><path d="m2446 1425 146-167-145 28z" fill="#bb775a" stroke="#bb775a"/><path d="m2117 2020 105-183-157 12z" fill="#cb8b4f" stroke="#cb8b4f"/><path d="m2446 1425 160 92-14-259z" fill="#c18055" stroke="#c18055"/><path d="m-34 1666 162 12 16-206z" fill="#944877" stroke="#944877"/><path d="m2656-115-226 94 33 135z" fill="#ab636d" stroke="#ab636d"/><path d="m2463 114-33-135-189 153z" fill="#a45a6f" stroke="#a45a6f"/><path d="m2585 469 27-188-177 2z" fill="#aa616a" stroke="#aa616a"/><path d="m2629 710-17-429-27 188z" fill="#ab6367" stroke="#ab6367"/><path d="m2437 1816 17-190-210-9z" fill="#ca8a4f" stroke="#ca8a4f"/><path d="m2484-222-220-35 17 140z" fill="#a55b72" stroke="#a55b72"/><path d="m2281-117-17-140-219 18z" fill="#9d5275" stroke="#9d5275"/><path d="m2045-239 219-18-391-26z" fill="#964a79" stroke="#964a79"/><path d="m306-225-210 108 290 57z" fill="#671c8d" stroke="#671c8d"/><path d="m-262 302-15 163 216-177z" fill="#661a8c" stroke="#661a8c"/><path d="m383 1874 170 233 18-292z" fill="#a65d6c" stroke="#a65d6c"/><path d="m707 2036-154 71 566-46z" fill="#ac6466" stroke="#ac6466"/><path d="m312 2066 241 41-170-233z" fill="#ac636a" stroke="#ac636a"/><path d="m-84 719-143-16 169 162z" fill="#621488" stroke="#621488"/><path d="m-81 519-146 184 143 16z" fill="#631689" stroke="#631689"/><path d="m-277 465 50 238 146-184z" fill="#64178a" stroke="#64178a"/><path d="m-277 465 196 54 20-231z" fill="#65198b" stroke="#65198b"/><path d="m-82 1253-5 221 204-155z" fill="#83367d" stroke="#83367d"/><path d="m-269 907 210 155 1-197z" fill="#641786" stroke="#641786"/><path d="m2222 1837 215-21-193-199z" fill="#ca8b4f" stroke="#ca8b4f"/><path d="m1857 2081 260-61-52-171z" fill="#ca8a50" stroke="#ca8a50"/><path d="m128 1678 8 161 193-210z" fill="#9a5073" stroke="#9a5073"/><path d="m-262 1329 175 145 5-221z" fill="#84387e" stroke="#84387e"/><path d="m486-309-303 52 123 32z" fill="#671d8e" stroke="#671d8e"/><path d="m306-225-123-32-87 140z" fill="#681e8e" stroke="#681e8e"/><path d="m2612 281 5-114-182 116z" fill="#ab636a" stroke="#ab636a"/><path d="m2430-21 54-201-203 105z" fill="#a65d70" stroke="#a65d70"/><path d="m2656-115-39 282 64-369z" fill="#b36b6a" stroke="#b36b6a"/><path d="m-34 1666 170 173-8-161z" fill="#9c5174" stroke="#9c5174"/><path d="m-227 703-42 204 211-42z" fill="#621488" stroke="#621488"/><path d="m2597 1613 9-96-152 109z" fill="#cc8d4d" stroke="#cc8d4d"/><path d="m2454 1626 152-109-160-92z" fill="#c68652" stroke="#c68652"/><path d="m2592 1258 14 259 22-608z" fill="#ba765a" stroke="#ba765a"/><path d="m0-309-15 245 111-53z" fill="#691f8f" stroke="#691f8f"/><path d="m96-117-111 53 204 190z" fill="#671c8d" stroke="#671c8d"/><path d="m-87 1474 53 192 178-194z" fill="#904478" stroke="#904478"/><path d="m-207 1701 173-35-53-192z" fill="#964b77" stroke="#964b77"/><path d="m-262 1329 180-76-126-152z" fill="#7c2f81" stroke="#7c2f81"/><path d="m2404 2041 33-225-215 21z" fill="#d49846" stroke="#d49846"/><path d="m-227 703-50-238 8 442z" fill="#63178a" stroke="#63178a"/><path d="m-262 302 201-14-174-102z" fill="#671b8d" stroke="#671b8d"/><path d="m2614 1818-17-205-143 13z" fill="#d29549" stroke="#d29549"/><path d="m191 2103 121-37-176-227z" fill="#ad646b" stroke="#ad646b"/><path d="m136 1839 176 227 71-192z" fill="#a75e6d" stroke="#a75e6d"/><path d="m1857 2081 376-36-116-25z" fill="#d0924a" stroke="#d0924a"/><path d="m2117 2020 116 25-11-208z" fill="#d1944a" stroke="#d1944a"/><path d="m-235 186 174 102 48-116z" fill="#671b8d" stroke="#671b8d"/><path d="m-269 907 7 422 54-228z" fill="#732684" stroke="#732684"/><path d="m-274 1454 12-125-7-422z" fill="#7c3082" stroke="#7c3082"/><path d="m2656-115-172-107-54 201z" fill="#ad646e" stroke="#ad646e"/><path d="m-15-64-220 250 222-14z" fill="#681c8e" stroke="#681c8e"/><path d="m-55 2072 246 31-55-264z" fill="#ae656c" stroke="#ae656c"/><path d="m-262 1329-12 125 187 20z" fill="#8a3d7d" stroke="#8a3d7d"/><path d="m-277 465 3 989 5-547z" fill="#651887" stroke="#651887"/><path d="m-15-64-174-50-46 300z" fill="#691e8f" stroke="#691e8f"/><path d="m183-257-183-52 96 192z" fill="#691f8f" stroke="#691f8f"/><path d="m486-309h-486l183 52z" fill="#691e8f" stroke="#691e8f"/><path d="m312 2066-121 37 362 4z" fill="#b16968" stroke="#b16968"/><path d="m-75 1839h211l-170-173z" fill="#a05672" stroke="#a05672"/><path d="m2617 167 39-282-193 229z" fill="#ae666b" stroke="#ae666b"/><path d="m2681-202-64 369-5 114z" fill="#b1696a" stroke="#b1696a"/><path d="m2681-202-69 483 17 429z" fill="#af6768" stroke="#af6768"/><path d="m-207 1701 132 138 41-173z" fill="#9e5474" stroke="#9e5474"/><path d="m2233 2045 171-4-182-204z" fill="#d69a45" stroke="#d69a45"/><path d="m2437 1816 177 2-160-192z" fill="#d39748" stroke="#d39748"/><path d="m2653 2081-249-40-171 4z" fill="#e0a839" stroke="#e0a839"/><path d="m2404 2041 210-223-177-2z" fill="#daa041" stroke="#daa041"/><path d="m2597 1613 17 205-8-301z" fill="#d29548" stroke="#d29548"/><path d="m2606 1517 47 564-25-1172z" fill="#cb8c4e" stroke="#cb8c4e"/><path d="m2628 909 53-1111-52 912z" fill="#ad6666" stroke="#ad6666"/><path d="m-193-200 4 86 174 50z" fill="#6a208f" stroke="#6a208f"/><path d="m-235 186 42-386-69 502z" fill="#691e8f" stroke="#691e8f"/><path d="m-274 1454 67 247 120-227z" fill="#92467a" stroke="#92467a"/><path d="m2484-222 197 20-417-55z" fill="#ac6270" stroke="#ac6270"/><path d="m2656-115 25-87-197-20z" fill="#b26a6c" stroke="#b26a6c"/><path d="m2653 2081 28-2283-53 1111z" fill="#ab6462" stroke="#ab6462"/><path d="m0-309-193 109 178 136z" fill="#6b2090" stroke="#6b2090"/><path d="m-189-114-4-86-42 386z" fill="#6a208f" stroke="#6a208f"/><path d="m-274 1454 48 361 19-114z" fill="#9a4f77" stroke="#9a4f77"/><path d="m-207 1701-19 114 151 24z" fill="#a25774" stroke="#a25774"/><path d="m-75 1839 20 233 191-233z" fill="#a95f6f" stroke="#a95f6f"/><path d="m-220 2013 165 59-20-233z" fill="#ad656e" stroke="#ad656e"/><path d="m2614 1818 39 263-47-564z" fill="#dba13f" stroke="#dba13f"/><path d="m2404 2041 249 40-39-263z" fill="#e2aa38" stroke="#e2aa38"/><path d="m1857 2081h796l-420-36z" fill="#d99e42" stroke="#d99e42"/><path d="m1520 2098 1133-17h-796z" fill="#cf924b" stroke="#cf924b"/><path d="m-226 1815 6 198 145-174z" fill="#a95f71" stroke="#a95f71"/><path d="m-274 1454 54 559-6-198z" fill="#a15675" stroke="#a15675"/></g></svg>